<svg xmlns="http://www.w3.org/2000/svg" xmlns:xlink="http://www.w3.org/1999/xlink" width="47.477" height="47.477" viewBox="0 0 47.477 47.477">
  <defs>
    <clipPath id="clip-path">
      <path id="Path_732" data-name="Path 732" d="M23.738,0A23.738,23.738,0,1,1,0,23.738,23.738,23.738,0,0,1,23.738,0Z" transform="translate(0)" fill="#fff"/>
    </clipPath>
  </defs>
  <g id="Mask_Group_2" data-name="Mask Group 2" clip-path="url(#clip-path)">
    <g id="telegram_3_" data-name="telegram (3)" transform="translate(-1.087 0.088)">
      <ellipse id="Ellipse_180" data-name="Ellipse 180" cx="24.5" cy="23.5" rx="24.5" ry="23.5" transform="translate(-0.186 0.151)" fill="#039be5"/>
      <path id="Path_731" data-name="Path 731" d="M12.393,25.489l22.888-8.825c1.062-.384,1.99.259,1.646,1.865l0,0-3.9,18.36c-.289,1.3-1.062,1.618-2.144,1l-5.935-4.374L22.09,36.276a1.5,1.5,0,0,1-1.2.584l.421-6.039,11-9.936c.479-.421-.107-.659-.738-.239L17.984,29.2l-5.859-1.828c-1.272-.4-1.3-1.272.269-1.885Z" transform="translate(-0.444 -2.353)" fill="#fff"/>
    </g>
  </g>
</svg>
