<svg xmlns="http://www.w3.org/2000/svg" xmlns:xlink="http://www.w3.org/1999/xlink" width="47" height="47" viewBox="0 0 47 47">
  <defs>
    <clipPath id="clip-path">
      <circle id="Ellipse_182" data-name="Ellipse 182" cx="23.5" cy="23.5" r="23.5" transform="translate(0.367 0.151)" fill="#fff"/>
    </clipPath>
  </defs>
  <g id="Mask_Group_3" data-name="Mask Group 3" transform="translate(-0.367 -0.151)" clip-path="url(#clip-path)">
    <g id="twitter_1_" data-name="twitter (1)" transform="translate(0 0)">
      <circle id="Ellipse_181" data-name="Ellipse 181" cx="23.5" cy="23.5" r="23.5" transform="translate(0.367 0.151)" fill="#55acee"/>
      <g id="Group_353" data-name="Group 353" transform="translate(10.208 14.311)">
        <path id="Path_733" data-name="Path 733" d="M39.963,19.342a11.321,11.321,0,0,1-3.259.892A5.69,5.69,0,0,0,39.2,17.1a11.359,11.359,0,0,1-3.6,1.377,5.679,5.679,0,0,0-9.669,5.176,16.107,16.107,0,0,1-11.7-5.929,5.68,5.68,0,0,0,1.756,7.576,5.634,5.634,0,0,1-2.57-.71c0,.024,0,.048,0,.072a5.677,5.677,0,0,0,4.552,5.563,5.7,5.7,0,0,1-2.562.1,5.68,5.68,0,0,0,5.3,3.94,11.454,11.454,0,0,1-8.4,2.349,16.05,16.05,0,0,0,8.7,2.55c10.437,0,16.144-8.646,16.144-16.145,0-.246-.006-.491-.017-.734a11.506,11.506,0,0,0,2.832-2.937Z" transform="translate(-12.306 -16.681)" fill="#f1f2f2"/>
      </g>
    </g>
  </g>
</svg>
