<svg xmlns="http://www.w3.org/2000/svg" xmlns:xlink="http://www.w3.org/1999/xlink" width="47" height="47" viewBox="0 0 47 47">
  <defs>
    <clipPath id="clip-path">
      <circle id="Ellipse_179" data-name="Ellipse 179" cx="23.5" cy="23.5" r="23.5" transform="translate(-0.066 0.151)" fill="#fff"/>
    </clipPath>
  </defs>
  <g id="Mask_Group_1" data-name="Mask Group 1" transform="translate(0.066 -0.151)" clip-path="url(#clip-path)">
    <g id="whatsapp_2_" data-name="whatsapp (2)" transform="translate(0.238 -0.088)">
      <path id="Path_729" data-name="Path 729" d="M23.744,0h-.012A23.724,23.724,0,0,0,4.519,37.652L1.561,46.471l9.124-2.917A23.734,23.734,0,1,0,23.744,0Z" transform="translate(0)" fill="#4caf50"/>
      <path id="Path_730" data-name="Path 730" d="M39.133,35.242c-.573,1.617-2.846,2.958-4.659,3.35-1.24.264-2.86.475-8.314-1.786-6.976-2.89-11.469-9.979-11.819-10.439s-2.819-3.754-2.819-7.16a7.578,7.578,0,0,1,2.427-5.777,3.449,3.449,0,0,1,2.427-.852c.294,0,.558.015.8.027.7.03,1.047.071,1.507,1.172.573,1.38,1.967,4.786,2.133,5.136a1.413,1.413,0,0,1,.1,1.285,4.1,4.1,0,0,1-.769,1.089c-.35.4-.682.712-1.033,1.145-.32.377-.682.78-.279,1.478A21.07,21.07,0,0,0,22.685,28.7a17.452,17.452,0,0,0,5.567,3.433,1.5,1.5,0,0,0,1.674-.264,28.72,28.72,0,0,0,1.855-2.457,1.325,1.325,0,0,1,1.7-.516c.641.223,4.033,1.9,4.73,2.246s1.157.516,1.326.81A5.912,5.912,0,0,1,39.133,35.242Z" transform="translate(-1.576 -1.721)" fill="#fafafa"/>
    </g>
  </g>
</svg>
