<svg id="_002-commerce-and-shopping" data-name="002-commerce-and-shopping" xmlns="http://www.w3.org/2000/svg" width="32.367" height="34.398" viewBox="0 0 32.367 34.398">
  <path id="Path_159" data-name="Path 159" d="M130.545,132.872h-19.03l-3.269-15.243h26.11Z" transform="translate(-101.989 -109.726)" fill="#82d2ff"/>
  <path id="Path_160" data-name="Path 160" d="M302.847,132.872h-9.889V117.629h13.7Z" transform="translate(-274.292 -109.726)" fill="#08b7fc"/>
  <path id="Path_161" data-name="Path 161" d="M40.629,64.74H25.524L19.215,40.015h-4.1V38h5.664L27.09,62.725H40.629Z" transform="translate(-15.117 -35.447)" fill="#e6e6e6"/>
  <rect id="Rectangle_137" data-name="Rectangle 137" width="6.846" height="2.016" transform="translate(18.667 27.278)" fill="#ccc"/>
  <path id="Path_162" data-name="Path 162" d="M131.19,413.138a3.56,3.56,0,1,1,3.56-3.56A3.564,3.564,0,0,1,131.19,413.138Z" transform="translate(-120.071 -378.74)" fill="#999"/>
  <path id="Path_163" data-name="Path 163" d="M345.427,413.138a3.56,3.56,0,1,1,3.56-3.56A3.564,3.564,0,0,1,345.427,413.138Z" transform="translate(-319.915 -378.74)" fill="#666"/>
  <rect id="Rectangle_138" data-name="Rectangle 138" width="14.269" height="14.269" transform="translate(11.532)" fill="#ffa900"/>
  <rect id="Rectangle_139" data-name="Rectangle 139" width="7.134" height="14.269" transform="translate(18.667)" fill="#f80"/>
  <path id="Path_164" data-name="Path 164" d="M258.094,0V4.685l2.342-.761,2.342.761V0Z" transform="translate(-241.77)" fill="#fde888"/>
  <path id="Path_165" data-name="Path 165" d="M292.958,0V3.923l2.342.761V0Z" transform="translate(-274.292)" fill="#ffdb0c"/>
</svg>
