<svg id="Dairy_Product" data-name="Dairy Product" xmlns="http://www.w3.org/2000/svg" width="116.163" height="116.163" viewBox="0 0 116.163 116.163">
  <g id="Flat">
    <path id="Path_265" data-name="Path 265" d="M84.3,16.335H48V3.63A3.63,3.63,0,0,1,51.63,0H80.671A3.63,3.63,0,0,1,84.3,3.63Z" transform="translate(-37.11 0)" fill="#e2dbd5"/>
    <path id="Path_266" data-name="Path 266" d="M158.558,56H144V159.458h25.486V75.966Z" transform="translate(-111.329 -43.295)" fill="#d4ccc7"/>
    <path id="Path_267" data-name="Path 267" d="M144,56h14.558V159.458H144Z" transform="translate(-111.329 -43.295)" fill="#c6bab3"/>
    <path id="Path_268" data-name="Path 268" d="M38.479,128,36.3,131.63v83.492H3.63A3.63,3.63,0,0,1,0,211.492V131.63A7.477,7.477,0,0,1,6.411,128Z" transform="translate(0 -98.959)" fill="#e2dbd5"/>
    <rect id="Rectangle_16" data-name="Rectangle 16" width="25.126" height="16.751" rx="8" transform="translate(69.598 0.5)" fill="#ffead2"/>
    <path id="Path_269" data-name="Path 269" d="M349.776,0h-5.445A19.969,19.969,0,0,1,332.69,18.152h17.086a1.815,1.815,0,0,0,1.815-1.815V1.815A1.815,1.815,0,0,0,349.776,0Z" transform="translate(-257.209)" fill="#faddc3"/>
    <path id="Path_270" data-name="Path 270" d="M304,24h25.411v3.63H304Z" transform="translate(-235.028 -18.555)" fill="#f5d3b8"/>
    <path id="Path_271" data-name="Path 271" d="M310.116,165.643h-36.3A1.815,1.815,0,0,1,272,163.828V94.856A20.063,20.063,0,0,1,279.836,79c3.709-2.837-4.206-5.63-4.206-9.816A5.186,5.186,0,0,1,280.81,64h22.31a5.186,5.186,0,0,1,5.18,5.18c0,2.3-2.511,4.4-2.511,4.4-2.01,1.683-3.492,4.04-1.7,5.414a20.063,20.063,0,0,1,7.836,15.86v68.972A1.815,1.815,0,0,1,310.116,165.643Z" transform="translate(-210.288 -49.48)" fill="#f09b73"/>
    <path id="Path_272" data-name="Path 272" d="M272,214.895v43.7a1.815,1.815,0,0,0,1.815,1.815h36.3a1.815,1.815,0,0,0,1.815-1.815V189.622a19.756,19.756,0,0,0-.238-3.046A47.218,47.218,0,0,1,272,214.895Z" transform="translate(-210.288 -144.245)" fill="#e58b6c"/>
    <path id="Path_273" data-name="Path 273" d="M36.3,75.966H0L10.89,56h36.3Z" transform="translate(0 -43.295)" fill="#efebe8"/>
    <path id="Path_274" data-name="Path 274" d="M280,276.972c12.365,0,28.24-2.564,35.751-9.805a1.789,1.789,0,0,0,.429-1.937l-14.87-38.284a1.819,1.819,0,0,0-2.167-1.09c-5.009,1.343-5.855-5.065-2.606-6.685a1.792,1.792,0,0,0,.878-2.254l-3.016-7.764A1.815,1.815,0,0,0,292.705,208H280Z" transform="translate(-216.473 -160.809)" fill="#eed60f"/>
    <path id="Path_275" data-name="Path 275" d="M199.6,276.972a32.991,32.991,0,0,1-23.046-9.285,1.815,1.815,0,0,1-.429-1.954l2.22-5.765a1.815,1.815,0,0,1,1.585-1.16,3.687,3.687,0,0,0,2.343-6.108,1.815,1.815,0,0,1-.392-1.916l5.865-15.232a1.831,1.831,0,0,1,2.671-.878c4.535,2.894,7.708-5.8,2.567-6.65a1.834,1.834,0,0,1-1.4-2.443l6.321-16.418a1.815,1.815,0,0,1,3.388,0l21.781,56.57a1.815,1.815,0,0,1-.429,1.954A32.991,32.991,0,0,1,199.6,276.972Z" transform="translate(-136.068 -160.809)" fill="#f8e868"/>
    <path id="Path_276" data-name="Path 276" d="M225,379.308l-9.4-24.4a45.4,45.4,0,0,1-37.109,26.372,33.242,33.242,0,0,0,46.076-.015,1.815,1.815,0,0,0,.429-1.954Z" transform="translate(-137.997 -274.384)" fill="#f6e23d"/>
    <ellipse id="Ellipse_11" data-name="Ellipse 11" cx="5.758" cy="5.235" rx="5.758" ry="5.235" transform="translate(65.41 92.63)" fill="#f8e868"/>
    <ellipse id="Ellipse_12" data-name="Ellipse 12" cx="5.235" cy="5.758" rx="5.235" ry="5.758" transform="translate(60.175 80.067)" fill="#f6e23d"/>
    <ellipse id="Ellipse_13" data-name="Ellipse 13" cx="5.758" cy="4.711" rx="5.758" ry="4.711" transform="translate(50.753 96.817)" fill="#f8e868"/>
    <g id="Group_58" data-name="Group 58" transform="translate(50.821 79.862)">
      <path id="Path_277" data-name="Path 277" d="M291.628,417.074a5.445,5.445,0,0,1,7.026-5.211,5.445,5.445,0,1,0-6.791,6.791A5.431,5.431,0,0,1,291.628,417.074Z" transform="translate(-273.477 -395.293)" fill="#eed60f"/>
      <path id="Path_278" data-name="Path 278" d="M267.628,361.074a5.445,5.445,0,0,1,7.026-5.211,5.445,5.445,0,1,0-6.791,6.791,5.43,5.43,0,0,1-.235-1.58Z" transform="translate(-254.923 -351.998)" fill="#eed60f"/>
      <path id="Path_279" data-name="Path 279" d="M227.628,433.074a5.445,5.445,0,0,1,7.026-5.211,5.445,5.445,0,1,0-6.791,6.791A5.43,5.43,0,0,1,227.628,433.074Z" transform="translate(-223.998 -407.662)" fill="#eed60f"/>
    </g>
    <circle id="Ellipse_14" data-name="Ellipse 14" cx="3.664" cy="3.664" r="3.664" transform="translate(60.175 60.175)" fill="#fcf5be"/>
    <ellipse id="Ellipse_15" data-name="Ellipse 15" cx="2.094" cy="1.57" rx="2.094" ry="1.57" transform="translate(65.41 69.597)" fill="#fcf5be"/>
    <path id="Path_280" data-name="Path 280" d="M336.033,328l3.63,40.1a1.815,1.815,0,0,0,1.808,1.651h25.411a1.815,1.815,0,0,0,1.808-1.651l3.63-40.1Z" transform="translate(-259.794 -253.583)" fill="#81c784"/>
    <ellipse id="Ellipse_16" data-name="Ellipse 16" cx="4.188" cy="4.711" rx="4.188" ry="4.711" transform="translate(76.926 28.767)" fill="#f2bba5"/>
    <ellipse id="Ellipse_17" data-name="Ellipse 17" cx="3.141" cy="2.617" rx="3.141" ry="2.617" transform="translate(85.302 38.19)" fill="#f2bba5"/>
    <ellipse id="Ellipse_18" data-name="Ellipse 18" cx="3.141" cy="3.664" rx="3.141" ry="3.664" transform="translate(10.97 17.251)" fill="#fff"/>
    <circle id="Ellipse_19" data-name="Ellipse 19" cx="2.094" cy="2.094" r="2.094" transform="translate(17.251 24.58)" fill="#fff"/>
    <circle id="Ellipse_20" data-name="Ellipse 20" cx="3.664" cy="3.664" r="3.664" transform="translate(82.161 80.067)" fill="#c8e6c9"/>
    <ellipse id="Ellipse_21" data-name="Ellipse 21" cx="1.57" cy="2.094" rx="1.57" ry="2.094" transform="translate(89.489 87.395)" fill="#c8e6c9"/>
    <path id="Path_281" data-name="Path 281" d="M0,446.52a3.63,3.63,0,0,0,3.63,3.63H36.3V432C30.039,446.329,0,446.52,0,446.52Z" transform="translate(0 -333.988)" fill="#d4ccc7"/>
    <path id="Path_282" data-name="Path 282" d="M0,208H36.3v50.821H0Z" transform="translate(0 -160.809)" fill="#ea6049"/>
    <path id="Path_283" data-name="Path 283" d="M0,271.322v13.548H36.3V241.692A49.08,49.08,0,0,1,0,271.322Z" transform="translate(0 -186.857)" fill="#de513e"/>
    <path id="Path_284" data-name="Path 284" d="M32,274.15c0-5.33,9.075-18.15,10.89-18.15s10.89,12.565,10.89,18.15C53.781,287.177,32,289.1,32,274.15Z" transform="translate(-24.74 -197.919)" fill="#fff"/>
    <path id="Path_285" data-name="Path 285" d="M36.09,324.853c4.154,9.492,20.853,6.6,20.853-4.807a12.946,12.946,0,0,0-1.225-4.682A16.545,16.545,0,0,1,36.09,324.853Z" transform="translate(-27.902 -243.814)" fill="#efebe8"/>
    <path id="Path_286" data-name="Path 286" d="M361.746,323.63H321.815a1.815,1.815,0,1,1,0-3.63h39.931a1.815,1.815,0,0,1,0,3.63Z" transform="translate(-247.398 -247.398)" fill="#49ad4d"/>
    <path id="Path_287" data-name="Path 287" d="M348,389.115l.916,10.115a1.815,1.815,0,0,0,1.807,1.651h25.411a1.815,1.815,0,0,0,1.808-1.651l2.8-30.959A39.024,39.024,0,0,1,348,389.115Z" transform="translate(-269.046 -284.717)" fill="#66bb6a"/>
  </g>
</svg>
