<svg xmlns="http://www.w3.org/2000/svg" width="23.512" height="24.745" viewBox="0 0 23.512 24.745">
  <g id="delivery_1_" data-name="delivery (1)" transform="translate(-12.757)">
    <path id="Path_712" data-name="Path 712" d="M316.737,267.574a1.177,1.177,0,0,1-.874-1.417l1.335-5.629a1.187,1.187,0,0,1,.106-.281l2.353-4.427a1.177,1.177,0,0,1,2.079,1.105l-2.282,4.293-1.3,5.482A1.177,1.177,0,0,1,316.737,267.574Z" transform="translate(-288.427 -242.862)" fill="#8f8f8f"/>
    <path id="Path_713" data-name="Path 713" d="M358.9,119.849l-1.521-5.191,1.064-5.177-1.512-6.883a1.374,1.374,0,0,0-1.636-1.047l-2.392.525a1.374,1.374,0,0,0-1.047,1.636l1.512,6.883,2.564-.563-.917,4.436a1.177,1.177,0,0,0,.023.569l1.6,5.473a1.177,1.177,0,0,0,2.259-.662Z" transform="translate(-322.681 -96.612)" fill="gray"/>
    <path id="Path_714" data-name="Path 714" d="M350.69,260.091l1.683-3.166a1.177,1.177,0,0,0-2.079-1.105l-2.27,4.271,2.243.8Z" transform="translate(-319.064 -242.862)" fill="#3e3e3e"/>
    <path id="Path_715" data-name="Path 715" d="M355.056,114.278h2.4l.986-4.8-1.512-6.883a1.373,1.373,0,0,0-1.636-1.047l-2.392.525a1.374,1.374,0,0,0-1.047,1.636l1.512,6.883,2.563-.563Z" transform="translate(-322.683 -96.611)" fill="#424242"/>
    <path id="Path_716" data-name="Path 716" d="M353.37,110.594l5.075-1.115-1.512-6.883a1.373,1.373,0,0,0-1.636-1.047l-2.392.525a1.374,1.374,0,0,0-1.047,1.636Z" transform="translate(-322.682 -96.611)" fill="#686868"/>
    <circle id="Ellipse_177" data-name="Ellipse 177" cx="2.168" cy="2.168" r="2.168" transform="translate(28.716 0.32)" fill="gray"/>
    <path id="Path_717" data-name="Path 717" d="M174.069,124.492h6.123a.835.835,0,0,0,.835-.835v-6.123a.835.835,0,0,0-.835-.835h-6.123a.835.835,0,0,0-.835.835v6.123A.835.835,0,0,0,174.069,124.492Z" transform="translate(-152.721 -111.06)" fill="#cfcfcf"/>
    <path id="Path_718" data-name="Path 718" d="M228.655,116.7v2.985h0v.408l.406-.406.406.406.406-.406.406.406.406-.406.406.406V116.7Z" transform="translate(-205.464 -111.06)" fill="#919191"/>
    <path id="Path_719" data-name="Path 719" d="M313.028,33.507h-2.907a.582.582,0,1,1,0-1.165h2.907a.582.582,0,0,1,0,1.165Z" transform="translate(-282.438 -30.779)" fill="#424242"/>
    <path id="Path_720" data-name="Path 720" d="M346.267,8.292h0a.276.276,0,0,1,.276-.276h.627a2.168,2.168,0,0,0-4.187,1h4.309a2.173,2.173,0,0,0,0-.446h-.754A.276.276,0,0,1,346.267,8.292Z" transform="translate(-314.254 -6.285)" fill="#686868"/>
    <path id="Path_721" data-name="Path 721" d="M259.266,118.972l3.751.131a.921.921,0,0,0,.781-.384l2.539-3.647a.921.921,0,1,0-1.5-1.073l-2.325,3.245-3.184-.112a.921.921,0,0,0-.065,1.841Z" transform="translate(-233.749 -108.123)" fill="gray"/>
    <path id="Path_722" data-name="Path 722" d="M365.6,116.944l1.3-1.873a.921.921,0,1,0-1.5-1.073l-1.355,1.891Z" transform="translate(-334.32 -108.122)" fill="#565656"/>
    <path id="Path_723" data-name="Path 723" d="M13.936,279.936a1.179,1.179,0,0,0,1.179-1.179V269.33a1.179,1.179,0,1,0-2.359,0v9.426A1.179,1.179,0,0,0,13.936,279.936Z" transform="translate(0 -255.191)" fill="#818181"/>
    <path id="Path_724" data-name="Path 724" d="M72.842,279.936a1.179,1.179,0,0,0,1.179-1.179V269.33a1.179,1.179,0,1,0-2.359,0v9.426A1.179,1.179,0,0,0,72.842,279.936Z" transform="translate(-56.059 -255.191)" fill="#858585"/>
    <path id="Path_725" data-name="Path 725" d="M17.964,106.7H12.758v-7.91a1.529,1.529,0,0,1,1.529-1.529h2.148a1.529,1.529,0,0,1,1.529,1.529v7.91Z" transform="translate(-0.001 -92.561)" fill="#6a6a6a"/>
    <g id="Group_352" data-name="Group 352" transform="translate(13.324 0)">
      <circle id="Ellipse_178" data-name="Ellipse 178" cx="2.037" cy="2.037" r="2.037" transform="translate(0 0)" fill="#838383"/>
      <path id="Path_726" data-name="Path 726" d="M43.779,108.207l-3.036-2.736a1.051,1.051,0,1,1,1.407-1.561l2.657,2.394,2.939-.5a1.051,1.051,0,1,1,.354,2.071l-3.441.589A1.05,1.05,0,0,1,43.779,108.207Z" transform="translate(-39.627 -98.631)" fill="#838383"/>
    </g>
    <path id="Path_727" data-name="Path 727" d="M44.24,105.794l-2.09-1.883a1.051,1.051,0,1,0-1.407,1.561l2.143,1.931Z" transform="translate(-26.304 -98.631)" fill="#505050"/>
  </g>
</svg>
