<svg xmlns="http://www.w3.org/2000/svg" width="28.359" height="29.846" viewBox="0 0 28.359 29.846">
  <g id="delivery" transform="translate(-12.757)">
    <path id="Path_696" data-name="Path 696" d="M316.924,270.127a1.42,1.42,0,0,1-1.054-1.709l1.61-6.79a1.426,1.426,0,0,1,.128-.339l2.838-5.34a1.42,1.42,0,0,1,2.508,1.333l-2.753,5.179-1.568,6.612A1.42,1.42,0,0,1,316.924,270.127Z" transform="translate(-285.407 -240.319)" fill="#ad5f40"/>
    <path id="Path_697" data-name="Path 697" d="M360.361,123.627l-1.835-6.261,1.283-6.244-1.823-8.3a1.657,1.657,0,0,0-1.973-1.263l-2.886.634a1.657,1.657,0,0,0-1.263,1.973l1.823,8.3,3.092-.679-1.106,5.351a1.42,1.42,0,0,0,.028.687l1.934,6.6a1.42,1.42,0,0,0,2.725-.8Z" transform="translate(-319.302 -95.601)" fill="#ba6746"/>
    <path id="Path_698" data-name="Path 698" d="M351.24,261.1l2.03-3.819a1.42,1.42,0,0,0-2.508-1.333l-2.738,5.151,2.706.96Z" transform="translate(-315.723 -240.319)" fill="#3c5064"/>
    <path id="Path_699" data-name="Path 699" d="M355.722,116.909h2.9l1.189-5.787-1.823-8.3a1.657,1.657,0,0,0-1.973-1.263l-2.886.634a1.657,1.657,0,0,0-1.263,1.973l1.823,8.3,3.092-.679Z" transform="translate(-319.304 -95.6)" fill="#3c5a73"/>
    <path id="Path_700" data-name="Path 700" d="M353.688,112.466l6.122-1.344-1.823-8.3a1.657,1.657,0,0,0-1.973-1.263l-2.885.634a1.657,1.657,0,0,0-1.263,1.973Z" transform="translate(-319.303 -95.6)" fill="#1c9585"/>
    <circle id="Ellipse_175" data-name="Ellipse 175" cx="2.615" cy="2.615" r="2.615" transform="translate(32.007 0.386)" fill="#ba6746"/>
    <path id="Path_701" data-name="Path 701" d="M174.241,126.1h7.385a1.007,1.007,0,0,0,1.007-1.007v-7.385a1.007,1.007,0,0,0-1.007-1.007h-7.385a1.007,1.007,0,0,0-1.007,1.007v7.385A1.007,1.007,0,0,0,174.241,126.1Z" transform="translate(-151.122 -109.897)" fill="#c8a06e"/>
    <path id="Path_702" data-name="Path 702" d="M228.655,116.7v3.6h0v.492l.49-.49.49.49.49-.49.49.49.49-.49.49.49V116.7Z" transform="translate(-203.313 -109.897)" fill="#b48255"/>
    <path id="Path_703" data-name="Path 703" d="M313.747,33.747h-3.506a.7.7,0,1,1,0-1.405h3.506a.7.7,0,1,1,0,1.405Z" transform="translate(-279.481 -30.457)" fill="#3c5a73"/>
    <path id="Path_704" data-name="Path 704" d="M346.947,8.64h0a.332.332,0,0,1,.332-.332h.757a2.615,2.615,0,0,0-5.05,1.2h5.2a2.614,2.614,0,0,0,0-.537h-.909A.332.332,0,0,1,346.947,8.64Z" transform="translate(-310.964 -6.22)" fill="#1c9585"/>
    <path id="Path_705" data-name="Path 705" d="M259.449,120.077l4.525.158a1.111,1.111,0,0,0,.942-.463l3.062-4.4a1.111,1.111,0,0,0-1.806-1.294l-2.8,3.914-3.84-.135a1.111,1.111,0,0,0-.078,2.221Z" transform="translate(-231.302 -106.991)" fill="#ba6746"/>
    <path id="Path_706" data-name="Path 706" d="M365.923,117.63l1.572-2.259a1.111,1.111,0,0,0-1.806-1.294l-1.634,2.281Z" transform="translate(-330.82 -106.991)" fill="#39ae96"/>
    <path id="Path_707" data-name="Path 707" d="M14.179,282.366a1.422,1.422,0,0,0,1.422-1.422v-11.37a1.422,1.422,0,0,0-2.845,0v11.37A1.423,1.423,0,0,0,14.179,282.366Z" transform="translate(0 -252.52)" fill="#343e6b"/>
    <path id="Path_708" data-name="Path 708" d="M73.085,282.366a1.422,1.422,0,0,0,1.422-1.422v-11.37a1.422,1.422,0,0,0-2.845,0v11.37A1.423,1.423,0,0,0,73.085,282.366Z" transform="translate(-55.472 -252.52)" fill="#414b82"/>
    <path id="Path_709" data-name="Path 709" d="M19.037,108.646H12.758v-9.54A1.844,1.844,0,0,1,14.6,97.262h2.591a1.844,1.844,0,0,1,1.844,1.844v9.54Z" transform="translate(-0.001 -91.592)" fill="#64afff"/>
    <g id="Group_351" data-name="Group 351" transform="translate(13.44 0)">
      <circle id="Ellipse_176" data-name="Ellipse 176" cx="2.456" cy="2.456" r="2.456" transform="translate(0 0)" fill="#ffb69e"/>
      <path id="Path_710" data-name="Path 710" d="M44.476,109.148l-3.661-3.3a1.267,1.267,0,0,1,1.7-1.883l3.2,2.888,3.545-.607a1.267,1.267,0,1,1,.427,2.5l-4.15.71A1.267,1.267,0,0,1,44.476,109.148Z" transform="translate(-39.468 -97.599)" fill="#ffb69e"/>
    </g>
    <path id="Path_711" data-name="Path 711" d="M45.033,106.238l-2.521-2.272a1.267,1.267,0,0,0-1.7,1.883l2.585,2.329Z" transform="translate(-26.029 -97.599)" fill="#78beff"/>
  </g>
</svg>
