<svg id="food-delivery_1_" data-name="food-delivery (1)" xmlns="http://www.w3.org/2000/svg" width="36.539" height="36.538" viewBox="0 0 36.539 36.538">
  <g id="Group_350" data-name="Group 350">
    <path id="Path_557" data-name="Path 557" d="M184.211,0A3.215,3.215,0,0,0,181,3.211V4.353l2.141,1.07h2.141l2.141-1.07V3.211A3.215,3.215,0,0,0,184.211,0Z" transform="translate(-168.083)" fill="#abaaaa"/>
    <path id="Path_558" data-name="Path 558" d="M229.211,4.353V3.211A3.215,3.215,0,0,0,226,0V5.424h1.07Z" transform="translate(-209.872)" fill="#8d8d8d"/>
    <path id="Path_559" data-name="Path 559" d="M0,438.07a5.473,5.473,0,0,0,5.352,4.282,5.553,5.553,0,0,0,5.424-4.282L8.45,437H1.486Z" transform="translate(0 -405.814)" fill="#ada8a8"/>
    <path id="Path_560" data-name="Path 560" d="M33.211,398.423a3.211,3.211,0,1,1,0-6.423,3.212,3.212,0,1,1,0,6.423Z" transform="translate(-27.859 -364.025)" fill="#727272"/>
    <path id="Path_561" data-name="Path 561" d="M38.635,182H32.141L30,184.141v6.423l2.141,1.07h6.494l3.211-1.07v-5.78l-1.07-.642Z" transform="translate(-27.859 -169.012)" fill="#6c6c6c"/>
    <path id="Path_562" data-name="Path 562" d="M30,152v4.282H40.776l1.07-.554-1.07-.516V152Z" transform="translate(-27.859 -141.153)" fill="#8b8b8b"/>
    <path id="Path_563" data-name="Path 563" d="M17.2,326.634H0v-1.07a7.555,7.555,0,0,1,7.565-7.493L9.349,317H19.34v7.85Z" transform="translate(0 -294.378)" fill="#abaaaa"/>
    <path id="Path_564" data-name="Path 564" d="M0,302H15.058v2.141H0Z" transform="translate(0 -280.448)" fill="#8d8d8d"/>
    <path id="Path_565" data-name="Path 565" d="M190.634,237.769v4.025l-1.07,1.263h-4.282v-8.564h-2.141A2.147,2.147,0,0,1,181,232.352V227h6.423v3.211a2.147,2.147,0,0,1,2.141,2.141v4.282Z" transform="translate(-168.083 -210.8)" fill="#575f64"/>
    <path id="Path_566" data-name="Path 566" d="M232.423,237.769v4.025l-1.07,1.263H227.07v-8.564H226V227h3.211v3.211a2.147,2.147,0,0,1,2.141,2.141v4.282Z" transform="translate(-209.872 -210.8)" fill="#ada8a8"/>
    <g id="Group_347" data-name="Group 347" transform="translate(12.917 10.847)">
      <path id="Path_567" data-name="Path 567" d="M187.423,156.282v-1.07a3.211,3.211,0,0,0-6.423,0v2.141a3.211,3.211,0,0,0,3.211,3.211h8.635a3.211,3.211,0,0,0,3.211-3.211v-1.07Z" transform="translate(-181 -152)" fill="#abaaaa"/>
      <path id="Path_568" data-name="Path 568" d="M237.846,157.352v-1.07h-8.635v-1.07A3.215,3.215,0,0,0,226,152v8.564h8.635A3.211,3.211,0,0,0,237.846,157.352Z" transform="translate(-222.789 -152)" fill="#8d8d8d"/>
    </g>
    <path id="Path_569" data-name="Path 569" d="M185.282,76h-2.141L181,77.07v1.07a3.212,3.212,0,1,0,6.423,0V77.07Z" transform="translate(-168.083 -70.576)" fill="#c5c2c2"/>
    <path id="Path_570" data-name="Path 570" d="M229.211,78.141V77.07L227.07,76H226v5.424A3.277,3.277,0,0,0,229.211,78.141Z" transform="translate(-209.872 -70.576)" fill="#8d8d8d"/>
    <path id="Path_571" data-name="Path 571" d="M184.211,61H181v2.141h8.564V61Z" transform="translate(-168.083 -56.647)" fill="#ada8a8"/>
    <path id="Path_572" data-name="Path 572" d="M226,61h5.352v2.141H226Z" transform="translate(-209.872 -56.647)" fill="#8d8d8d"/>
    <path id="Path_573" data-name="Path 573" d="M310.444,204.733c-.118-.833-.352-2.474-.82-5.743L305.353,197v8.564a3.294,3.294,0,0,1-3.283,3.211H301V215.2h12.917l2.141-1.07v-2.141A7.535,7.535,0,0,0,310.444,204.733Z" transform="translate(-279.519 -182.941)" fill="#8d8d8d"/>
    <g id="Group_348" data-name="Group 348" transform="translate(25.834 10.847)">
      <path id="Path_574" data-name="Path 574" d="M368.423,158.423h-3.211a3.211,3.211,0,1,1,0-6.423h3.211Z" transform="translate(-362 -152)" fill="#abaaaa"/>
    </g>
    <path id="Path_575" data-name="Path 575" d="M367.674,362.456l-.311,1.189-1.809-.889a5.354,5.354,0,1,0,2.12-.3Z" transform="translate(-336.166 -336.59)" fill="#8d8d8d"/>
    <g id="Group_349" data-name="Group 349" transform="translate(27.975 27.975)">
      <path id="Path_576" data-name="Path 576" d="M395.211,392a3.211,3.211,0,1,0,3.211,3.211A3.215,3.215,0,0,0,395.211,392Z" transform="translate(-392 -392)" fill="#727272"/>
    </g>
    <path id="Path_577" data-name="Path 577" d="M414.655,367.2l-.738-5.168c-.109-.007-.212-.033-.322-.033a5.291,5.291,0,0,0-1.8.333l.739,5.171Z" transform="translate(-382.408 -336.166)" fill="#898989"/>
  </g>
</svg>
