<svg id="food-delivery" xmlns="http://www.w3.org/2000/svg" width="36.994" height="36.994" viewBox="0 0 36.994 36.994">
  <path id="Path_536" data-name="Path 536" d="M184.251,0A3.255,3.255,0,0,0,181,3.251V4.407l2.168,1.084h2.168L187.5,4.407V3.251A3.255,3.255,0,0,0,184.251,0Z" transform="translate(-167.922)" fill="#ff6a4d"/>
  <path id="Path_537" data-name="Path 537" d="M229.251,4.407V3.251A3.255,3.255,0,0,0,226,0V5.491h1.084Z" transform="translate(-209.671)" fill="#e64d2e"/>
  <path id="Path_538" data-name="Path 538" d="M0,438.084a5.541,5.541,0,0,0,5.419,4.335,5.623,5.623,0,0,0,5.491-4.335L8.556,437H1.5Z" transform="translate(0 -405.425)" fill="#474f54"/>
  <path id="Path_539" data-name="Path 539" d="M33.251,398.5a3.251,3.251,0,0,1,0-6.5,3.252,3.252,0,1,1,0,6.5Z" transform="translate(-27.832 -363.677)" fill="#f2f9ff"/>
  <path id="Path_540" data-name="Path 540" d="M38.743,182H32.168L30,184.168v6.5l2.168,1.084h6.575l3.251-1.084v-5.853l-1.084-.65Z" transform="translate(-27.832 -168.85)" fill="#ff9100"/>
  <path id="Path_541" data-name="Path 541" d="M30,152v4.335H40.91l1.084-.561-1.084-.523V152Z" transform="translate(-27.832 -141.018)" fill="#fabe2c"/>
  <path id="Path_542" data-name="Path 542" d="M17.413,326.754H0V325.67a7.649,7.649,0,0,1,7.659-7.587L9.465,317H19.581v7.948Z" transform="translate(0 -294.096)" fill="#ff6a4d"/>
  <path id="Path_543" data-name="Path 543" d="M0,302H15.245v2.168H0Z" transform="translate(0 -280.18)" fill="#32393f"/>
  <path id="Path_544" data-name="Path 544" d="M190.754,237.9v4.075l-1.084,1.279h-4.335v-8.67h-2.168A2.174,2.174,0,0,1,181,232.419V227h6.5v3.251a2.174,2.174,0,0,1,2.168,2.168v4.335Z" transform="translate(-167.922 -210.599)" fill="#575f64"/>
  <path id="Path_545" data-name="Path 545" d="M232.5,237.9v4.075l-1.084,1.279h-4.335v-8.67H226V227h3.251v3.251a2.174,2.174,0,0,1,2.168,2.168v4.335Z" transform="translate(-209.671 -210.599)" fill="#474f54"/>
  <g id="Group_344" data-name="Group 344" transform="translate(13.078 10.982)">
    <path id="Path_546" data-name="Path 546" d="M187.5,156.335v-1.084a3.251,3.251,0,0,0-6.5,0v2.168a3.251,3.251,0,0,0,3.251,3.251h8.743a3.251,3.251,0,0,0,3.251-3.251v-1.084Z" transform="translate(-181 -152)" fill="#ff6a4d"/>
    <path id="Path_547" data-name="Path 547" d="M237.994,157.419v-1.084h-8.743v-1.084A3.255,3.255,0,0,0,226,152v8.67h8.743A3.251,3.251,0,0,0,237.994,157.419Z" transform="translate(-222.749 -152)" fill="#e64d2e"/>
  </g>
  <path id="Path_548" data-name="Path 548" d="M185.335,76h-2.168L181,77.084v1.084a3.252,3.252,0,1,0,6.5,0V77.084Z" transform="translate(-167.922 -70.509)" fill="#ffe1ba"/>
  <path id="Path_549" data-name="Path 549" d="M229.251,78.168V77.084L227.084,76H226v5.491A3.318,3.318,0,0,0,229.251,78.168Z" transform="translate(-209.671 -70.509)" fill="#ffbfab"/>
  <path id="Path_550" data-name="Path 550" d="M184.251,61H181v2.168h8.67V61Z" transform="translate(-167.922 -56.593)" fill="#474f54"/>
  <path id="Path_551" data-name="Path 551" d="M226,61h5.419v2.168H226Z" transform="translate(-209.671 -56.593)" fill="#32393f"/>
  <path id="Path_552" data-name="Path 552" d="M310.562,204.829c-.12-.844-.357-2.505-.83-5.815L305.407,197v8.67a3.335,3.335,0,0,1-3.324,3.251H301v6.5h13.078l2.168-1.084v-2.168A7.628,7.628,0,0,0,310.562,204.829Z" transform="translate(-279.252 -182.766)" fill="#e64d2e"/>
  <g id="Group_345" data-name="Group 345" transform="translate(26.156 10.982)">
    <path id="Path_553" data-name="Path 553" d="M368.5,158.5h-3.251a3.251,3.251,0,0,1,0-6.5H368.5Z" transform="translate(-362 -152)" fill="#ff6a4d"/>
  </g>
  <path id="Path_554" data-name="Path 554" d="M367.745,362.456l-.315,1.2-1.832-.9a5.421,5.421,0,1,0,2.147-.3Z" transform="translate(-335.844 -336.267)" fill="#32393f"/>
  <g id="Group_346" data-name="Group 346" transform="translate(28.323 28.323)">
    <path id="Path_555" data-name="Path 555" d="M395.251,392a3.251,3.251,0,1,0,3.251,3.251A3.255,3.255,0,0,0,395.251,392Z" transform="translate(-392 -392)" fill="#dfe7f4"/>
  </g>
  <path id="Path_556" data-name="Path 556" d="M414.69,367.266l-.747-5.233c-.11-.007-.214-.033-.326-.033a5.358,5.358,0,0,0-1.821.337l.748,5.235Z" transform="translate(-382.042 -335.844)" fill="#c7cfe1"/>
</svg>
