<svg xmlns="http://www.w3.org/2000/svg" width="377.172" height="378.301" viewBox="0 0 377.172 378.301">
  <g id="undraw_Access_account_re_8spm" transform="translate(0 0)">
    <path id="Path_1" data-name="Path 1" d="M263.847,683.07l-3.322-13.1a170.16,170.16,0,0,0-18.049-6.475l-.419,6.089-1.7-6.708c-7.606-2.174-12.781-3.131-12.781-3.131s6.988,26.579,21.65,46.9l17.082,3-13.271,1.914a68.839,68.839,0,0,0,5.934,6.29c21.326,19.8,45.079,28.878,53.054,20.285s-2.848-31.6-24.174-51.4c-6.611-6.137-14.916-11.061-23.23-14.938Z" transform="translate(-227.576 -364.384)" fill="#f2f2f2"/>
    <path id="Path_2" data-name="Path 2" d="M337.176,639.966l3.928-12.932A170.1,170.1,0,0,0,329,612.161l-3.506,5,2.011-6.621c-5.388-5.791-9.323-9.284-9.323-9.284s-7.755,26.365-5.709,51.338l13.072,11.4L313.2,658.766a68.849,68.849,0,0,0,1.83,8.453c8.024,27.969,23.663,48.022,34.931,44.789s13.9-28.527,5.874-56.5c-2.487-8.671-7.052-17.179-12.165-24.795Z" transform="translate(-269.315 -335.511)" fill="#f2f2f2"/>
    <path id="Path_22" data-name="Path 22" d="M564.012,166.082H561.94V109.317a32.855,32.855,0,0,0-32.855-32.855H408.817a32.855,32.855,0,0,0-32.855,32.855v311.42a32.855,32.855,0,0,0,32.855,32.855H529.085a32.855,32.855,0,0,0,32.855-32.855V206.488h2.072Z" transform="translate(-300.823 -76.461)" fill="#e6e6e6"/>
    <path id="Path_23" data-name="Path 23" d="M539.248,93.335h-15.7a11.657,11.657,0,0,1-10.794,16.059h-68.9a11.657,11.657,0,0,1-10.793-16.059H418.4a24.536,24.536,0,0,0-24.536,24.536V428.839A24.536,24.536,0,0,0,418.4,453.375H539.248a24.536,24.536,0,0,0,24.536-24.536h0V117.87a24.536,24.536,0,0,0-24.535-24.535Z" transform="translate(-309.66 -84.79)" fill="#fff"/>
    <path id="Path_6" data-name="Path 6" d="M519.168,325.893a12.375,12.375,0,0,1,6.195-10.723,12.381,12.381,0,1,0,0,21.444A12.373,12.373,0,0,1,519.168,325.893Z" transform="translate(-365.403 -193.474)" fill="#ccc"/>
    <path id="Path_7" data-name="Path 7" d="M549.9,325.893a12.375,12.375,0,0,1,6.2-10.723,12.381,12.381,0,1,0,0,21.444A12.373,12.373,0,0,1,549.9,325.893Z" transform="translate(-380.576 -193.474)" fill="#ccc"/>
    <circle id="Ellipse_1" data-name="Ellipse 1" cx="12.381" cy="12.381" r="12.381" transform="translate(172.159 120.037)" fill="#fa4252"/>
    <path id="Path_8" data-name="Path 8" d="M560,338.938H487.846a2.594,2.594,0,0,1-2.591-2.591V264.188a2.594,2.594,0,0,1,2.591-2.591H560a2.594,2.594,0,0,1,2.591,2.591v72.158A2.594,2.594,0,0,1,560,338.938Zm-72.158-76.3a1.556,1.556,0,0,0-1.555,1.555v72.158a1.556,1.556,0,0,0,1.555,1.555H560a1.556,1.556,0,0,0,1.555-1.555V264.189A1.556,1.556,0,0,0,560,262.634Z" transform="translate(-354.773 -167.849)" fill="#ccc"/>
    <rect id="Rectangle_1" data-name="Rectangle 1" width="110.669" height="1.037" transform="translate(110.674 226.401)" fill="#ccc"/>
    <circle id="Ellipse_2" data-name="Ellipse 2" cx="3.495" cy="3.495" r="3.495" transform="translate(110.674 212.94)" fill="#fa4252"/>
    <rect id="Rectangle_2" data-name="Rectangle 2" width="110.669" height="1.037" transform="translate(110.674 261.349)" fill="#ccc"/>
    <circle id="Ellipse_3" data-name="Ellipse 3" cx="3.495" cy="3.495" r="3.495" transform="translate(110.674 247.888)" fill="#fa4252"/>
    <path id="Path_546" data-name="Path 546" d="M624.375,654.78H589.4a2.281,2.281,0,0,1-2.279-2.279V640.243a2.281,2.281,0,0,1,2.279-2.279h34.975a2.281,2.281,0,0,1,2.279,2.279V652.5a2.281,2.281,0,0,1-2.279,2.279Z" transform="translate(-405.057 -353.633)" fill="#fa4252"/>
    <circle id="Ellipse_7" data-name="Ellipse 7" cx="3.495" cy="3.495" r="3.495" transform="translate(122.075 212.94)" fill="#fa4252"/>
    <circle id="Ellipse_8" data-name="Ellipse 8" cx="3.495" cy="3.495" r="3.495" transform="translate(133.475 212.94)" fill="#fa4252"/>
    <circle id="Ellipse_9" data-name="Ellipse 9" cx="3.495" cy="3.495" r="3.495" transform="translate(122.075 247.888)" fill="#fa4252"/>
    <circle id="Ellipse_10" data-name="Ellipse 10" cx="3.495" cy="3.495" r="3.495" transform="translate(133.475 247.888)" fill="#fa4252"/>
    <path id="Path_88" data-name="Path 88" d="M613.853,822.336H250.283c-.778,0-1.409-.276-1.409-.617s.63-.617,1.409-.617h363.57c.778,0,1.409.276,1.409.617S614.63,822.336,613.853,822.336Z" transform="translate(-238.089 -444.035)" fill="#3f3d56"/>
    <path id="Path_547" data-name="Path 547" d="M785.132,550.976a5.093,5.093,0,0,1,.715.4l22.712-9.694.811-5.983,9.075-.056-.536,13.722-29.977,7.928a5.416,5.416,0,0,1-.227.612,5.183,5.183,0,1,1-2.572-6.928Z" transform="translate(-499.194 -303.125)" fill="#ffb8b8"/>
    <path id="Path_548" data-name="Path 548" d="M628.049,711.678h-6.208l-2.953-23.945h9.162Z" transform="translate(-305.499 -339.482)" fill="#ffb8b8"/>
    <path id="Path_549" data-name="Path 549" d="M608.614,731.518h11.973v7.538H601.076A7.538,7.538,0,0,1,608.614,731.518Z" transform="translate(-296.706 -361.096)" fill="#2f2e41"/>
    <path id="Path_550" data-name="Path 550" d="M673.483,708.327l-6.178.609-5.287-23.54,9.118-.9Z" transform="translate(-326.789 -337.885)" fill="#ffb8b8"/>
    <path id="Path_551" data-name="Path 551" d="M7.538,0H19.511V7.538H0A7.538,7.538,0,0,1,7.538,0Z" transform="translate(328.425 370.458) rotate(-5.625)" fill="#2f2e41"/>
    <circle id="Ellipse_160" data-name="Ellipse 160" cx="12.437" cy="12.437" r="12.437" transform="translate(311.842 182.302)" fill="#ffb8b8"/>
    <path id="Path_552" data-name="Path 552" d="M833.753,716.6a2.264,2.264,0,0,1-2.236-1.872c-3.213-17.837-13.717-76.161-13.968-77.777a.7.7,0,0,1-.008-.112v-4.349a.754.754,0,0,1,.141-.442l1.388-1.943a.749.749,0,0,1,.579-.316c7.911-.371,33.818-1.458,35.07.106h0c1.257,1.572.813,6.333.711,7.272l0,.1L867.074,711.7a2.285,2.285,0,0,1-1.881,2.6l-7.27,1.2a2.289,2.289,0,0,1-2.545-1.566c-2.249-7.185-9.788-31.354-12.4-40.706a.253.253,0,0,0-.5.07c.131,8.915.446,31.66.555,39.516l.012.846a2.288,2.288,0,0,1-2.072,2.3l-7.01.637A2.088,2.088,0,0,1,833.753,716.6Z" transform="translate(-518.798 -349.243)" fill="#2f2e41"/>
    <path id="Path_99" data-name="Path 99" d="M835.589,494.126a10.4,10.4,0,0,0-4.215,6.074,57.577,57.577,0,0,0-2.473,13.753l-.788,13.976-9.75,37.051c8.451,7.15,13.326,5.525,24.7-.324s12.676,1.95,12.676,1.95l2.275-31.526,3.25-34.45a15.28,15.28,0,0,0-2.462-2.367,25.146,25.146,0,0,0-21.492-4.555Z" transform="translate(-519.204 -282.06)" fill="#fa4252"/>
    <path id="Path_553" data-name="Path 553" d="M839.155,563.533a5.329,5.329,0,0,1,.76.356l22.457-11.24.373-6.089,9.263-.639.5,13.881-30.011,9.924a5.315,5.315,0,1,1-3.339-6.194Z" transform="translate(-525.936 -308.198)" fill="#ffb8b8"/>
    <path id="Path_101" data-name="Path 101" d="M891.187,507.757c5.525,1.95,6.5,23.077,6.5,23.077-6.5-3.575-14.3,2.275-14.3,2.275s-1.625-5.525-3.575-12.676a12.421,12.421,0,0,1,2.6-11.7S885.661,505.806,891.187,507.757Z" transform="translate(-549.288 -289.029)" fill="#fa4252"/>
    <path id="Path_102" data-name="Path 102" d="M867,447.4c-1.55-1.24-3.664,1.014-3.664,1.014l-1.24-11.157s-7.748.928-12.707-.31-5.734,4.494-5.734,4.494a39.788,39.788,0,0,1-.155-6.973c.31-2.789,4.339-5.579,11.467-7.438s10.847,6.2,10.847,6.2C870.775,435.708,868.55,448.641,867,447.4Z" transform="translate(-531.571 -249.374)" fill="#2f2e41"/>
  </g>
</svg>
