<svg xmlns="http://www.w3.org/2000/svg" width="121.163" height="133.392" viewBox="0 0 121.163 133.392">
  <g id="shopping-cart" transform="translate(-23.47)">
    <path id="Path_255" data-name="Path 255" d="M348.1,23.418h-17.93a3.9,3.9,0,0,1-3.9-3.9V12.868a12.868,12.868,0,0,1,25.736,0v6.647A3.9,3.9,0,0,1,348.1,23.418Zm-14.027-5.2H344.2V12.868a5.062,5.062,0,0,0-10.124,0v5.347Z" transform="translate(-223.912 0)" fill="#29376d"/>
    <path id="Path_256" data-name="Path 256" d="M329.324,108.068H288.995a3.9,3.9,0,0,1-3.9-3.9V88.553c0-.031.005-.063.005-.094s0-.065,0-.1l1.3-24.082a3.9,3.9,0,0,1,3.9-3.713h36.785a3.9,3.9,0,0,1,3.9,3.695l2.248,39.694A3.846,3.846,0,0,1,329.324,108.068Z" transform="translate(-193.461 -44.788)" fill="#ff645a"/>
    <path id="Path_257" data-name="Path 257" d="M353.5,108.068H317.781v-47.5h33.473a3.9,3.9,0,0,1,3.9,3.695l2.248,39.694A3.846,3.846,0,0,1,353.5,108.068Z" transform="translate(-217.634 -44.788)" fill="#ff3053"/>
    <path id="Path_258" data-name="Path 258" d="M180.839,106.968v28.623a3.9,3.9,0,0,1-3.9,3.9H136.5a3.9,3.9,0,0,1-3.864-4.452l1.829-28.623a3.9,3.9,0,0,1,3.864-3.354h38.612A3.9,3.9,0,0,1,180.839,106.968Z" transform="translate(-80.693 -76.213)" fill="#fabe2c"/>
    <circle id="Ellipse_7" data-name="Ellipse 7" cx="11.709" cy="11.709" r="11.709" transform="translate(108.685 109.974)" fill="#29376d"/>
    <circle id="Ellipse_8" data-name="Ellipse 8" cx="11.709" cy="11.709" r="11.709" transform="translate(67.117 109.974)" fill="#47568c"/>
    <path id="Path_259" data-name="Path 259" d="M275.215,162.334a3.9,3.9,0,0,1-3.9,4.1h-38.5a3.9,3.9,0,0,1-3.9-4.1l.781-15.612a3.9,3.9,0,0,1,3.9-3.708h36.939a3.9,3.9,0,0,1,3.9,3.708Z" transform="translate(-151.92 -105.754)" fill="#4793ff"/>
    <path id="Path_260" data-name="Path 260" d="M340.929,162.334a3.9,3.9,0,0,1-3.9,4.1h-19.25V143.014H336.25a3.9,3.9,0,0,1,3.9,3.708Z" transform="translate(-217.634 -105.754)" fill="#4756ff"/>
    <path id="Path_261" data-name="Path 261" d="M228.488,207.825l-6.817,23.588a16.907,16.907,0,0,1-16.5,13.015H148.134c-1.907-7.77-7.231-26.236-11.1-41.49H224.71a3.9,3.9,0,0,1,3.778,4.887Z" transform="translate(-83.981 -150.066)" fill="#dfe7f4"/>
    <path id="Path_262" data-name="Path 262" d="M362.141,207.825l-6.817,23.588a16.907,16.907,0,0,1-16.5,13.015h-21.04v-41.49h40.581a3.9,3.9,0,0,1,3.778,4.887Z" transform="translate(-217.634 -150.066)" fill="#b6c0d1"/>
    <circle id="Ellipse_9" data-name="Ellipse 9" cx="3.908" cy="3.908" r="3.908" transform="translate(74.918 117.775)" fill="#f0f7ff"/>
    <circle id="Ellipse_10" data-name="Ellipse 10" cx="3.908" cy="3.908" r="3.908" transform="translate(116.486 117.775)" fill="#dfe7f4"/>
    <path id="Path_263" data-name="Path 263" d="M134.225,175.129a3.906,3.906,0,0,1-3.905,3.9H74.391a15.051,15.051,0,0,1-14.7-11.628c-1.344-4.731-.844-2.965-15.939-63.286A3.874,3.874,0,0,0,40,101.2H27.373a3.9,3.9,0,1,1,0-7.806H40A11.671,11.671,0,0,1,51.318,102.2s1.873,7.378,4.343,17.133c3.864,15.254,9.186,36.323,11.093,44.092.229.927.409,1.67.531,2.186a7.276,7.276,0,0,0,7.1,5.62h55.928a3.906,3.906,0,0,1,3.906,3.9Z" transform="translate(0 -69.059)" fill="#47568c"/>
    <path id="Path_264" data-name="Path 264" d="M351.858,396.053a3.906,3.906,0,0,1-3.905,3.9H317.78V392.15h30.172a3.906,3.906,0,0,1,3.906,3.9Z" transform="translate(-217.633 -289.982)" fill="#29376d"/>
  </g>
</svg>
