<svg xmlns="http://www.w3.org/2000/svg" xmlns:xlink="http://www.w3.org/1999/xlink" width="885.396" height="514.124" viewBox="0 0 885.396 514.124">
  <defs>
    <linearGradient id="linear-gradient" x1="0.5" y1="1" x2="0.5" y2="-0.001" gradientUnits="objectBoundingBox">
      <stop offset="0" stop-color="gray" stop-opacity="0.251"/>
      <stop offset="0.54" stop-color="gray" stop-opacity="0.122"/>
      <stop offset="1" stop-color="gray" stop-opacity="0.102"/>
    </linearGradient>
  </defs>
  <g id="undraw_discount_d4bd" transform="translate(0 -0.043)">
    <g id="Group_130" data-name="Group 130" transform="translate(568.62 0.043)" opacity="0.1">
      <ellipse id="Ellipse_22" data-name="Ellipse 22" cx="17.111" cy="22.394" rx="17.111" ry="22.394" transform="translate(65.24 461.736)" fill="#3f3d56"/>
      <path id="Path_296" data-name="Path 296" d="M877.443,608.992a26.98,26.98,0,0,0,3.6-13.688c0-12.394-7.661-22.394-17.112-22.394s-17.1,10.023-17.1,22.394a26.979,26.979,0,0,0,3.571,13.688,28,28,0,0,0,0,27.367,28.017,28.017,0,0,0,0,27.375,26.979,26.979,0,0,0-3.571,13.688c0,12.394,7.661,22.394,17.1,22.394s17.112-10.023,17.112-22.394a26.982,26.982,0,0,0-3.571-13.687,28.018,28.018,0,0,0,0-27.375,28,28,0,0,0,0-27.367Z" transform="translate(-781.551 -220.667)" fill="#3f3d56"/>
      <ellipse id="Ellipse_23" data-name="Ellipse 23" cx="17.111" cy="22.394" rx="17.111" ry="22.394" transform="translate(65.24 324.875)" fill="#3f3d56"/>
      <ellipse id="Ellipse_24" data-name="Ellipse 24" cx="17.111" cy="22.394" rx="17.111" ry="22.394" transform="translate(65.24 297.5)" fill="#3f3d56"/>
      <path id="Path_297" data-name="Path 297" d="M908.956,250.758a82.493,82.493,0,0,0,6.367-9.381L870.4,233.995l48.623.364a82.109,82.109,0,0,0,1.549-64.929l-65.239,33.82,60.173-44.2a81.955,81.955,0,1,0-135.366,91.708,82.137,82.137,0,0,0-9.342,14.943l58.353,30.319L766.928,275.1A81.957,81.957,0,0,0,780.1,352.056a81.948,81.948,0,1,0,128.82,0,81.947,81.947,0,0,0,0-101.329Z" transform="translate(-762.558 -118.183)" fill="#fa4252"/>
      <path id="Path_298" data-name="Path 298" d="M762.61,354.388a81.575,81.575,0,0,0,17.538,50.661,81.947,81.947,0,1,0,128.82,0C919.951,391.106,762.61,345.186,762.61,354.388Z" transform="translate(-762.57 -171.146)" opacity="0.1"/>
    </g>
    <g id="Group_131" data-name="Group 131" transform="translate(121.383 174.28)" opacity="0.1">
      <ellipse id="Ellipse_25" data-name="Ellipse 25" cx="10.411" cy="13.633" rx="10.411" ry="13.633" transform="translate(39.251 281.069)" fill="#3f3d56"/>
      <path id="Path_299" data-name="Path 299" d="M254.573,641.879a16.446,16.446,0,0,0,2.177-8.335c0-7.529-4.648-13.633-10.419-13.633s-10.411,6.1-10.411,13.633a16.445,16.445,0,0,0,2.169,8.335,17.088,17.088,0,0,0,0,16.662,17.089,17.089,0,0,0,0,16.662,16.391,16.391,0,0,0-2.169,8.327c0,7.537,4.648,13.641,10.411,13.641s10.419-6.1,10.419-13.641a16.39,16.39,0,0,0-2.177-8.327,17.042,17.042,0,0,0,0-16.662A17.041,17.041,0,0,0,254.573,641.879Z" transform="translate(-196.63 -405.497)" fill="#3f3d56"/>
      <ellipse id="Ellipse_26" data-name="Ellipse 26" cx="10.411" cy="13.633" rx="10.411" ry="13.633" transform="translate(39.251 197.751)" fill="#3f3d56"/>
      <ellipse id="Ellipse_27" data-name="Ellipse 27" cx="10.411" cy="13.633" rx="10.411" ry="13.633" transform="translate(39.251 181.089)" fill="#3f3d56"/>
      <path id="Path_300" data-name="Path 300" d="M195.89,423.8a49.664,49.664,0,0,1-3.873-5.709l27.367-4.493-29.6.225a50.018,50.018,0,0,1-.953-39.506l39.684,20.613L191.9,367.969A49.886,49.886,0,1,1,274.3,423.8a49.837,49.837,0,0,1,5.686,9.086l-35.524,18.467,37.879-12.712a49.917,49.917,0,0,1-8.041,46.849,49.886,49.886,0,1,1-78.423,0,49.9,49.9,0,0,1,0-61.691Z" transform="translate(-185.199 -343.114)" fill="#fa4252"/>
      <path id="Path_301" data-name="Path 301" d="M284.971,486.876A49.693,49.693,0,0,1,274.3,517.722a49.886,49.886,0,1,1-78.423,0C189.189,509.271,284.971,481.276,284.971,486.876Z" transform="translate(-185.199 -375.349)" opacity="0.1"/>
    </g>
    <g id="Group_132" data-name="Group 132" transform="translate(339.3 81.661)" opacity="0.1">
      <ellipse id="Ellipse_28" data-name="Ellipse 28" cx="13.936" cy="18.242" rx="13.936" ry="18.242" transform="translate(52.521 376.338)" fill="#3f3d56"/>
      <path id="Path_302" data-name="Path 302" d="M559.281,623.617a22.006,22.006,0,0,0,2.905-11.155c0-10.07-6.2-18.242-13.944-18.242S534.3,602.393,534.3,612.462a21.94,21.94,0,0,0,2.913,11.155,22.8,22.8,0,0,0,0,22.3,22.789,22.789,0,0,0,0,22.294,21.938,21.938,0,0,0-2.913,11.155c0,10.07,6.244,18.243,13.943,18.243s13.944-8.173,13.944-18.243a22,22,0,0,0-2.905-11.155,22.835,22.835,0,0,0,0-22.294A22.851,22.851,0,0,0,559.281,623.617Z" transform="translate(-481.794 -307.088)" fill="#3f3d56"/>
      <ellipse id="Ellipse_29" data-name="Ellipse 29" cx="13.936" cy="18.242" rx="13.936" ry="18.242" transform="translate(52.521 264.839)" fill="#3f3d56"/>
      <ellipse id="Ellipse_30" data-name="Ellipse 30" cx="13.936" cy="18.242" rx="13.936" ry="18.242" transform="translate(52.521 242.537)" fill="#3f3d56"/>
      <path id="Path_303" data-name="Path 303" d="M480.835,331.726a66.55,66.55,0,0,1-5.19-7.638l36.617-6.011-39.6.294a66.889,66.889,0,0,1-1.278-52.9l53.139,27.561-49.01-36.02A66.765,66.765,0,1,1,585.75,331.726a66.866,66.866,0,0,1,7.607,12.177L545.826,368.6l50.684-17.042a66.789,66.789,0,0,1-10.76,62.69,66.757,66.757,0,1,1-104.946,0,66.78,66.78,0,0,1,0-82.552Z" transform="translate(-466.518 -223.547)" fill="#fa4252"/>
      <path id="Path_304" data-name="Path 304" d="M600.034,416.2a66.47,66.47,0,0,1-14.284,41.272,66.757,66.757,0,1,1-104.946,0C471.857,446.119,600.034,408.7,600.034,416.2Z" transform="translate(-466.518 -266.745)" opacity="0.1"/>
    </g>
    <path id="Path_305" data-name="Path 305" d="M924.094,748.169c0,5.322-38.9,10.187-103.219,13.943-11.7.674-24.23,1.317-37.523,1.921q-17.228.775-36.113,1.464-18.3.65-38,1.208c-41.473,1.185-87.323,2.037-136.032,2.463q-17.731.163-35.935.248-18.963.085-38.359.078c-234.82,0-425.168-9.536-425.168-21.3s190.349-21.3,425.168-21.3c101.1,0,193.935,1.774,266.9,4.718l7.979.325h.046C865.765,735.829,924.094,741.693,924.094,748.169Z" transform="translate(-38.698 -255.327)" fill="#3f3d56"/>
    <path id="Path_306" data-name="Path 306" d="M924.094,748.169c0,5.322-38.9,10.187-103.219,13.943-11.7.674-24.23,1.317-37.523,1.921q-17.228.775-36.113,1.464-18.3.65-38,1.208c-41.473,1.185-87.323,2.037-136.032,2.463q-17.731.163-35.935.248-18.963.085-38.359.078c-234.82,0-425.168-9.536-425.168-21.3s190.349-21.3,425.168-21.3c101.1,0,193.935,1.774,266.9,4.718l7.979.325h.046C865.765,735.829,924.094,741.693,924.094,748.169Z" transform="translate(-38.698 -255.327)" opacity="0.15"/>
    <path id="Path_307" data-name="Path 307" d="M878.844,744.329c0,4.447-38.9,8.521-103.219,11.62-11.689.565-24.23,1.1-37.515,1.6q-17.235.651-36.113,1.224-18.3.542-38,1.015c-41.481.992-87.331,1.7-136.04,2.06q-17.716.132-35.935.2-18.963.07-38.352.07c-234.82,0-425.176-7.971-425.176-17.817S218.856,726.49,453.676,726.49c101.089,0,193.927,1.479,266.9,3.943l7.979.271h.054C820.554,734.011,878.844,738.884,878.844,744.329Z" transform="translate(-28.5 -255.237)" fill="#3f3d56"/>
    <path id="Path_308" data-name="Path 308" d="M167.154,530.268,156.48,497.586l255.626-2.8,10.473,32.356Z" transform="translate(-57.343 -203.018)" fill="#3f3d56"/>
    <path id="Path_309" data-name="Path 309" d="M167.154,530.268,156.48,497.586l255.626-2.8,10.473,32.356Z" transform="translate(-57.343 -203.018)" opacity="0.15"/>
    <path id="Path_310" data-name="Path 310" d="M145.154,530.268,134.48,497.586l255.626-2.8,10.473,32.356Z" transform="translate(-52.385 -203.018)" fill="#3f3d56"/>
    <path id="Path_311" data-name="Path 311" d="M686.783,413.261q-39.645,0-62.489-31.473T601.45,305.534q0-45.083,22.092-76.1t62.326-30.985q42.667,0,64.294,32.681t21.635,75.65q0,42.659-22.387,74.581T686.783,413.261Zm.774-23.6q26.082,0,38.987-22.735T739.449,309.6q0-38.5-13.207-63.047T685.729,222q-51.9,0-51.9,82.451,0,85.216,53.713,85.209Zm8.707,226.028H658.036L908.3,202.656h37.507Zm221.4,4.237q-40.242,0-62.745-31.76t-22.6-76.262q0-44.781,21.937-75.8t62.481-30.985q42.364,0,63.844,32.681t21.489,75.642q0,42.38-22.24,74.441t-62.187,32.039Zm.449-24.207q25.958,0,38.778-22.348t12.82-57.09q0-37.182-12.975-62.365t-40.428-25.222q-52.2,0-52.2,82.451-.015,84.581,53.991,84.574Z" transform="translate(-157.629 -136.23)" fill="#3f3d56"/>
    <path id="Path_312" data-name="Path 312" d="M686.783,413.261q-39.645,0-62.489-31.473T601.45,305.534q0-45.083,22.092-76.1t62.326-30.985q42.667,0,64.294,32.681t21.635,75.65q0,42.659-22.387,74.581T686.783,413.261Zm.774-23.6q26.082,0,38.987-22.735T739.449,309.6q0-38.5-13.207-63.047T685.729,222q-51.9,0-51.9,82.451,0,85.216,53.713,85.209Zm8.707,226.028H658.036L908.3,202.656h37.507Zm221.4,4.237q-40.242,0-62.745-31.76t-22.6-76.262q0-44.781,21.937-75.8t62.481-30.985q42.364,0,63.844,32.681t21.489,75.642q0,42.38-22.24,74.441t-62.187,32.039Zm.449-24.207q25.958,0,38.778-22.348t12.82-57.09q0-37.182-12.975-62.365t-40.428-25.222q-52.2,0-52.2,82.451-.015,84.581,53.991,84.574Z" transform="translate(-157.629 -136.23)" fill="#3f3d56"/>
    <path id="Path_313" data-name="Path 313" d="M686.783,413.261q-39.645,0-62.489-31.473T601.45,305.534q0-45.083,22.092-76.1t62.326-30.985q42.667,0,64.294,32.681t21.635,75.65q0,42.659-22.387,74.581T686.783,413.261Zm.774-23.6q26.082,0,38.987-22.735T739.449,309.6q0-38.5-13.207-63.047T685.729,222q-51.9,0-51.9,82.451,0,85.216,53.713,85.209Zm8.707,226.028H658.036L908.3,202.656h37.507Zm221.4,4.237q-40.242,0-62.745-31.76t-22.6-76.262q0-44.781,21.937-75.8t62.481-30.985q42.364,0,63.844,32.681t21.489,75.642q0,42.38-22.24,74.441t-62.187,32.039Zm.449-24.207q25.958,0,38.778-22.348t12.82-57.09q0-37.182-12.975-62.365t-40.428-25.222q-52.2,0-52.2,82.451-.015,84.581,53.991,84.574Z" transform="translate(-157.629 -136.23)" opacity="0.15"/>
    <path id="Path_314" data-name="Path 314" d="M655.783,413.261q-39.645,0-62.489-31.473T570.45,305.534q0-45.083,22.093-76.1t62.326-30.985q42.667,0,64.294,32.681t21.635,75.65q0,42.659-22.387,74.581T655.783,413.261Zm.775-23.6q26.082,0,38.987-22.735T708.449,309.6q0-38.5-13.208-63.047T654.729,222q-51.9,0-51.9,82.451,0,85.216,53.713,85.209Zm8.707,226.028H627.037L877.3,202.656H914.81Zm221.4,4.237q-40.241,0-62.744-31.76t-22.6-76.262q0-44.781,21.937-75.8t62.481-30.985q42.364,0,63.844,32.681t21.488,75.642q0,42.38-22.24,74.441t-62.187,32.039Zm.45-24.207q25.957,0,38.778-22.348t12.82-57.09q0-37.182-12.975-62.365T885.3,428.692q-52.2,0-52.2,82.451,0,84.581,54.007,84.574Z" transform="translate(-150.642 -136.23)" fill="#3f3d56"/>
    <path id="Path_315" data-name="Path 315" d="M784.571,712.547c3.191-5.918-.434-13.168-4.6-18.452s-9.249-10.767-9.141-17.5c.155-9.66,10.411-15.369,18.591-20.5a90.683,90.683,0,0,0,16.717-13.432,24.55,24.55,0,0,0,5.136-6.879c1.7-3.78,1.642-8.079,1.549-12.216q-.535-20.7-2.045-41.334" transform="translate(-195.802 -222.727)" fill="none" stroke="#3f3d56" stroke-miterlimit="10" stroke-width="4"/>
    <path id="Path_316" data-name="Path 316" d="M833.753,577.079a15.051,15.051,0,0,0-7.522-12.347l-3.378,6.677.1-8.087a15.251,15.251,0,0,0-4.965-.6,15.074,15.074,0,1,0,15.764,14.354Z" transform="translate(-203.193 -218.325)" fill="#fa4252"/>
    <path id="Path_317" data-name="Path 317" d="M799.539,706.61a15.066,15.066,0,1,1,.728-12.138l-9.419,7.661,10.38-2.417A15.026,15.026,0,0,1,799.539,706.61Z" transform="translate(-195.858 -245.807)" fill="#fa4252"/>
    <path id="Path_318" data-name="Path 318" d="M793.618,666.415a15.074,15.074,0,0,1-15.764-14.354,14.905,14.905,0,0,1,1.3-6.871,15.1,15.1,0,0,1,9.652-8.358l-.085,6.2,3.416-6.754h0a15.075,15.075,0,1,1,1.41,30.117Z" transform="translate(-197.382 -234.901)" fill="#fa4252"/>
    <path id="Path_319" data-name="Path 319" d="M840.857,634.989a15.08,15.08,0,1,1,6.662-28.212l-2.665,7.3,5.484-5.26a15.027,15.027,0,0,1,4.888,10.4,14.716,14.716,0,0,1-.387,4.152A15.082,15.082,0,0,1,840.857,634.989Z" transform="translate(-208.027 -227.821)" fill="#fa4252"/>
    <path id="Path_320" data-name="Path 320" d="M831.726,583.5c-3.478.379-6.855,1.464-10.349,1.681s-7.328-.62-9.535-3.338c-1.193-1.457-1.782-3.308-2.789-4.9a10.685,10.685,0,0,0-3.8-3.571,15.074,15.074,0,1,0,28.181,10C832.865,583.4,832.3,583.44,831.726,583.5Z" transform="translate(-203.195 -220.728)" opacity="0.1"/>
    <path id="Path_321" data-name="Path 321" d="M840.86,637.5A15.09,15.09,0,0,1,826.521,616a11.293,11.293,0,0,1,3.029,3.037c1.077,1.619,1.728,3.493,2.99,4.981,2.324,2.765,6.36,3.664,9.992,3.5s7.15-1.2,10.775-1.549c.5-.047,1.015-.078,1.55-.093A15.083,15.083,0,0,1,840.86,637.5Z" transform="translate(-208.03 -230.335)" opacity="0.1"/>
    <path id="Path_322" data-name="Path 322" d="M793.618,669.015a15.074,15.074,0,0,1-15.764-14.354,14.907,14.907,0,0,1,1.3-6.871,12.131,12.131,0,0,1,3.184,3.1c1.17,1.65,1.906,3.555,3.277,5.081,2.541,2.827,6.817,3.827,10.667,3.734s7.328-.991,11.039-1.278a15.082,15.082,0,0,1-13.7,10.589Z" transform="translate(-197.382 -237.5)" opacity="0.1"/>
    <path id="Path_323" data-name="Path 323" d="M799.524,709.421a15.074,15.074,0,0,1-27.483-12.3,15.2,15.2,0,0,1,3.307,2.952c1.433,1.75,2.378,3.733,4.036,5.36,3.1,3.021,8.056,4.269,12.486,4.385a64.211,64.211,0,0,0,7.653-.4Z" transform="translate(-195.844 -248.618)" opacity="0.1"/>
    <path id="Path_324" data-name="Path 324" d="M1085.572,711.547c3.191-5.918-.434-13.169-4.6-18.452s-9.249-10.767-9.141-17.5c.155-9.66,10.411-15.369,18.591-20.5a90.657,90.657,0,0,0,16.716-13.432,24.534,24.534,0,0,0,5.136-6.879c1.7-3.78,1.643-8.079,1.549-12.216q-.535-20.7-2.045-41.334" transform="translate(-263.64 -222.501)" fill="none" stroke="#3f3d56" stroke-miterlimit="10" stroke-width="4"/>
    <path id="Path_325" data-name="Path 325" d="M1134.753,576.079a15.052,15.052,0,0,0-7.522-12.347l-3.377,6.677.1-8.087a15.248,15.248,0,0,0-4.966-.6,15.074,15.074,0,1,0,15.764,14.354Z" transform="translate(-271.03 -218.1)" fill="#fa4252"/>
    <path id="Path_326" data-name="Path 326" d="M1100.538,705.61a15.066,15.066,0,1,1,.728-12.138l-9.419,7.661,10.38-2.417A15.019,15.019,0,0,1,1100.538,705.61Z" transform="translate(-263.696 -245.582)" fill="#fa4252"/>
    <path id="Path_327" data-name="Path 327" d="M1094.618,665.416a15.074,15.074,0,0,1-15.763-14.354,14.9,14.9,0,0,1,1.3-6.871,15.1,15.1,0,0,1,9.652-8.358l-.085,6.2,3.416-6.755h.039a15.075,15.075,0,1,1,1.41,30.117Z" transform="translate(-265.22 -234.676)" fill="#fa4252"/>
    <path id="Path_328" data-name="Path 328" d="M1141.857,633.989a15.08,15.08,0,1,1-1.41-30.128,14.926,14.926,0,0,1,8.071,1.916l-2.665,7.3,5.485-5.26a15.028,15.028,0,0,1,4.887,10.4,14.72,14.72,0,0,1-.387,4.152A15.083,15.083,0,0,1,1141.857,633.989Z" transform="translate(-275.865 -227.596)" fill="#fa4252"/>
    <path id="Path_329" data-name="Path 329" d="M1132.726,582.5c-3.479.379-6.856,1.464-10.349,1.681s-7.328-.62-9.536-3.339c-1.193-1.456-1.782-3.308-2.789-4.9a10.676,10.676,0,0,0-3.8-3.571,15.074,15.074,0,1,0,28.181,10C1133.865,582.4,1133.3,582.44,1132.726,582.5Z" transform="translate(-271.033 -220.502)" opacity="0.1"/>
    <path id="Path_330" data-name="Path 330" d="M1141.86,636.5a15.09,15.09,0,0,1-14.338-21.5,11.284,11.284,0,0,1,3.029,3.037c1.076,1.619,1.727,3.493,2.99,4.981,2.324,2.765,6.359,3.664,9.993,3.5s7.149-1.2,10.775-1.549c.5-.046,1.015-.078,1.549-.093A15.082,15.082,0,0,1,1141.86,636.5Z" transform="translate(-275.868 -230.11)" opacity="0.1"/>
    <path id="Path_331" data-name="Path 331" d="M1094.618,668.015a15.074,15.074,0,0,1-15.763-14.354,14.9,14.9,0,0,1,1.3-6.871,12.132,12.132,0,0,1,3.184,3.1c1.169,1.65,1.905,3.555,3.277,5.082,2.541,2.827,6.817,3.826,10.667,3.734,3.734-.078,7.328-.991,11.039-1.278A15.083,15.083,0,0,1,1094.618,668.015Z" transform="translate(-265.22 -237.275)" opacity="0.1"/>
    <path id="Path_332" data-name="Path 332" d="M1100.524,708.421a15.074,15.074,0,0,1-27.483-12.3,15.194,15.194,0,0,1,3.308,2.952c1.433,1.75,2.378,3.734,4.035,5.36,3.1,3.021,8.056,4.268,12.488,4.385A64.262,64.262,0,0,0,1100.524,708.421Z" transform="translate(-263.681 -248.392)" opacity="0.1"/>
    <path id="Path_333" data-name="Path 333" d="M130.2,698.547c-3.191-5.918.434-13.169,4.6-18.451s9.249-10.768,9.141-17.5c-.155-9.659-10.411-15.369-18.591-20.5a90.68,90.68,0,0,1-16.716-13.432,24.542,24.542,0,0,1-5.136-6.878c-1.7-3.78-1.642-8.08-1.549-12.216q.535-20.7,2.045-41.334" transform="translate(-45.045 -219.572)" fill="none" stroke="#3f3d56" stroke-miterlimit="10" stroke-width="4"/>
    <path id="Path_334" data-name="Path 334" d="M84.475,563.079A15.05,15.05,0,0,1,92,550.732l3.377,6.677-.1-8.087a15.246,15.246,0,0,1,4.965-.6,15.074,15.074,0,1,1-15.764,14.354Z" transform="translate(-41.112 -215.17)" fill="#fa4252"/>
    <path id="Path_335" data-name="Path 335" d="M118.689,692.61a15.066,15.066,0,1,0-.728-12.138l9.419,7.661L117,685.716A15.027,15.027,0,0,0,118.689,692.61Z" transform="translate(-48.446 -242.651)" fill="#fa4252"/>
    <path id="Path_336" data-name="Path 336" d="M124.629,652.416a15.074,15.074,0,0,0,15.764-14.354,14.9,14.9,0,0,0-1.3-6.871,15.1,15.1,0,0,0-9.652-8.358l.085,6.2-3.416-6.755h0a15.075,15.075,0,0,0-1.41,30.117Z" transform="translate(-46.942 -231.746)" fill="#fa4252"/>
    <path id="Path_337" data-name="Path 337" d="M77.364,620.99a15.081,15.081,0,1,0-6.623-28.212l2.665,7.3-5.523-5.236a15.027,15.027,0,0,0-4.888,10.38,14.715,14.715,0,0,0,.387,4.152A15.082,15.082,0,0,0,77.364,620.99Z" transform="translate(-36.27 -224.666)" fill="#fa4252"/>
    <path id="Path_338" data-name="Path 338" d="M86.6,569.5c3.478.38,6.855,1.464,10.349,1.681s7.328-.619,9.536-3.339c1.193-1.456,1.782-3.308,2.789-4.9a10.685,10.685,0,0,1,3.8-3.571,15.074,15.074,0,1,1-28.181,10C85.463,569.4,86.029,569.44,86.6,569.5Z" transform="translate(-41.209 -217.572)" opacity="0.1"/>
    <path id="Path_339" data-name="Path 339" d="M77.477,623.5A15.089,15.089,0,0,0,91.816,602a11.3,11.3,0,0,0-3.029,3.036c-1.077,1.619-1.727,3.494-2.99,4.981-2.324,2.766-6.36,3.664-9.993,3.5s-7.15-1.2-10.775-1.549c-.5-.047-1.015-.078-1.549-.093A15.082,15.082,0,0,0,77.477,623.5Z" transform="translate(-36.384 -227.18)" opacity="0.1"/>
    <path id="Path_340" data-name="Path 340" d="M124.8,655.015a15.074,15.074,0,0,0,15.764-14.354,14.9,14.9,0,0,0-1.3-6.871,12.133,12.133,0,0,0-3.184,3.1c-1.17,1.65-1.906,3.555-3.277,5.082-2.541,2.827-6.817,3.827-10.667,3.733-3.734-.077-7.328-.991-11.038-1.278A15.082,15.082,0,0,0,124.8,655.015Z" transform="translate(-47.116 -234.345)" opacity="0.1"/>
    <path id="Path_341" data-name="Path 341" d="M119.18,695.421a15.074,15.074,0,0,0,27.484-12.3,15.187,15.187,0,0,0-3.308,2.951c-1.433,1.751-2.378,3.734-4.036,5.361-3.1,3.021-8.056,4.268-12.487,4.384A64.172,64.172,0,0,1,119.18,695.421Z" transform="translate(-48.937 -245.463)" opacity="0.1"/>
    <path id="Path_342" data-name="Path 342" d="M654.213,632.734a12.03,12.03,0,0,0-4.787-9.7c-.186-7.1-5.252-12.905-11.766-13.8A14.043,14.043,0,0,0,628.3,598.76h0a11.848,11.848,0,0,0-1.743-.411h-.171l-.3-.039h-1.6c-6.646,0-12.177,5.081-13.316,11.782-4.3-.992-8.242.294-8.947,3.013a3.676,3.676,0,0,0,.116,2.177c.728,2.107,3.1,4.121,6.313,5.12l.418.124c.209.062.418.108.627.155h.139a10.845,10.845,0,0,0,4.733,14.183,2.473,2.473,0,0,0-.279.178,3.875,3.875,0,0,0-.93,1.3,18.87,18.87,0,0,0-1.8,4.33c-.31,1.294-.364,2.649-.775,3.927-.705,2.324-2.518,4.361-2.727,6.832-.093,1.1.085,2.394-.7,3.145a5.1,5.1,0,0,1-.62.457,4.786,4.786,0,0,0-1.363,1.425,4.546,4.546,0,0,1-.907,1.255c-.7.535-1.867.48-2.215,1.3s.55,1.789.341,2.688c-.171.728-.969,1.062-1.549,1.55a5.494,5.494,0,0,0-1.317,2.5,8.01,8.01,0,0,1-6.608-1.681,12.391,12.391,0,0,1,.682,2.471c-.922-.984-2.44-1.27-3.563-1.781a11.385,11.385,0,0,1-3.8-2.82l2.029-.279L579.5,648.033l-2.649-.542,2.378,4.563a1.426,1.426,0,0,0-.775.976,4.153,4.153,0,0,0-.093,1.549,28.648,28.648,0,0,0,.612,3.633l.689,3.207a8.325,8.325,0,0,0,.225.891,9.05,9.05,0,0,0-2.665.3A23.4,23.4,0,0,0,571.7,661.3a2.815,2.815,0,0,0-1.247.062,3.021,3.021,0,0,0-1.162.945,37.178,37.178,0,0,0-4.105,5.779c-4.826,8.4-11.271,15.725-17.305,23.316-4.168,1.7-8.366,3.308-12.572,4.9l-9.04,3.447a13.577,13.577,0,0,1-5.6,1.271c-.868-.054-1.921-.186-2.409.55a4.637,4.637,0,0,0-.55,1.177c-.318,0-.636.077-.93.093h-.054a10.726,10.726,0,0,0-2.169-3.99,1.348,1.348,0,0,0-1.022.775c-.217.4-.349.844-.6,1.216-.488.713-1.332,1.061-1.936,1.666s-.984,1.549-1.635,2.138a6.489,6.489,0,0,1-3.1,1.2,19.554,19.554,0,0,0-4.811,1.828,8.246,8.246,0,0,1-1.781.821,6.736,6.736,0,0,1-2.084.07l-4.787-.349a3.73,3.73,0,0,0-1.278.054,2.378,2.378,0,0,0-1.549,2.456,3.821,3.821,0,0,0,1.511,2.634,10.069,10.069,0,0,0,2.726,1.417,79.175,79.175,0,0,0,12.82,3.757v.969a21.749,21.749,0,0,0,9.768,2.324,1.458,1.458,0,0,0,.728-.132,1.62,1.62,0,0,0,.612-.961,39.505,39.505,0,0,0,1.913-9.38h0a4.832,4.832,0,0,0,1.728-.442c1.65-.449,3.284.682,4.981.868,2.091.224,4.036-.992,6.011-1.743.287-.109.573-.2.86-.294a9.641,9.641,0,0,1-1.975,1.913c-.821.589-1.743,1.022-2.548,1.635a16.949,16.949,0,0,1-2.146,1.665,12.911,12.911,0,0,1-1.65.635,11.172,11.172,0,0,0-2.324,1.17,4.831,4.831,0,0,0-1.611,1.549,2.115,2.115,0,0,0,1.441,3.3,6.645,6.645,0,0,0,1.96.054c2.587-.193,5.167-.434,7.746-.666a21.682,21.682,0,0,0,3.246-.465c.565-.139,1.123-.325,1.689-.473a13.66,13.66,0,0,1,2.952-.441,2.451,2.451,0,0,1,.86.085c.6.194,1.03.775,1.642.93a2.537,2.537,0,0,0,1.17-.163,26.838,26.838,0,0,1,5.747-.612c.845-.047,1.836-.209,2.231-.992.48-.968-.325-2.053-.643-3.1a9.335,9.335,0,0,1-.263-2.03,12.655,12.655,0,0,0-1.426-4.826,13.079,13.079,0,0,1-1.061-2.2,55.952,55.952,0,0,0,10.566-5.36,19.155,19.155,0,0,1,6.027-2.9c2.51-.5,5.1.163,7.568.875a170.156,170.156,0,0,1,17.344,6.05,86.183,86.183,0,0,0,8.2,3.1,12.757,12.757,0,0,0,2.9,2.835,13.422,13.422,0,0,0,6.313,1.719,82.948,82.948,0,0,0,8.877.333,15,15,0,0,0,6.615-1.224,7.659,7.659,0,0,0,1.387-.914,5.489,5.489,0,0,0,4.353-1.611,10.537,10.537,0,0,0,3.331-5.229c.713-2.8.162-6.058,1.882-8.343.457-.612,1.053-1.108,1.5-1.728a4.647,4.647,0,0,0,.775-2.812l.077-.116a10.442,10.442,0,0,0,.775-2.82,16.092,16.092,0,0,1,.775-2.223,67.2,67.2,0,0,0,2.277-6.607,36.212,36.212,0,0,0,1.053-4.532c.186-1.224.295-2.455.4-3.687a22.233,22.233,0,0,1,1.116-5.663,46.268,46.268,0,0,0,2.564-13.571v-.271a9.087,9.087,0,0,0,8.1-9.172,9.72,9.72,0,0,0-.837-3.958,12.282,12.282,0,0,0,1.611-6.158Zm-43.8,53.225c.132.472.287.945.441,1.417-.713-.7-1.417-1.433-2.138-2.13.287.085.573.178.852.279a5.156,5.156,0,0,1,.852.434Zm-3.47-2.324c-4.229-3.671-9.125-6.522-13.455-10.07,2.324,1.169,4.648,2.525,6.971,3.826q4.059,2.324,8.211,4.447a6.676,6.676,0,0,1-1.7,1.766Zm1.805-9.249.2-.209v1.448c-.38-.124-.775-.248-1.139-.387a9.617,9.617,0,0,0,.945-.883Zm-37.236,9.946a35.087,35.087,0,0,0,4.516-6.437c1.673,2.936,4.4,5.051,6.724,7.506-3.734-.527-7.475-.937-11.232-1.1Z" transform="translate(-132.503 -226.349)" fill="url(#linear-gradient)"/>
    <path id="Path_343" data-name="Path 343" d="M574.53,545.12l2.673.542,9.1,13.448-4.021.542Z" transform="translate(-129.485 -122.847)" fill="#2f2e41"/>
    <path id="Path_344" data-name="Path 344" d="M519.48,733.662a52.964,52.964,0,0,0,2.657,6.972,64.378,64.378,0,0,0,8.877-2.533,24.193,24.193,0,0,0-1.844-2.5,8.7,8.7,0,0,0-2.51-1.929,6.836,6.836,0,0,0-3.044-.046Q521.548,733.7,519.48,733.662Z" transform="translate(-139.155 -256.809)" fill="#fbbebe"/>
    <path id="Path_345" data-name="Path 345" d="M520.027,736.151c-1.5-.472-2.425-1.991-3.036-3.455s-1.108-3.06-2.27-4.136a1.356,1.356,0,0,0-1.022.774c-.225.388-.356.829-.612,1.2-.48.7-1.333,1.038-1.944,1.635s-.992,1.5-1.65,2.1a6.564,6.564,0,0,1-3.1,1.193,19.631,19.631,0,0,0-4.849,1.8,8.305,8.305,0,0,1-1.8.775,6.821,6.821,0,0,1-2.1.07l-4.826-.349a3.775,3.775,0,0,0-1.286.062,2.324,2.324,0,0,0-1.549,2.417,3.75,3.75,0,0,0,1.549,2.595,10.278,10.278,0,0,0,2.742,1.394,82.641,82.641,0,0,0,12.936,3.695v.953a22.4,22.4,0,0,0,9.845,2.324,1.547,1.547,0,0,0,.775-.132,1.61,1.61,0,0,0,.62-.945,38.106,38.106,0,0,0,2.006-10.488,7.88,7.88,0,0,0-.2-2.7c-.264-.868.635-.5-.2-.844" transform="translate(-132.505 -255.704)" fill="#2f2e41"/>
    <path id="Path_346" data-name="Path 346" d="M620.584,713.769c-14.307.868-28.437-3.331-42.767-3.78a21.391,21.391,0,0,0-5.314.341,26.14,26.14,0,0,0-5.268,2.045c-7.677,3.571-15.624,6.531-23.564,9.489l-9.11,3.393a14.185,14.185,0,0,1-5.655,1.247c-.868-.054-1.929-.186-2.425.542-1.479,2.192-.775,5.422.2,7.886.318.774.852,1.665,1.7,1.758a5.021,5.021,0,0,0,1.743-.441c1.658-.442,3.315.674,5.02.852,2.115.225,4.074-.976,6.065-1.712,3.3-1.216,6.91-1.177,10.38-1.758,5.825-.968,11.216-3.672,16.267-6.755a19.105,19.105,0,0,1,6.073-2.85c2.533-.5,5.143.155,7.63.86a175.9,175.9,0,0,1,17.483,5.957,80.577,80.577,0,0,0,9.141,3.331,33.049,33.049,0,0,0,20.481-1.193c2.324-.907,4.772-2.5,4.9-4.974.077-1.41-1.015-2.649-1.743-3.873-.473-.775-.937-1.55-1.448-2.285C627.92,718.253,624.93,713.505,620.584,713.769Z" transform="translate(-140.541 -251.509)" fill="#2f2e41"/>
    <path id="Path_347" data-name="Path 347" d="M620.584,713.769c-14.307.868-28.437-3.331-42.767-3.78a21.391,21.391,0,0,0-5.314.341,26.14,26.14,0,0,0-5.268,2.045c-7.677,3.571-15.624,6.531-23.564,9.489l-9.11,3.393a14.185,14.185,0,0,1-5.655,1.247c-.868-.054-1.929-.186-2.425.542-1.479,2.192-.775,5.422.2,7.886.318.774.852,1.665,1.7,1.758a5.021,5.021,0,0,0,1.743-.441c1.658-.442,3.315.674,5.02.852,2.115.225,4.074-.976,6.065-1.712,3.3-1.216,6.91-1.177,10.38-1.758,5.825-.968,11.216-3.672,16.267-6.755a19.105,19.105,0,0,1,6.073-2.85c2.533-.5,5.143.155,7.63.86a175.9,175.9,0,0,1,17.483,5.957,80.577,80.577,0,0,0,9.141,3.331,33.049,33.049,0,0,0,20.481-1.193c2.324-.907,4.772-2.5,4.9-4.974.077-1.41-1.015-2.649-1.743-3.873-.473-.775-.937-1.55-1.448-2.285C627.92,718.253,624.93,713.505,620.584,713.769Z" transform="translate(-140.541 -251.509)" opacity="0.1"/>
    <path id="Path_348" data-name="Path 348" d="M554.93,732.89q3.362,1.139,6.77,2.107c1.279-2.1,3.664-3.556,4.206-5.949a.554.554,0,0,0,0-.318.572.572,0,0,0-.255-.232,12.664,12.664,0,0,0-5.306-1.55c-1.472-.093-2.138,1.441-2.8,2.518C557.308,729.9,555.526,733.092,554.93,732.89Z" transform="translate(-147.144 -255.339)" fill="#fbbebe"/>
    <path id="Path_349" data-name="Path 349" d="M552.567,731.646a4.872,4.872,0,0,1-3.292-2.161c-.318-.55-.651-1.293-1.286-1.255s-.852.736-.984,1.317a37.62,37.62,0,0,1-1.851,6.36,11.922,11.922,0,0,1-3.959,5.2c-.829.573-1.75,1.007-2.564,1.611a16.975,16.975,0,0,1-2.169,1.642,12.262,12.262,0,0,1-1.666.62,11.453,11.453,0,0,0-2.378,1.154,4.846,4.846,0,0,0-1.619,1.549,2.084,2.084,0,0,0,1.41,3.261,7.04,7.04,0,0,0,1.976.046c2.61-.194,5.213-.426,7.816-.658a22.189,22.189,0,0,0,3.277-.449c.573-.139,1.131-.325,1.7-.472a14.374,14.374,0,0,1,2.982-.434,2.526,2.526,0,0,1,.868.085c.6.194,1.03.775,1.65.914a2.556,2.556,0,0,0,1.177-.155,27.878,27.878,0,0,1,5.794-.6c.852-.047,1.859-.209,2.246-.976.488-.953-.317-2.022-.643-3.044a9.561,9.561,0,0,1-.271-2,12.17,12.17,0,0,0-1.433-4.748c-.666-1.224-1.549-2.572-1.108-3.873a3.394,3.394,0,0,0,.441-1.325C558.571,731.15,553.745,731.925,552.567,731.646Z" transform="translate(-141.629 -255.629)" fill="#2f2e41"/>
    <path id="Path_350" data-name="Path 350" d="M617,681.6a11.215,11.215,0,0,1-5.7-5.663c-.232-.542-.434-1.107-.659-1.658a12.675,12.675,0,0,0-3.408-4.725,1.634,1.634,0,0,0-1.263-.534,1.348,1.348,0,0,0-.929.991,4.067,4.067,0,0,0-.1,1.549,29.135,29.135,0,0,0,.62,3.571l.7,3.161a6.194,6.194,0,0,0,.434,1.409,4.91,4.91,0,0,0,1.162,1.387c.635.589,1.278,1.154,1.929,1.7a6.81,6.81,0,0,0,1.17.852,7.171,7.171,0,0,0,2.177.635,18.764,18.764,0,0,1,8.126,3.1s0-2.115-.054-2.324a3.1,3.1,0,0,0-.6-1.7C619.7,682.39,618.148,682.1,617,681.6Z" transform="translate(-158.408 -242.285)" fill="#fbbebe"/>
    <path id="Path_351" data-name="Path 351" d="M617,681.6a11.215,11.215,0,0,1-5.7-5.663c-.232-.542-.434-1.107-.659-1.658a12.675,12.675,0,0,0-3.408-4.725,1.634,1.634,0,0,0-1.263-.534,1.348,1.348,0,0,0-.929.991,4.067,4.067,0,0,0-.1,1.549,29.135,29.135,0,0,0,.62,3.571l.7,3.161a6.194,6.194,0,0,0,.434,1.409,4.91,4.91,0,0,0,1.162,1.387c.635.589,1.278,1.154,1.929,1.7a6.81,6.81,0,0,0,1.17.852,7.171,7.171,0,0,0,2.177.635,18.764,18.764,0,0,1,8.126,3.1s0-2.115-.054-2.324a3.1,3.1,0,0,0-.6-1.7C619.7,682.39,618.148,682.1,617,681.6Z" transform="translate(-158.408 -242.285)" opacity="0.1"/>
    <ellipse id="Ellipse_31" data-name="Ellipse 31" cx="3.478" cy="3.501" rx="3.478" ry="3.501" transform="translate(484.241 408.144)" fill="#2f2e41"/>
    <path id="Path_352" data-name="Path 352" d="M648.324,646.782a3.874,3.874,0,0,0-2.75.4,3.7,3.7,0,0,0-.937,1.286,18.27,18.27,0,0,0-1.812,4.261c-.31,1.278-.364,2.61-.775,3.873-.713,2.324-2.541,4.3-2.75,6.724-.093,1.084.085,2.362-.7,3.1a4.541,4.541,0,0,1-.628.441,4.759,4.759,0,0,0-1.371,1.41,4.476,4.476,0,0,1-.969,1.34c-.712.527-1.882.472-2.23,1.286s.55,1.758.341,2.642c-.17.72-.976,1.053-1.55,1.549a5.366,5.366,0,0,0-1.324,2.471,8.2,8.2,0,0,1-6.654-1.665,20.982,20.982,0,0,1,1.03,7.615,3.145,3.145,0,0,1-.612,2.324,39.361,39.361,0,0,1,8.172,1.417,5.614,5.614,0,0,0,3.563,0,5.89,5.89,0,0,0,1.635-1.3c1.471-1.5,3.013-3.1,3.369-5.183a28.155,28.155,0,0,0,.062-3.524,20.227,20.227,0,0,1,.891-4.269,49.936,49.936,0,0,0,1.549-8.792c.163-1.836,1.743-3.307,2.579-4.949,1.549-3.1,3.176-6.313,3.3-9.783C649.858,648.316,649.471,646.929,648.324,646.782Z" transform="translate(-162.758 -237.251)" fill="#2f2e41"/>
    <path id="Path_353" data-name="Path 353" d="M648.324,646.782a3.874,3.874,0,0,0-2.75.4,3.7,3.7,0,0,0-.937,1.286,18.27,18.27,0,0,0-1.812,4.261c-.31,1.278-.364,2.61-.775,3.873-.713,2.324-2.541,4.3-2.75,6.724-.093,1.084.085,2.362-.7,3.1a4.541,4.541,0,0,1-.628.441,4.759,4.759,0,0,0-1.371,1.41,4.476,4.476,0,0,1-.969,1.34c-.712.527-1.882.472-2.23,1.286s.55,1.758.341,2.642c-.17.72-.976,1.053-1.55,1.549a5.366,5.366,0,0,0-1.324,2.471,8.2,8.2,0,0,1-6.654-1.665,20.982,20.982,0,0,1,1.03,7.615,3.145,3.145,0,0,1-.612,2.324,39.361,39.361,0,0,1,8.172,1.417,5.614,5.614,0,0,0,3.563,0,5.89,5.89,0,0,0,1.635-1.3c1.471-1.5,3.013-3.1,3.369-5.183a28.155,28.155,0,0,0,.062-3.524,20.227,20.227,0,0,1,.891-4.269,49.936,49.936,0,0,0,1.549-8.792c.163-1.836,1.743-3.307,2.579-4.949,1.549-3.1,3.176-6.313,3.3-9.783C649.858,648.316,649.471,646.929,648.324,646.782Z" transform="translate(-162.758 -237.251)" opacity="0.1"/>
    <path id="Path_354" data-name="Path 354" d="M630.343,710.2c-2.982-1.417-5.159-4.059-7.568-6.321-4.6-4.322-10.225-7.374-15.059-11.426-3.2-2.68-6.065-5.8-9.59-8.048a23.816,23.816,0,0,0-10.271-3.6,2.846,2.846,0,0,0-1.255.062,3.017,3.017,0,0,0-1.17.93,36.5,36.5,0,0,0-4.144,5.694c-6.127,10.4-14.827,19.141-22.038,28.816a1.293,1.293,0,0,0-.085,1.75l1.464,2.874c.821,1.6,2.138,3.478,3.873,3.16a4.3,4.3,0,0,0,2.052-1.309l6.584-6.3,6.9-6.6c4.043-3.873,8.157-7.824,10.8-12.766,2.06,3.571,5.717,5.91,8.226,9.187.953,1.239,1.728,2.61,2.58,3.927,1.371,2.115,2.921,4.1,4.469,6.073l7.925,10.109a15.327,15.327,0,0,0,3.664,3.718,14.062,14.062,0,0,0,6.367,1.7,81.921,81.921,0,0,0,8.947.325,15.346,15.346,0,0,0,6.662-1.2c2.014-1.015,3.726-3.1,3.618-5.368a7.966,7.966,0,0,0-1.139-3.354C639.359,717.045,635.657,712.707,630.343,710.2Z" transform="translate(-148.03 -244.932)" fill="#2f2e41"/>
    <ellipse id="Ellipse_32" data-name="Ellipse 32" cx="2.672" cy="2.688" rx="2.672" ry="2.688" transform="translate(487.185 411.382)" fill="#e8e8f0"/>
    <path id="Path_355" data-name="Path 355" d="M659.054,647.617a5.115,5.115,0,0,1,.294,3.873,14.948,14.948,0,0,1-1.72,3.563,17.743,17.743,0,0,1-2.239,3.191c4.129.2,8.134-1.417,11.775-3.385,2.936-1.549,5.864-3.524,7.428-6.476a3.439,3.439,0,0,1-2.734-.5,10.254,10.254,0,0,1-2.1-1.952l-2.068-2.324a9.33,9.33,0,0,1-1.278-1.681,4.648,4.648,0,0,1-.55-2.7,15.485,15.485,0,0,1-2.742,2.278c-1.48.968-3.1,1.666-4.594,2.618-.527.341-1.7.891-1.395,1.549S658.636,646.874,659.054,647.617Z" transform="translate(-169.785 -235.569)" fill="#fbbebe"/>
    <path id="Path_356" data-name="Path 356" d="M659.054,647.617a5.115,5.115,0,0,1,.294,3.873,14.948,14.948,0,0,1-1.72,3.563,17.743,17.743,0,0,1-2.239,3.191c4.129.2,8.134-1.417,11.775-3.385,2.936-1.549,5.864-3.524,7.428-6.476a3.439,3.439,0,0,1-2.734-.5,10.254,10.254,0,0,1-2.1-1.952l-2.068-2.324a9.33,9.33,0,0,1-1.278-1.681,4.648,4.648,0,0,1-.55-2.7,15.485,15.485,0,0,1-2.742,2.278c-1.48.968-3.1,1.666-4.594,2.618-.527.341-1.7.891-1.395,1.549S658.636,646.874,659.054,647.617Z" transform="translate(-169.785 -235.569)" opacity="0.1"/>
    <path id="Path_357" data-name="Path 357" d="M655.435,650.447a3.493,3.493,0,0,0,0,4.035c.116.147.558,1.069.775,1.077a.7.7,0,0,0,.473-.24,32.8,32.8,0,0,0,2.618-3.1,5.779,5.779,0,0,1,3.331-2.184c1.619-.256,3.176.6,4.594,1.425a4.386,4.386,0,0,1,1.549,1.286,4.222,4.222,0,0,1,.519,1.75,81.861,81.861,0,0,1,.465,11.124,42.745,42.745,0,0,1-.526,8c-.263,1.364-.658,2.7-.844,4.075a27.379,27.379,0,0,0-.163,3.656v5.112a12.984,12.984,0,0,0,.2,2.8,34.043,34.043,0,0,0,1.124,3.246,21.442,21.442,0,0,1,.774,3.873l.7,5.291c.224,1.673.387,3.493-.627,4.833-.449.612-1.054,1.092-1.55,1.7-1.743,2.215-1.162,5.43-1.936,8.18a10.36,10.36,0,0,1-3.362,5.151,5.44,5.44,0,0,1-4.423,1.549c-2.146-.4-3.439-2.641-4.028-4.756s-.774-4.423-2.068-6.2a16.333,16.333,0,0,0-4.09-3.424c-1.448-1.046-2.874-2.385-3.191-4.152-.139-.775-.054-1.55-.131-2.324a5.539,5.539,0,0,0-3.424-4.493c-1.1-.426-2.463-.581-3.1-1.549a7.458,7.458,0,0,0,3.222-4.33,22.231,22.231,0,0,0,.775-5.422l.372-6.151c.163-2.75.24-5.477,1.449-7.948.542-1.1,1.216-2.138,1.774-3.23a35.874,35.874,0,0,0,1.905-4.741c.875-2.518,1.759-5.043,2.541-7.591a15.055,15.055,0,0,1,1.394-3.54C653.243,652.074,654.2,650.68,655.435,650.447Z" transform="translate(-166.112 -237.996)" fill="#e8e8f0"/>
    <path id="Path_358" data-name="Path 358" d="M642.51,690.1l1.627.054.349-2.456a5.317,5.317,0,0,1,.341-1.433,9.11,9.11,0,0,1,.938-1.371c1.6-2.262,1.487-5.268,1.882-8.018.527-3.664,2.061-7.1,3.579-10.48l3.16-7.042a10.16,10.16,0,0,0,.674-1.8,9.9,9.9,0,0,0,.193-2.083c0-1.085.356-5.043.38-6.135,0-.4-.883-.178-1.069-.534-.4-.775-.937,1.332-1.681,1.8a4.122,4.122,0,0,0-1.457,2.13c-.682,1.774-1.1,3.641-1.735,5.423a11.142,11.142,0,0,1-2.951,4.795c-.643.573-1.395,1.023-2.006,1.627-1.968,1.944-2.154,5.012-2.223,7.746C642.463,674.015,642.146,690.1,642.51,690.1Z" transform="translate(-166.844 -237.69)" fill="#2f2e41"/>
    <path id="Path_359" data-name="Path 359" d="M668.49,646.738c-1.549.62-2.448,2.324-2.89,3.982a19.482,19.482,0,0,1-1.479,4.88c-1.983,3.455-7.042,4.461-8.443,8.2a14.988,14.988,0,0,0-.566,3.873c-.248,2.673-1.131,5.26-1.394,7.932a34.96,34.96,0,0,0,.147,6.236l1.774,21.093a27.885,27.885,0,0,1-.535,9.3,8.933,8.933,0,0,0,5.314-.875c1.666-.775,3.184-1.8,4.78-2.68,2.75-1.549,5.786-2.595,8.188-4.647a4.86,4.86,0,0,0,1.108-1.216,10.47,10.47,0,0,0,.775-2.781,15.607,15.607,0,0,1,.774-2.185,64.846,64.846,0,0,0,2.324-6.507,34.966,34.966,0,0,0,1.061-4.469c.194-1.2.295-2.417.4-3.625a21.344,21.344,0,0,1,1.123-5.577,44.714,44.714,0,0,0,2.579-13.362,6.709,6.709,0,0,0-.131-1.968,10.568,10.568,0,0,0-1.069-2.231c-.736-1.386-1.177-2.912-1.874-4.315-1.549-3.176-4.33-5.585-7.235-7.606C671.736,647.195,670.1,646.126,668.49,646.738Z" transform="translate(-169.391 -237.223)" fill="#2f2e41"/>
    <path id="Path_360" data-name="Path 360" d="M619.471,689.161a12.712,12.712,0,0,1-3.37-2.556c-.441-.519-.774-1.1-1.255-1.611a8.283,8.283,0,0,0-4.237-2.417,20.433,20.433,0,0,0-4.911-.472,8.722,8.722,0,0,0-3.261.395,3.293,3.293,0,0,0-2.169,2.324,3.823,3.823,0,0,0,1.65,3.432,7.973,7.973,0,0,0,3.292,1.6,27.42,27.42,0,0,0,2.975.348c5.856.612,11.085,3.8,16.213,6.7q6.762,3.819,13.788,7.15a27.652,27.652,0,0,0,.233-4.229c0-1.054-.078-2.665-1.077-3.284-1.162-.728-3.1-.891-4.385-1.325a69.579,69.579,0,0,1-8.823-3.563C622.515,690.873,620.966,690.044,619.471,689.161Z" transform="translate(-157.353 -245.229)" fill="#fbbebe"/>
    <ellipse id="Ellipse_33" data-name="Ellipse 33" cx="10.434" cy="10.496" rx="10.434" ry="10.496" transform="translate(477.285 389.855)" fill="#fbbebe"/>
    <path id="Path_361" data-name="Path 361" d="M669.184,661.762a16.94,16.94,0,0,0-2.022,3.772c-1.293,2.657-3.315,4.934-4.323,7.746-1.069,2.92-1.03,6.4-3.1,8.7a2.994,2.994,0,0,0-.906,1.317,6.544,6.544,0,0,1-.108.953c-.294.836-1.665.875-1.921,1.727-.07.248,0,.519-.124.775-.209.55-.929.627-1.418.96-1.015.689-.774,2.285-1.549,3.277a2.75,2.75,0,0,1-2.6.914,9.648,9.648,0,0,1-2.711-1.015,2.433,2.433,0,0,0-.969-.3,1.972,1.972,0,0,0-1.123.38,6.937,6.937,0,0,0-2.819,5.949,19.353,19.353,0,0,0,1.6,6.646,2.8,2.8,0,0,0,.534.992,2.326,2.326,0,0,0,2.6.186,12.113,12.113,0,0,1,2.533-1.131c1.611-.294,3.191.821,4.826.728a6.8,6.8,0,0,0,3.261-1.441,18.044,18.044,0,0,0,4.4-3.757c.713-.937,1.239-2.006,1.867-3.006a34.043,34.043,0,0,1,2.634-3.517l6.019-7.367a15.8,15.8,0,0,0,1.619-2.239,16.394,16.394,0,0,0,1.262-3.362,26.558,26.558,0,0,0,1.247-5.988,23.887,23.887,0,0,0-.442-5.027,17.453,17.453,0,0,0-1.294-4.78C674.823,661.142,671.639,658.9,669.184,661.762Z" transform="translate(-167.104 -240.348)" fill="#2f2e41"/>
    <path id="Path_362" data-name="Path 362" d="M688.434,634.6a11.75,11.75,0,0,0-4.833-9.551,13.943,13.943,0,0,0-11.86-13.594,13.556,13.556,0,0,0-26.7.72c-4.338-.976-8.3.294-9.024,2.967-.775,2.8,2.324,6.065,6.91,7.3a12.7,12.7,0,0,0,4.423.442,13.594,13.594,0,0,0,9.342,5.81,13.889,13.889,0,0,0,10.187,10.511,11.624,11.624,0,0,0,3.145,4.354c0,.325-.054.658-.054,1a8.838,8.838,0,1,0,17.661,0,9.3,9.3,0,0,0-.845-3.875A11.871,11.871,0,0,0,688.434,634.6Z" transform="translate(-165.392 -226.86)" fill="#f86d70"/>
    <path id="Path_363" data-name="Path 363" d="M638.95,615.66c.72-2.673,4.648-3.943,9.024-2.967A13.78,13.78,0,0,1,661.4,601.073h.9a13.17,13.17,0,0,0-3.873-.573A13.782,13.782,0,0,0,645,612.119c-4.338-.976-8.3.294-9.024,2.967-.775,2.8,2.324,6.065,6.909,7.3a13.3,13.3,0,0,0,2.61.449C641.142,621.57,638.214,618.394,638.95,615.66Z" transform="translate(-165.383 -226.842)" opacity="0.1"/>
    <path id="Path_364" data-name="Path 364" d="M676.342,651.732a6.227,6.227,0,0,1,.054-1.007,11.573,11.573,0,0,1-3.145-4.345,13.944,13.944,0,0,1-10.186-10.52,13.568,13.568,0,0,1-9.342-5.81,12.308,12.308,0,0,1-2.6-.07,13.547,13.547,0,0,0,9,5.345,13.889,13.889,0,0,0,10.187,10.512,11.624,11.624,0,0,0,3.145,4.354c0,.325-.054.658-.054,1a8.993,8.993,0,0,0,8.785,9.14,9.125,9.125,0,0,1-5.841-8.6Z" transform="translate(-168.823 -233.486)" opacity="0.1"/>
    <ellipse id="Ellipse_34" data-name="Ellipse 34" cx="1.611" cy="2.146" rx="1.611" ry="2.146" transform="translate(488.616 401.753) rotate(-37.22)" fill="#fbbebe"/>
    <path id="Path_365" data-name="Path 365" d="M331.865,702.014l10.318-6.065a24.786,24.786,0,0,0-5.275-6.313l-19.458,6.05,15.245-8.962A24.788,24.788,0,0,0,296,708.467c0,13.688,11.1,14.16,24.788,14.16s24.788-.472,24.788-14.16a24.6,24.6,0,0,0-2.13-10.07Z" transform="translate(-88.788 -245.588)" fill="#fa4252"/>
    <path id="Path_366" data-name="Path 366" d="M334.491,719.937a19.348,19.348,0,0,0-3.656-2.874,16.877,16.877,0,0,0-6.019-2.936c-1.937-.372-3.935-.054-5.91-.171a13.813,13.813,0,0,1-9.055-4.152c-1.41-1.457-2.517-3.246-4.214-4.361a9.219,9.219,0,0,0-6.306-1.154,15.29,15.29,0,0,0-1.867.38A24.786,24.786,0,0,0,296,713.082c0,13.688,11.1,14.16,24.788,14.16,6.646,0,12.673-.108,17.127-1.789l-.775-1.387A19.276,19.276,0,0,0,334.491,719.937Z" transform="translate(-88.788 -250.202)" opacity="0.1"/>
  </g>
</svg>
