<svg xmlns="http://www.w3.org/2000/svg" xmlns:xlink="http://www.w3.org/1999/xlink" width="1389.66" height="729.189" viewBox="0 0 1389.66 729.189">
  <defs>
    <linearGradient id="linear-gradient" x1="0.5" y1="1" x2="0.5" y2="-0.001" gradientUnits="objectBoundingBox">
      <stop offset="0" stop-color="gray" stop-opacity="0.251"/>
      <stop offset="0.54" stop-color="gray" stop-opacity="0.122"/>
      <stop offset="1" stop-color="gray" stop-opacity="0.102"/>
    </linearGradient>
  </defs>
  <g id="undraw_contact_us_15o2" transform="translate(0 0.359)">
    <g id="Group_133" data-name="Group 133" transform="translate(539.063 50.359)" opacity="0.1">
      <ellipse id="Ellipse_35" data-name="Ellipse 35" cx="14.429" cy="18.892" rx="14.429" ry="18.892" transform="translate(54.383 389.991)" fill="#3f3d56"/>
      <path id="Path_368" data-name="Path 368" d="M545.9,467.433a22.823,22.823,0,0,0,3.017-11.551c0-10.435-6.466-18.892-14.442-18.892S520,445.473,520,455.908a22.826,22.826,0,0,0,3.018,11.551,23.6,23.6,0,0,0,0,23.089,23.6,23.6,0,0,0,0,23.089A22.741,22.741,0,0,0,520,525.188c0,10.423,6.467,18.892,14.429,18.892s14.441-8.469,14.441-18.892a22.746,22.746,0,0,0-3.017-11.551,23.6,23.6,0,0,0,0-23.089,23.6,23.6,0,0,0,0-23.089Z" transform="translate(-465.668 -139.381)" fill="#3f3d56"/>
      <ellipse id="Ellipse_36" data-name="Ellipse 36" cx="14.429" cy="18.892" rx="14.429" ry="18.892" transform="translate(54.383 274.545)" fill="#3f3d56"/>
      <ellipse id="Ellipse_37" data-name="Ellipse 37" cx="14.429" cy="18.892" rx="14.429" ry="18.892" transform="translate(54.383 251.456)" fill="#3f3d56"/>
      <path id="Path_369" data-name="Path 369" d="M491.947,314.6a67.31,67.31,0,0,1-5.376-7.912l37.911-6.226-41.005.3a69.253,69.253,0,0,1-1.268-54.775l55.016,28.541-50.717-37.3a69.141,69.141,0,1,1,114.114,77.344,69.162,69.162,0,0,1,7.886,12.6l-49.234,25.638,52.48-17.612a69.14,69.14,0,0,1-11.145,64.918,69.128,69.128,0,1,1-108.663,0,69.129,69.129,0,0,1,0-85.484Z" transform="translate(-477.149 -202.271)" fill="#fa4252"/>
      <path id="Path_370" data-name="Path 370" d="M615.406,324.785a68.813,68.813,0,0,1-14.8,42.742,69.128,69.128,0,1,1-108.662,0C482.678,355.761,615.406,317.026,615.406,324.785Z" transform="translate(-477.149 -169.718)" opacity="0.1"/>
    </g>
    <g id="Group_134" data-name="Group 134" transform="translate(724.906 113.542)" opacity="0.1">
      <ellipse id="Ellipse_38" data-name="Ellipse 38" cx="10.79" cy="14.112" rx="10.79" ry="14.112" transform="translate(40.637 291.191)" fill="#3f3d56"/>
      <path id="Path_371" data-name="Path 371" d="M675.083,450.067a17.02,17.02,0,0,0,2.244-8.622c0-7.8-4.831-14.125-10.777-14.125s-10.79,6.34-10.79,14.125a16.9,16.9,0,0,0,2.257,8.622,17.622,17.622,0,0,0,0,17.256,17.621,17.621,0,0,0,0,17.257,16.9,16.9,0,0,0-2.257,8.622c0,7.8,4.831,14.125,10.79,14.125s10.777-6.34,10.777-14.125a17.02,17.02,0,0,0-2.244-8.622,17.751,17.751,0,0,0,0-17.257A17.75,17.75,0,0,0,675.083,450.067Z" transform="translate(-615.136 -205.156)" fill="#3f3d56"/>
      <ellipse id="Ellipse_39" data-name="Ellipse 39" cx="10.79" cy="14.112" rx="10.79" ry="14.112" transform="translate(40.637 204.92)" fill="#3f3d56"/>
      <ellipse id="Ellipse_40" data-name="Ellipse 40" cx="10.79" cy="14.112" rx="10.79" ry="14.112" transform="translate(40.637 187.663)" fill="#3f3d56"/>
      <path id="Path_372" data-name="Path 372" d="M634.776,335.8a49.431,49.431,0,0,1-4.02-5.908l28.339-4.654-30.646.228a51.782,51.782,0,0,1-.99-40.942l41.119,21.339-37.924-27.895a51.668,51.668,0,1,1,85.32,57.818,52.231,52.231,0,0,1,5.9,9.421L685.1,364.312l39.217-13.161a51.682,51.682,0,0,1-8.33,48.511,51.656,51.656,0,1,1-81.148,0,51.656,51.656,0,0,1,0-63.879Z" transform="translate(-623.72 -252.103)" fill="#fa4252"/>
      <path id="Path_373" data-name="Path 373" d="M727.026,343.461A51.438,51.438,0,0,1,715.97,375.4a51.656,51.656,0,1,1-81.148,0C627.874,366.613,727.026,337.666,727.026,343.461Z" transform="translate(-623.715 -227.829)" opacity="0.1"/>
    </g>
    <g id="Group_135" data-name="Group 135" transform="translate(1247.069 -0.359)" opacity="0.1">
      <ellipse id="Ellipse_41" data-name="Ellipse 41" cx="14.429" cy="18.892" rx="14.429" ry="18.892" transform="translate(55.357 389.991)" fill="#3f3d56"/>
      <path id="Path_374" data-name="Path 374" d="M1082.208,427.433a22.813,22.813,0,0,1-3.017-11.551c0-10.435,6.465-18.892,14.441-18.892s14.429,8.457,14.429,18.892a22.819,22.819,0,0,1-3.018,11.551,23.594,23.594,0,0,1,0,23.089,23.6,23.6,0,0,1,0,23.089,22.744,22.744,0,0,1,3.018,11.551c0,10.422-6.466,18.892-14.429,18.892s-14.442-8.47-14.442-18.892a22.748,22.748,0,0,1,3.018-11.551,23.6,23.6,0,0,1,0-23.089A23.6,23.6,0,0,1,1082.208,427.433Z" transform="translate(-1023.846 -99.381)" fill="#3f3d56"/>
      <ellipse id="Ellipse_42" data-name="Ellipse 42" cx="14.429" cy="18.892" rx="14.429" ry="18.892" transform="translate(55.357 274.545)" fill="#3f3d56"/>
      <ellipse id="Ellipse_43" data-name="Ellipse 43" cx="14.429" cy="18.892" rx="14.429" ry="18.892" transform="translate(55.357 251.456)" fill="#3f3d56"/>
      <path id="Path_375" data-name="Path 375" d="M1159.341,274.6a67.328,67.328,0,0,0,5.377-7.912l-37.912-6.226,41,.3a69.256,69.256,0,0,0,1.269-54.775l-55.016,28.542,50.717-37.3a69.141,69.141,0,1,0-114.115,77.344,69.151,69.151,0,0,0-7.886,12.6l49.233,25.638-52.48-17.612a69.14,69.14,0,0,0,11.146,64.918,69.128,69.128,0,1,0,108.662,0,69.127,69.127,0,0,0,0-85.484Z" transform="translate(-1035.541 -162.271)" fill="#fa4252"/>
      <path id="Path_376" data-name="Path 376" d="M1035.811,284.785a68.807,68.807,0,0,0,14.8,42.742,69.128,69.128,0,1,0,108.662,0C1168.538,315.761,1035.811,277.026,1035.811,284.785Z" transform="translate(-1035.47 -129.718)" opacity="0.1"/>
    </g>
    <g id="Group_136" data-name="Group 136" transform="translate(1125.62 105.935)" opacity="0.1">
      <ellipse id="Ellipse_44" data-name="Ellipse 44" cx="10.79" cy="14.112" rx="10.79" ry="14.112" transform="translate(41.149 291.191)" fill="#3f3d56"/>
      <path id="Path_377" data-name="Path 377" d="M974.475,444.067a17.034,17.034,0,0,1-2.245-8.622c0-7.8,4.831-14.125,10.778-14.125s10.79,6.34,10.79,14.125a16.9,16.9,0,0,1-2.257,8.622,17.621,17.621,0,0,1,0,17.257,17.621,17.621,0,0,1,0,17.257A16.9,16.9,0,0,1,993.8,487.2c0,7.8-4.831,14.125-10.79,14.125s-10.778-6.34-10.778-14.125a17.034,17.034,0,0,1,2.245-8.622,17.752,17.752,0,0,1,0-17.257A17.752,17.752,0,0,1,974.475,444.067Z" transform="translate(-931.055 -199.156)" fill="#3f3d56"/>
      <ellipse id="Ellipse_45" data-name="Ellipse 45" cx="10.79" cy="14.112" rx="10.79" ry="14.112" transform="translate(41.149 204.92)" fill="#3f3d56"/>
      <ellipse id="Ellipse_46" data-name="Ellipse 46" cx="10.79" cy="14.112" rx="10.79" ry="14.112" transform="translate(41.149 187.664)" fill="#3f3d56"/>
      <path id="Path_378" data-name="Path 378" d="M1032.066,329.8a49.5,49.5,0,0,0,4.02-5.908l-28.338-4.654,30.646.228a51.783,51.783,0,0,0,.989-40.942l-41.12,21.339,37.924-27.895a51.669,51.669,0,1,0-85.32,57.818,52.276,52.276,0,0,0-5.9,9.421l36.77,19.108L942.6,345.163a51.683,51.683,0,0,0,8.331,48.512,51.656,51.656,0,1,0,81.148,0,51.655,51.655,0,0,0,0-63.879Z" transform="translate(-939.756 -246.103)" fill="#fa4252"/>
      <path id="Path_379" data-name="Path 379" d="M939.805,337.461a51.442,51.442,0,0,0,11.056,31.94,51.656,51.656,0,1,0,81.148,0C1038.958,360.613,939.805,331.666,939.805,337.461Z" transform="translate(-939.75 -221.828)" opacity="0.1"/>
    </g>
    <g id="Group_137" data-name="Group 137" transform="translate(9.268 -0.146)" opacity="0.1">
      <ellipse id="Ellipse_47" data-name="Ellipse 47" cx="14.429" cy="18.892" rx="14.429" ry="18.892" transform="translate(54.396 389.778)" fill="#3f3d56"/>
      <path id="Path_380" data-name="Path 380" d="M128.051,427.433a22.824,22.824,0,0,0,3.018-11.551c0-10.435-6.466-18.892-14.429-18.892s-14.429,8.457-14.429,18.892a22.825,22.825,0,0,0,3.005,11.551,23.672,23.672,0,0,0,0,23.089,23.673,23.673,0,0,0,0,23.089,22.735,22.735,0,0,0-3.005,11.551c0,10.422,6.454,18.892,14.429,18.892s14.467-8.445,14.467-18.867a22.748,22.748,0,0,0-3.018-11.551,23.6,23.6,0,0,0,0-23.089,23.6,23.6,0,0,0,0-23.089Z" transform="translate(-47.815 -99.593)" fill="#3f3d56"/>
      <ellipse id="Ellipse_48" data-name="Ellipse 48" cx="14.429" cy="18.892" rx="14.429" ry="18.892" transform="translate(54.396 274.333)" fill="#3f3d56"/>
      <ellipse id="Ellipse_49" data-name="Ellipse 49" cx="14.429" cy="18.892" rx="14.429" ry="18.892" transform="translate(54.396 251.244)" fill="#3f3d56"/>
      <path id="Path_381" data-name="Path 381" d="M74.132,274.551a68.877,68.877,0,0,1-5.376-7.912l37.924-6.226-41.043.368a69.255,69.255,0,0,1-1.268-54.775L119.4,234.548l-50.717-37.3a69.128,69.128,0,1,1,114.114,77.344,69.152,69.152,0,0,1,7.887,12.6l-49.247,25.574,52.493-17.612a69.217,69.217,0,0,1-11.158,64.919,69.128,69.128,0,1,1-108.662,0,69.128,69.128,0,0,1,0-85.484Z" transform="translate(-59.309 -162.439)" fill="#fa4252"/>
      <path id="Path_382" data-name="Path 382" d="M197.566,284.785a68.81,68.81,0,0,1-14.8,42.742,69.128,69.128,0,1,1-108.662,0C64.838,315.761,197.566,277.026,197.566,284.785Z" transform="translate(-59.309 -129.93)" opacity="0.1"/>
    </g>
    <g id="Group_138" data-name="Group 138" transform="translate(165.948 105.935)" opacity="0.1">
      <ellipse id="Ellipse_50" data-name="Ellipse 50" cx="10.79" cy="14.112" rx="10.79" ry="14.112" transform="translate(40.637 291.191)" fill="#3f3d56"/>
      <path id="Path_383" data-name="Path 383" d="M234.254,444.067a17.025,17.025,0,0,0,2.244-8.622c0-7.8-4.818-14.125-10.777-14.125s-10.79,6.34-10.79,14.125a17.028,17.028,0,0,0,2.257,8.622,17.624,17.624,0,0,0,0,17.257,17.624,17.624,0,0,0,0,17.257,17.03,17.03,0,0,0-2.257,8.622c0,7.8,4.831,14.125,10.79,14.125S236.5,494.987,236.5,487.2a17.026,17.026,0,0,0-2.244-8.622,17.751,17.751,0,0,0,0-17.257,17.75,17.75,0,0,0,0-17.256Z" transform="translate(-174.293 -199.156)" fill="#3f3d56"/>
      <ellipse id="Ellipse_51" data-name="Ellipse 51" cx="10.79" cy="14.112" rx="10.79" ry="14.112" transform="translate(40.637 204.92)" fill="#3f3d56"/>
      <ellipse id="Ellipse_52" data-name="Ellipse 52" cx="10.79" cy="14.112" rx="10.79" ry="14.112" transform="translate(40.637 187.664)" fill="#3f3d56"/>
      <path id="Path_384" data-name="Path 384" d="M193.936,329.8a50.967,50.967,0,0,1-4.019-5.909l28.338-4.653-30.646.228a51.783,51.783,0,0,1-.989-40.942L227.74,299.86l-37.924-27.895a51.668,51.668,0,1,1,85.319,57.818,50.856,50.856,0,0,1,5.9,9.421l-36.77,19.108,39.217-13.161a51.681,51.681,0,0,1-8.33,48.511,51.656,51.656,0,1,1-81.148,0,51.656,51.656,0,0,1,0-63.879Z" transform="translate(-182.88 -246.103)" fill="#fa4252"/>
      <path id="Path_385" data-name="Path 385" d="M286.186,337.461A51.443,51.443,0,0,1,275.13,369.4a51.656,51.656,0,1,1-81.148,0C187.008,360.613,286.186,331.666,286.186,337.461Z" transform="translate(-182.875 -221.828)" opacity="0.1"/>
    </g>
    <ellipse id="Ellipse_53" data-name="Ellipse 53" cx="694.83" cy="11.234" rx="694.83" ry="11.234" transform="translate(0 614.12)" fill="#fa4252" opacity="0.1"/>
    <ellipse id="Ellipse_54" data-name="Ellipse 54" cx="694.83" cy="11.234" rx="694.83" ry="11.234" transform="translate(0 706.363)" fill="#fa4252" opacity="0.1"/>
    <ellipse id="Ellipse_55" data-name="Ellipse 55" cx="694.83" cy="11.234" rx="694.83" ry="11.234" transform="translate(0 421.609)" fill="#fa4252" opacity="0.1"/>
    <ellipse id="Ellipse_56" data-name="Ellipse 56" cx="694.83" cy="11.234" rx="694.83" ry="11.234" transform="translate(0 517.858)" fill="#fa4252" opacity="0.1"/>
    <path id="Path_386" data-name="Path 386" d="M875.481,279.527A23.2,23.2,0,0,0,862.041,281a19.843,19.843,0,0,1-16.153,0,22.671,22.671,0,0,0-19.019.368,11.72,11.72,0,0,1-5.465,1.369c-7.709,0-14.112-7.76-15.443-17.992a15.072,15.072,0,0,0,3.8-4.146c4.513-7.278,11.5-11.957,19.361-11.957s14.758,4.615,19.272,11.817a14.809,14.809,0,0,0,12.793,7.024h.2C867.594,267.418,872.907,272.338,875.481,279.527Z" transform="translate(150.014 -139.488)" fill="#fa4252" opacity="0.1"/>
    <path id="Path_387" data-name="Path 387" d="M898.956,253.435l-12.451,7.887,7.607-13.744a12.3,12.3,0,0,0-7.532-2.675h-.2a14.4,14.4,0,0,1-2.536-.19l-4.286,2.675,1.813-3.3a14.949,14.949,0,0,1-7.392-5.6l-7.607,4.793,4.767-8.673c-4.412-5.3-10.371-8.546-16.914-8.546-7.861,0-14.848,4.666-19.374,11.944a14.467,14.467,0,0,1-12.793,6.9h-.418c-8.673,0-15.7,9.827-15.7,21.948s7.024,21.961,15.7,21.961a11.9,11.9,0,0,0,5.464-1.369,22.646,22.646,0,0,1,19.02-.38,19.716,19.716,0,0,0,16.153,0,22.723,22.723,0,0,1,18.842.368,11.79,11.79,0,0,0,5.4,1.344c8.673,0,15.7-9.839,15.7-21.961A27.806,27.806,0,0,0,898.956,253.435Z" transform="translate(150.009 -145.539)" fill="#fa4252" opacity="0.1"/>
    <path id="Path_388" data-name="Path 388" d="M453.538,272.158a16.282,16.282,0,0,0-9.421,1.027,13.845,13.845,0,0,1-11.3,0,15.823,15.823,0,0,0-13.3.266,8.4,8.4,0,0,1-3.8.951c-5.389,0-9.877-5.427-10.816-12.591a10.551,10.551,0,0,0,2.7-2.9c3.157-5.072,8.052-8.368,13.554-8.368s10.334,3.233,13.491,8.267a10.384,10.384,0,0,0,8.964,4.92h.139C448.01,263.7,451.725,267.15,453.538,272.158Z" transform="translate(42.555 -138.979)" fill="#fa4252" opacity="0.1"/>
    <path id="Path_389" data-name="Path 389" d="M469.963,253.911l-8.711,5.528,5.287-9.624a8.56,8.56,0,0,0-5.262-1.876h-.152a9.5,9.5,0,0,1-1.8-.14l-2.954,1.877,1.268-2.308a10.524,10.524,0,0,1-5.173-3.918l-5.287,3.347,3.347-6.061a15.48,15.48,0,0,0-11.843-6c-5.5,0-10.4,3.271-13.554,8.368a10.144,10.144,0,0,1-8.965,4.831h-.291c-6.073,0-10.993,6.872-10.993,15.367s4.92,15.367,10.993,15.367a8.244,8.244,0,0,0,3.8-.964,15.85,15.85,0,0,1,13.288-.254,13.616,13.616,0,0,0,11.31.076,15.9,15.9,0,0,1,13.186.254,8.217,8.217,0,0,0,3.8.938c6.061,0,10.98-6.885,10.98-15.367A19.441,19.441,0,0,0,469.963,253.911Z" transform="translate(42.55 -143.213)" fill="#fa4252" opacity="0.1"/>
    <path id="Path_390" data-name="Path 390" d="M321.59,350.568A16.256,16.256,0,0,1,331,351.6a13.873,13.873,0,0,0,11.31,0,15.875,15.875,0,0,1,13.3.253,8.2,8.2,0,0,0,3.8.964c5.389,0,9.877-5.439,10.8-12.6a10.329,10.329,0,0,1-2.688-2.9c-3.17-5.072-8.064-8.356-13.554-8.356s-10.334,3.221-13.5,8.267a10.386,10.386,0,0,1-8.952,4.92h-.14C327.105,342.162,323.378,345.6,321.59,350.568Z" transform="translate(20.233 -117.971)" fill="#fa4252" opacity="0.1"/>
    <path id="Path_391" data-name="Path 391" d="M309.1,332.349l8.724,5.528-5.3-9.611a8.608,8.608,0,0,1,5.274-1.889h.14a10.8,10.8,0,0,0,1.813-.127l2.954,1.864-1.268-2.295A10.513,10.513,0,0,0,326.6,321.9l5.287,3.348-3.3-6.074a15.469,15.469,0,0,1,11.842-5.985c5.49,0,10.4,3.271,13.554,8.369a10.144,10.144,0,0,0,8.952,4.831h.3c6.061,0,10.98,6.885,10.98,15.367s-4.92,15.367-10.98,15.367a8.226,8.226,0,0,1-3.8-.951,15.825,15.825,0,0,0-13.3-.266,13.768,13.768,0,0,1-5.68,1.268,13.943,13.943,0,0,1-5.63-1.192,15.876,15.876,0,0,0-13.174.253,8.21,8.21,0,0,1-3.8.938c-6.073,0-10.993-6.872-10.993-15.367a19.581,19.581,0,0,1,2.244-9.459Z" transform="translate(16.286 -122.193)" fill="#fa4252" opacity="0.1"/>
    <path id="Path_392" data-name="Path 392" d="M719.317,681.42c3.309-6.136-.444-13.643-4.755-19.108s-9.586-11.157-9.471-18.119c.165-10,10.79-15.925,19.272-21.225a94.218,94.218,0,0,0,17.308-13.948,25.52,25.52,0,0,0,5.313-7.126c1.763-3.906,1.712-8.368,1.6-12.68q-.545-21.415-2.118-42.805" transform="translate(122.987 -59.705)" fill="none" stroke="#3f3d56" stroke-miterlimit="10" stroke-width="4"/>
    <path id="Path_393" data-name="Path 393" d="M757.043,549a15.608,15.608,0,0,0-7.8-12.793l-3.5,6.91.114-8.368A15.608,15.608,0,1,0,757.043,549Z" transform="translate(128.548 -63.001)" fill="#fa4252"/>
    <path id="Path_394" data-name="Path 394" d="M734.721,633.949a15.608,15.608,0,0,1-29.466-6.34,15.2,15.2,0,0,1,1.014-6.34,15.621,15.621,0,0,1,29.162.165l-9.75,7.937,10.727-2.536A15.523,15.523,0,0,1,734.721,633.949Z" transform="translate(123.026 -42.309)" fill="#fa4252"/>
    <path id="Path_395" data-name="Path 395" d="M725.864,611.864a15.608,15.608,0,0,1-4.945-30.62l-.089,6.428,3.538-7h0a15.612,15.612,0,1,1,1.458,31.191Z" transform="translate(124.175 -50.529)" fill="#fa4252"/>
    <path id="Path_396" data-name="Path 396" d="M755.769,591.973a15.608,15.608,0,1,1,6.9-29.163l-2.751,7.608,5.617-5.554a15.608,15.608,0,0,1-9.813,27.1Z" transform="translate(132.168 -55.856)" fill="#fa4252"/>
    <path id="Path_397" data-name="Path 397" d="M754.944,551.346c-3.6.393-7.1,1.509-10.728,1.737s-7.607-.646-9.864-3.449a49.873,49.873,0,0,1-2.891-5.072,11.1,11.1,0,0,0-3.931-3.7,15.608,15.608,0,1,0,29.163,10.371C756.123,551.244,755.527,551.282,754.944,551.346Z" transform="translate(128.543 -61.192)" opacity="0.1"/>
    <path id="Path_398" data-name="Path 398" d="M755.754,590.085a15.609,15.609,0,0,1-14.848-22.265,11.536,11.536,0,0,1,3.132,3.145,52.924,52.924,0,0,0,3.094,5.16c2.435,2.853,6.593,3.8,10.359,3.614s7.4-1.268,11.158-1.585c.52,0,1.04-.076,1.572-.088A15.609,15.609,0,0,1,755.754,590.085Z" transform="translate(132.183 -53.968)" opacity="0.1"/>
    <path id="Path_399" data-name="Path 399" d="M725.863,609.913a15.608,15.608,0,0,1-14.975-21.973,12.685,12.685,0,0,1,3.309,3.17,52.212,52.212,0,0,0,3.385,5.262c2.625,2.929,7.062,3.969,11.044,3.8s7.608-1.027,11.412-1.267A15.634,15.634,0,0,1,725.863,609.913Z" transform="translate(124.175 -48.577)" opacity="0.1"/>
    <path id="Path_400" data-name="Path 400" d="M734.721,631.849a15.608,15.608,0,0,1-29.466-6.34,15.2,15.2,0,0,1,1.014-6.34,15.572,15.572,0,0,1,3.423,3.056c1.484,1.8,2.46,3.8,4.184,5.541,3.183,3.131,8.343,4.425,12.92,4.539a65.413,65.413,0,0,0,7.924-.457Z" transform="translate(123.026 -40.209)" opacity="0.1"/>
    <path id="Path_401" data-name="Path 401" d="M109.317,609.42c3.309-6.137-.444-13.643-4.755-19.108s-9.586-11.183-9.472-18.118c.165-10,10.79-15.926,19.273-21.225a94.2,94.2,0,0,0,17.307-13.948,25.519,25.519,0,0,0,5.313-7.126c1.762-3.905,1.712-8.368,1.6-12.679q-.558-21.416-2.117-42.806" transform="translate(-40.455 -78.996)" fill="none" stroke="#3f3d56" stroke-miterlimit="10" stroke-width="4"/>
    <path id="Path_402" data-name="Path 402" d="M147.043,477a15.608,15.608,0,0,0-7.8-12.793l-3.5,6.91.114-8.368A15.608,15.608,0,1,0,147.043,477Z" transform="translate(-34.894 -82.292)" fill="#fa4252"/>
    <path id="Path_403" data-name="Path 403" d="M124.721,561.949a15.608,15.608,0,0,1-29.467-6.34,15.213,15.213,0,0,1,1.014-6.339,15.621,15.621,0,0,1,29.163.165l-9.75,7.937,10.727-2.536a15.519,15.519,0,0,1-1.686,7.113Z" transform="translate(-40.416 -61.601)" fill="#fa4252"/>
    <path id="Path_404" data-name="Path 404" d="M115.864,539.865a15.608,15.608,0,0,1-4.945-30.621l-.089,6.428,3.538-7h0a15.613,15.613,0,0,1,1.458,31.191Z" transform="translate(-39.268 -69.82)" fill="#fa4252"/>
    <path id="Path_405" data-name="Path 405" d="M145.769,519.972a15.608,15.608,0,1,1,6.9-29.163l-2.751,7.607,5.617-5.553a15.608,15.608,0,0,1-9.814,27.1Z" transform="translate(-31.274 -75.147)" fill="#fa4252"/>
    <path id="Path_406" data-name="Path 406" d="M144.943,479.346c-3.6.393-7.1,1.509-10.727,1.737s-7.608-.646-9.865-3.449a50.065,50.065,0,0,1-2.891-5.072,11.111,11.111,0,0,0-3.931-3.7,15.608,15.608,0,1,0,29.163,10.372C146.123,479.244,145.527,479.282,144.943,479.346Z" transform="translate(-34.899 -80.483)" opacity="0.1"/>
    <path id="Path_407" data-name="Path 407" d="M145.754,518.085a15.608,15.608,0,0,1-14.848-22.265,11.547,11.547,0,0,1,3.132,3.144,52.9,52.9,0,0,0,3.094,5.161c2.434,2.853,6.593,3.8,10.359,3.614s7.4-1.268,11.158-1.585c.52,0,1.04-.076,1.572-.089A15.608,15.608,0,0,1,145.754,518.085Z" transform="translate(-31.26 -73.26)" opacity="0.1"/>
    <path id="Path_408" data-name="Path 408" d="M115.863,537.913a15.608,15.608,0,0,1-14.974-21.973,12.683,12.683,0,0,1,3.309,3.169,52.314,52.314,0,0,0,3.385,5.263c2.625,2.928,7.062,3.968,11.044,3.8s7.608-1.027,11.411-1.268A15.634,15.634,0,0,1,115.863,537.913Z" transform="translate(-39.267 -67.869)" opacity="0.1"/>
    <path id="Path_409" data-name="Path 409" d="M124.721,559.849a15.608,15.608,0,0,1-29.467-6.34,15.214,15.214,0,0,1,1.014-6.34,15.572,15.572,0,0,1,3.424,3.056c1.483,1.8,2.46,3.8,4.184,5.541,3.183,3.132,8.343,4.425,12.92,4.539A65.669,65.669,0,0,0,124.721,559.849Z" transform="translate(-40.416 -59.501)" opacity="0.1"/>
    <path id="Path_410" data-name="Path 410" d="M518.712,527.044c-3.309-6.124.444-13.63,4.768-19.095s9.573-11.158,9.459-18.119c-.152-10.017-10.778-15.925-19.272-21.225a93.805,93.805,0,0,1-17.295-13.947,25.079,25.079,0,0,1-5.325-7.113c-1.75-3.918-1.7-8.368-1.6-12.679q.57-21.416,2.118-42.806" transform="translate(65.198 -101.061)" fill="none" stroke="#3f3d56" stroke-miterlimit="10" stroke-width="4"/>
    <path id="Path_411" data-name="Path 411" d="M478.393,394.635a15.6,15.6,0,0,1,7.785-12.793l3.5,6.91-.1-8.369a16.018,16.018,0,0,1,5.135-.621,15.608,15.608,0,1,1-16.319,14.873Z" transform="translate(62.243 -104.36)" fill="#fa4252"/>
    <path id="Path_412" data-name="Path 412" d="M500.7,479.615a15.608,15.608,0,1,0-.749-12.565l9.751,7.937-10.727-2.536A15.511,15.511,0,0,0,500.7,479.615Z" transform="translate(67.763 -83.694)" fill="#fa4252"/>
    <path id="Path_413" data-name="Path 413" d="M509.564,457.505a15.608,15.608,0,0,0,4.958-30.621l.076,6.428-3.538-7h0A15.607,15.607,0,0,0,494.7,441.136a15.4,15.4,0,0,0,.672,5.325A15.6,15.6,0,0,0,509.564,457.505Z" transform="translate(66.612 -91.888)" fill="#fa4252"/>
    <path id="Path_414" data-name="Path 414" d="M479.693,437.592a15.608,15.608,0,1,0-6.91-29.163l2.764,7.608-5.68-5.439a15.48,15.48,0,0,0-5.072,10.777,15.1,15.1,0,0,0,.393,4.3,15.6,15.6,0,0,0,14.505,11.918Z" transform="translate(58.598 -97.22)" fill="#fa4252"/>
    <path id="Path_415" data-name="Path 415" d="M480.42,396.986c3.6.393,7.1,1.509,10.714,1.737s7.608-.647,9.877-3.449a49.885,49.885,0,0,0,2.878-5.072,11.142,11.142,0,0,1,3.944-3.7,15.608,15.608,0,1,1-29.163,10.359C479.24,396.872,479.824,396.922,480.42,396.986Z" transform="translate(62.321 -102.551)" opacity="0.1"/>
    <path id="Path_416" data-name="Path 416" d="M479.6,435.705a15.621,15.621,0,0,0,14.847-22.265,11.612,11.612,0,0,0-3.144,3.145,52.814,52.814,0,0,1-3.094,5.16c-2.422,2.853-6.58,3.8-10.346,3.614s-7.405-1.268-11.158-1.585c-.52,0-1.052-.076-1.572-.089A15.6,15.6,0,0,0,479.6,435.705Z" transform="translate(58.693 -95.332)" opacity="0.1"/>
    <path id="Path_417" data-name="Path 417" d="M509.416,455.553A15.6,15.6,0,0,0,524.39,433.58a12.462,12.462,0,0,0-3.3,3.17,52.239,52.239,0,0,1-3.386,5.262c-2.637,2.929-7.062,3.969-11.056,3.8s-7.608-1.027-11.411-1.268A15.6,15.6,0,0,0,509.416,455.553Z" transform="translate(66.761 -89.936)" opacity="0.1"/>
    <path id="Path_418" data-name="Path 418" d="M500.34,477.49a15.608,15.608,0,0,0,28.465-12.679,14.985,14.985,0,0,0-3.423,3.056c-1.484,1.8-2.536,3.8-4.185,5.541-3.2,3.132-8.343,4.425-12.933,4.539A68.327,68.327,0,0,1,500.34,477.49Z" transform="translate(68.127 -81.569)" opacity="0.1"/>
    <circle id="Ellipse_57" data-name="Ellipse 57" cx="126.743" cy="126.743" r="126.743" transform="translate(861.906 175.35)" fill="#3f3d56"/>
    <path id="Path_419" data-name="Path 419" d="M898.345,445.705c-4.413-4.413-15.025-11.069-20.288-13.554-6.073-2.917-8.3-2.866-12.6.241-3.576,2.536-5.9,4.983-10,4.083s-12.248-7.037-20.122-14.886-13.985-15.938-14.861-20.109,1.535-6.441,4.1-10.017c3.093-4.3,3.183-6.53.241-12.6-2.536-5.262-9.117-15.849-13.567-20.287s-5.415-3.461-7.849-2.536a45.406,45.406,0,0,0-7.189,3.8c-4.413,2.954-6.885,5.414-8.622,9.117s-3.7,10.574,6.4,28.567A159.377,159.377,0,0,0,822,434.89h0a159.625,159.625,0,0,0,37.493,28.072c17.979,10.143,24.864,8.127,28.567,6.4s6.162-4.172,9.1-8.622a44.676,44.676,0,0,0,3.8-7.189C901.806,451.119,902.795,450.13,898.345,445.705Z" transform="translate(144.712 -110.924)" fill="#fa4252"/>
    <path id="Path_420" data-name="Path 420" d="M858.537,300.86a126.794,126.794,0,1,0,126.73,126.751A126.793,126.793,0,0,0,858.537,300.86Zm0,236.622A109.892,109.892,0,1,1,968.429,427.59,109.891,109.891,0,0,1,858.537,537.482Z" transform="translate(130.112 -125.497)" opacity="0.1"/>
    <circle id="Ellipse_58" data-name="Ellipse 58" cx="126.743" cy="126.743" r="126.743" transform="translate(570.724 367.861)" fill="#3f3d56"/>
    <path id="Path_421" data-name="Path 421" d="M689.66,522.5l-37.95,38.609a.685.685,0,0,0,0,.989l26.627,28.313a4.581,4.581,0,1,1-6.479,6.478L645.37,568.675a.723.723,0,0,0-1.015,0l-6.453,6.517a28.363,28.363,0,0,1-20.287,8.533,28.987,28.987,0,0,1-20.642-8.774l-6.2-6.34a.724.724,0,0,0-1.015,0l-26.424,28.148a4.581,4.581,0,1,1-6.479-6.479l26.525-28.25a.761.761,0,0,0,0-.989l-37.949-38.609a.7.7,0,0,0-1.192.494v77.255a11.31,11.31,0,0,0,11.272,11.272H679.6a11.31,11.31,0,0,0,11.272-11.272V522.991a.7.7,0,0,0-1.217-.495Z" transform="translate(79.89 -66.184)" fill="#fa4252"/>
    <path id="Path_422" data-name="Path 422" d="M616.664,577.13a19.194,19.194,0,0,0,13.846-5.706l55.269-56.258a11.029,11.029,0,0,0-6.973-2.536H554.623a10.951,10.951,0,0,0-6.973,2.536l55.282,56.258A19.122,19.122,0,0,0,616.664,577.13Z" transform="translate(80.803 -68.756)" fill="#fa4252"/>
    <path id="Path_423" data-name="Path 423" d="M627.627,452.69a126.794,126.794,0,1,0,126.73,126.751A126.794,126.794,0,0,0,627.627,452.69Zm0,236.623A109.892,109.892,0,1,1,737.52,579.42,109.892,109.892,0,0,1,627.627,689.313Z" transform="translate(68.242 -84.816)" opacity="0.1"/>
    <circle id="Ellipse_59" data-name="Ellipse 59" cx="126.743" cy="126.743" r="126.743" transform="translate(269.931 273.21)" fill="#3f3d56"/>
    <path id="Path_424" data-name="Path 424" d="M375.527,430.16,325,546.734l4.717,4.717L375.54,531.24l45.823,20.211,4.717-4.717Z" transform="translate(21.147 -90.852)" fill="#fa4252"/>
    <path id="Path_425" data-name="Path 425" d="M391.657,378a126.72,126.72,0,1,0,.021,0Zm0,236.622a90.349,90.349,0,1,1,.013.051Z" transform="translate(5.017 -104.828)" opacity="0.1"/>
    <path id="Path_428" data-name="Path 428" d="M833.171,726.527S830.179,732,812.745,734c-9.054,1.027-9.117-.609-7.076-2.435a31.538,31.538,0,0,1,5.579-3.55s6.479-4.476,7.468-7.468,4.488-.495,4.488-.495c4.983,7.468,5.985-2,6.974-1a22.5,22.5,0,0,1,2.295,5.338C832.892,725.589,833.171,726.527,833.171,726.527Z" transform="translate(149.645 -13.469)" fill="#ff6f61"/>
    <path id="Path_429" data-name="Path 429" d="M833.171,725.383s-2.992,5.478-20.426,7.468c-9.054,1.027-9.117-.609-7.076-2.435,1.42.9,4.286,1.269,10.055-1.052,8.3-3.4,14.328-5.363,16.75-6.124C832.892,724.444,833.171,725.383,833.171,725.383Z" transform="translate(149.645 -12.325)" opacity="0.1"/>
    <path id="Path_440" data-name="Path 440" d="M843.9,732.145c0,1-1.99,3.487-1.99,3.487a24.665,24.665,0,0,1-11.957-1.5c-1-.494.495-3.486.495-3.486l.114-.241a12.114,12.114,0,0,1,1.89-3.246c.989-.989,1.585-5.072,1.585-5.072,3.093-5.072,8.584,2.194,8.584,2.194s.7,3.8,1.065,6.111A17.4,17.4,0,0,1,843.9,732.145Z" transform="translate(156.35 -13.115)" fill="#ff6f61"/>
    <path id="Path_441" data-name="Path 441" d="M843.9,730.015c0,1-1.99,3.487-1.99,3.487a24.676,24.676,0,0,1-11.957-1.5c-1-.5.495-3.487.495-3.487l.114-.241a24.107,24.107,0,0,0,10.854,2.231l2.27-2.271C843.812,729.089,843.9,729.762,843.9,730.015Z" transform="translate(156.35 -10.985)" opacity="0.1"/>
    <path id="Path_454" data-name="Path 454" d="M891.4,605.527c3.31-6.124-.443-13.643-4.768-19.108s-9.573-11.145-9.458-18.119c.152-10,10.777-15.913,19.272-21.225a93.686,93.686,0,0,0,17.295-13.948,25.277,25.277,0,0,0,5.326-7.113c1.75-3.918,1.7-8.369,1.6-12.679q-.557-21.428-2.117-42.806" transform="translate(169.094 -80.036)" fill="none" stroke="#3f3d56" stroke-miterlimit="10" stroke-width="4"/>
    <path id="Path_455" data-name="Path 455" d="M929.113,473.074a15.582,15.582,0,0,0-7.785-12.781l-3.5,6.91.1-8.368a15.315,15.315,0,0,0-5.135-.621,15.608,15.608,0,1,0,16.318,14.86Z" transform="translate(174.652 -83.341)" fill="#fa4252"/>
    <path id="Path_456" data-name="Path 456" d="M906.8,558.067a15.608,15.608,0,1,1,.749-12.578l-9.75,7.937,10.727-2.536A15.513,15.513,0,0,1,906.8,558.067Z" transform="translate(169.132 -62.676)" fill="#fa4252"/>
    <path id="Path_457" data-name="Path 457" d="M897.946,535.942a15.608,15.608,0,0,1-4.958-30.621l-.076,6.428,3.537-6.987h0a15.613,15.613,0,1,1,1.458,31.191Z" transform="translate(170.278 -70.868)" fill="#fa4252"/>
    <path id="Path_458" data-name="Path 458" d="M927.836,516.062a15.608,15.608,0,1,1,6.91-29.162l-2.765,7.608,5.681-5.452a15.521,15.521,0,0,1,5.072,10.777,15.085,15.085,0,0,1-.394,4.3A15.608,15.608,0,0,1,927.836,516.062Z" transform="translate(178.275 -76.195)" fill="#fa4252"/>
    <path id="Path_459" data-name="Path 459" d="M927.024,475.426c-3.6.405-7.113,1.521-10.727,1.749s-7.607-.647-9.877-3.461a48.356,48.356,0,0,1-2.878-5.072,11.222,11.222,0,0,0-3.931-3.7A15.608,15.608,0,1,0,928.774,475.3C928.191,475.324,927.607,475.363,927.024,475.426Z" transform="translate(174.648 -81.534)" opacity="0.1"/>
    <path id="Path_460" data-name="Path 460" d="M927.822,514.175a15.621,15.621,0,0,1-14.848-22.265,11.541,11.541,0,0,1,3.145,3.132,49.993,49.993,0,0,0,3.093,5.161c2.422,2.865,6.581,3.8,10.347,3.626s7.4-1.268,11.158-1.585c.52,0,1.053-.088,1.572-.1A15.608,15.608,0,0,1,927.822,514.175Z" transform="translate(178.289 -74.307)" opacity="0.1"/>
    <path id="Path_461" data-name="Path 461" d="M897.947,534a15.6,15.6,0,0,1-14.975-22,12.866,12.866,0,0,1,3.3,3.17c1.268,1.712,1.965,3.69,3.386,5.262,2.637,2.942,7.062,3.969,11.056,3.88s7.608-1.04,11.411-1.332A15.608,15.608,0,0,1,897.947,534Z" transform="translate(170.278 -68.924)" opacity="0.1"/>
    <path id="Path_462" data-name="Path 462" d="M906.783,555.939a15.621,15.621,0,0,1-28.466-12.679,15.282,15.282,0,0,1,3.424,3.056c1.5,1.813,2.473,3.8,4.185,5.554,3.2,3.132,8.343,4.413,12.933,4.539A68.285,68.285,0,0,0,906.783,555.939Z" transform="translate(169.151 -60.549)" opacity="0.1"/>
    <path id="Path_463" data-name="Path 463" d="M1050.4,757.527c3.309-6.124-.444-13.643-4.768-19.108s-9.574-11.145-9.459-18.119c.152-10,10.778-15.913,19.272-21.225a93.684,93.684,0,0,0,17.295-13.948,25.266,25.266,0,0,0,5.325-7.113c1.75-3.918,1.7-8.369,1.6-12.68q-.546-21.428-2.118-42.805" transform="translate(211.696 -39.309)" fill="none" stroke="#3f3d56" stroke-miterlimit="10" stroke-width="4"/>
    <path id="Path_464" data-name="Path 464" d="M1088.1,625.074a15.587,15.587,0,0,0-7.785-12.781l-3.5,6.911.1-8.368a15.3,15.3,0,0,0-5.072-.622,15.608,15.608,0,1,0,16.319,14.86Z" transform="translate(217.268 -42.614)" fill="#fa4252"/>
    <path id="Path_465" data-name="Path 465" d="M1065.8,710.067a15.608,15.608,0,1,1,.748-12.579l-9.75,7.938,10.726-2.536a15.514,15.514,0,0,1-1.723,7.177Z" transform="translate(211.734 -21.95)" fill="#fa4252"/>
    <path id="Path_466" data-name="Path 466" d="M1056.948,687.942a15.608,15.608,0,0,1-4.958-30.621l-.078,6.428,3.539-6.986h0a15.613,15.613,0,1,1,1.458,31.191Z" transform="translate(212.88 -30.141)" fill="#fa4252"/>
    <path id="Path_467" data-name="Path 467" d="M1086.836,668.063a15.608,15.608,0,1,1,6.91-29.162l-2.764,7.607,5.681-5.452a15.519,15.519,0,0,1,5.071,10.777,15.1,15.1,0,0,1-.393,4.3A15.608,15.608,0,0,1,1086.836,668.063Z" transform="translate(220.876 -35.468)" fill="#fa4252"/>
    <path id="Path_468" data-name="Path 468" d="M1086.023,627.425c-3.6.406-7.113,1.522-10.726,1.75s-7.607-.647-9.878-3.462a48.506,48.506,0,0,1-2.877-5.072,11.223,11.223,0,0,0-3.931-3.7,15.609,15.609,0,1,0,29.163,10.359C1087.19,627.324,1086.607,627.362,1086.023,627.425Z" transform="translate(217.252 -40.807)" opacity="0.1"/>
    <path id="Path_469" data-name="Path 469" d="M1086.823,666.175a15.622,15.622,0,0,1-14.848-22.265,11.534,11.534,0,0,1,3.145,3.131,50.036,50.036,0,0,0,3.094,5.161c2.421,2.866,6.581,3.8,10.347,3.627s7.4-1.268,11.158-1.585c.519,0,1.052-.089,1.571-.1A15.608,15.608,0,0,1,1086.823,666.175Z" transform="translate(220.89 -33.581)" opacity="0.1"/>
    <path id="Path_470" data-name="Path 470" d="M1056.947,686a15.6,15.6,0,0,1-14.974-22,12.857,12.857,0,0,1,3.3,3.17c1.269,1.712,1.966,3.69,3.386,5.262,2.638,2.942,7.063,3.969,11.057,3.88s7.606-1.04,11.411-1.331A15.607,15.607,0,0,1,1056.947,686Z" transform="translate(212.88 -28.198)" opacity="0.1"/>
    <path id="Path_471" data-name="Path 471" d="M1065.783,707.939a15.621,15.621,0,0,1-28.466-12.68,15.31,15.31,0,0,1,3.424,3.056c1.5,1.813,2.535,3.8,4.184,5.553,3.195,3.132,8.343,4.413,12.933,4.54A68.611,68.611,0,0,0,1065.783,707.939Z" transform="translate(211.753 -19.822)" opacity="0.1"/>
    <path id="Path_472" data-name="Path 472" d="M565.924,595.434a12.438,12.438,0,0,0-4.958-10.042,14.582,14.582,0,0,0-12.185-14.3,14.556,14.556,0,0,0-9.7-10.841h0a12.4,12.4,0,0,0-1.8-.418h-2.143a14.278,14.278,0,0,0-13.795,12.2c-4.451-1.027-8.521.3-9.269,3.119a3.8,3.8,0,0,0,.127,2.257c.761,2.181,3.233,4.273,6.542,5.3l.431.127.646.165h.139A11.21,11.21,0,0,0,518.9,587.8a11.083,11.083,0,0,0,5.972,9.89l-.292.177a3.951,3.951,0,0,0-.963,1.344,20.1,20.1,0,0,0-1.864,4.488c-.317,1.344-.368,2.739-.761,4.071-.736,2.447-2.612,4.514-2.828,7.063-.1,1.141.089,2.536-.723,3.271a4.014,4.014,0,0,1-.647.457,5.233,5.233,0,0,0-1.407,1.483,4.918,4.918,0,0,1-.989,1.42c-.735.545-1.94.494-2.295,1.344s.571,1.851.355,2.777-1,1.1-1.572,1.623a5.642,5.642,0,0,0-1.357,2.536,8.318,8.318,0,0,1-6.847-1.75,12.782,12.782,0,0,1,.71,2.536,11.1,11.1,0,0,0-3.69-1.851,11.651,11.651,0,0,1-3.93-2.916l2.1-.292-9.294-14.188-2.751-.571,2.46,4.729a1.509,1.509,0,0,0-.837,1,4.3,4.3,0,0,0-.089,1.61,28.8,28.8,0,0,0,.634,3.8l.71,3.322c.063.3.139.621.228.926a8.722,8.722,0,0,0-2.751.3,23.925,23.925,0,0,0-5.718-1.357,3.16,3.16,0,0,0-1.268,0,3.277,3.277,0,0,0-1.2.976,38.948,38.948,0,0,0-4.248,5.984c-5.072,8.7-11.678,16.293-17.928,24.154-4.311,1.75-8.66,3.411-13.009,5.072l-9.357,3.576a14.179,14.179,0,0,1-5.807,1.268c-.887,0-1.991-.19-2.536.571a5.328,5.328,0,0,0-.571,1.268l-.964.1h0a11.074,11.074,0,0,0-2.244-4.133,1.42,1.42,0,0,0-1.052.811c-.228.419-.368.875-.634,1.268-.494.735-1.369,1.09-1.99,1.712s-1.014,1.585-1.7,2.219a6.728,6.728,0,0,1-3.183,1.268,20.056,20.056,0,0,0-4.983,1.889,8.044,8.044,0,0,1-1.838.849,6.9,6.9,0,0,1-2.168.076l-4.945-.368a3.917,3.917,0,0,0-1.331.063,2.536,2.536,0,0,0-1.572,2.535,3.994,3.994,0,0,0,1.572,2.727,10.065,10.065,0,0,0,2.815,1.458,82.728,82.728,0,0,0,13.187,3.906v1a22.515,22.515,0,0,0,10.143,2.409,1.573,1.573,0,0,0,.761-.139,1.676,1.676,0,0,0,.634-.989,40.8,40.8,0,0,0,1.978-9.713h0a5.066,5.066,0,0,0,1.788-.456c1.7-.469,3.4.7,5.161.887,2.168.241,4.171-1.027,6.225-1.8l.888-.292a9.727,9.727,0,0,1-2.054,1.965c-.85.609-1.8,1.066-2.625,1.7a18.1,18.1,0,0,1-2.232,1.724,14.087,14.087,0,0,1-1.712.659,11.277,11.277,0,0,0-2.447,1.268,4.953,4.953,0,0,0-1.661,1.623,2.435,2.435,0,0,0-.139,2.282,2.408,2.408,0,0,0,1.636,1.141,6.691,6.691,0,0,0,2.016,0c2.688-.2,5.364-.443,8.039-.685a21.487,21.487,0,0,0,3.36-.482c.583-.139,1.166-.33,1.75-.495a15.6,15.6,0,0,1,3.056-.456,2.538,2.538,0,0,1,.887.089c.621.2,1.065.837,1.7.964a2.531,2.531,0,0,0,1.268-.165,28.277,28.277,0,0,1,5.947-.634,2.453,2.453,0,0,0,2.307-1.027c.406-.812-.33-2.117-.659-3.2a9.777,9.777,0,0,1-.279-2.1,13.18,13.18,0,0,0-1.471-5,13.028,13.028,0,0,1-1.1-2.282,57.632,57.632,0,0,0,10.942-5.553,19.553,19.553,0,0,1,6.238-3,16.969,16.969,0,0,1,7.836.912,178.369,178.369,0,0,1,17.967,6.264c2.8,1.154,5.592,2.371,8.482,3.246a13.228,13.228,0,0,0,3.018,2.929,13.957,13.957,0,0,0,6.53,1.788,85.774,85.774,0,0,0,9.193.342,15.5,15.5,0,0,0,6.847-1.268,7.013,7.013,0,0,0,1.433-.951,5.677,5.677,0,0,0,4.514-1.661,10.936,10.936,0,0,0,3.436-5.427c.748-2.891.177-6.34,1.953-8.647.469-.634,1.09-1.141,1.56-1.775a5,5,0,0,0,.812-2.929.587.587,0,0,1,.076-.114,10.743,10.743,0,0,0,.761-2.917,16.655,16.655,0,0,1,.824-2.307,71.317,71.317,0,0,0,2.358-6.834,39.932,39.932,0,0,0,1.09-4.692c.19-1.268.3-2.536.406-3.8a23.613,23.613,0,0,1,1.154-5.871,47.779,47.779,0,0,0,2.663-14.049V615.5a9.421,9.421,0,0,0,8.343-9.585,10,10,0,0,0-.875-4.1A12.676,12.676,0,0,0,565.924,595.434Zm-45.367,55.117c.139.5.3.977.469,1.459-.748-.723-1.471-1.471-2.219-2.206.292.1.6.19.875.3a4.722,4.722,0,0,1,.837.443Zm-3.588-2.434c-4.387-3.8-9.459-6.758-13.947-10.447,2.447,1.2,4.831,2.612,7.189,3.956q4.2,2.4,8.508,4.6a6.962,6.962,0,0,1-1.788,1.889Zm1.864-9.585.216-.216v1.509l-1.179-.406a10.482,10.482,0,0,0,.926-.887ZM480.249,648.8a36.3,36.3,0,0,0,4.666-6.657c1.737,3.031,4.564,5.224,6.961,7.772C488.009,649.422,484.129,649,480.249,648.8Z" transform="translate(40.15 -56.109)" fill="url(#linear-gradient)"/>
    <path id="Path_473" data-name="Path 473" d="M415.35,438.25l2.764.558,9.421,13.934-4.146.558Z" transform="translate(111.288 117.52)" fill="#2f2e41"/>
    <path id="Path_474" data-name="Path 474" d="M414.49,645.489a54.133,54.133,0,0,0,2.764,7.189,68.411,68.411,0,0,0,9.192-2.625,28.857,28.857,0,0,0-1.914-2.536,9.457,9.457,0,0,0-2.6-1.99,7.147,7.147,0,0,0-3.157,0C417.355,645.489,415.923,645.514,414.49,645.489Z" transform="translate(45.125 -33.195)" fill="#fbbebe"/>
    <path id="Path_475" data-name="Path 475" d="M426.951,650.049a5.732,5.732,0,0,1-3.144-3.576,11.521,11.521,0,0,0-2.4-4.273,1.37,1.37,0,0,0-1.065.8c-.229.406-.368.863-.621,1.268-.507.723-1.395,1.078-2.029,1.686s-1.014,1.56-1.7,2.181a6.753,6.753,0,0,1-3.208,1.268,20.788,20.788,0,0,0-5.072,1.864,8.776,8.776,0,0,1-1.864.837,7.4,7.4,0,0,1-2.181,0l-5-.355a3.9,3.9,0,0,0-1.268,0,2.422,2.422,0,0,0-1.585,2.536,3.806,3.806,0,0,0,1.585,2.688,10.519,10.519,0,0,0,2.84,1.446,83.633,83.633,0,0,0,13.389,3.8v.989a23.175,23.175,0,0,0,10.207,2.371,1.725,1.725,0,0,0,.761-.126,1.675,1.675,0,0,0,.634-.99,39.549,39.549,0,0,0,2.092-10.854,8.642,8.642,0,0,0-.216-2.8c-.279-.9.659-.52-.2-.875" transform="translate(40.119 -34.039)" fill="#2f2e41"/>
    <path id="Path_476" data-name="Path 476" d="M516.71,634.375c-14.809.888-29.441-3.448-44.277-3.905a21.627,21.627,0,0,0-5.5.342,27.744,27.744,0,0,0-5.452,2.117c-7.95,3.7-16.179,6.771-24.4,9.827l-9.446,3.512a14.312,14.312,0,0,1-5.845,1.268c-.9,0-2-.19-2.536.558-1.534,2.282-.812,5.617.2,8.178.33.824.888,1.725,1.775,1.813a5.157,5.157,0,0,0,1.8-.457c1.711-.456,3.423.7,5.2.888,2.18.228,4.209-1.014,6.276-1.775,3.423-1.268,7.151-1.268,10.752-1.826,6.022-1,11.614-3.8,16.838-6.986a19.652,19.652,0,0,1,6.277-2.967,17.374,17.374,0,0,1,7.9.9,181.485,181.485,0,0,1,18.118,6.162,84.266,84.266,0,0,0,9.459,3.462,34.227,34.227,0,0,0,21.213-1.268c2.371-.938,4.945-2.536,5.072-5.148.089-1.458-1.052-2.739-1.8-3.994-.482-.8-.976-1.6-1.5-2.371C524.305,639.029,521.211,634.109,516.71,634.375Z" transform="translate(46.165 -37.194)" fill="#2f2e41"/>
    <path id="Path_477" data-name="Path 477" d="M516.71,634.375c-14.809.888-29.441-3.448-44.277-3.905a21.627,21.627,0,0,0-5.5.342,27.744,27.744,0,0,0-5.452,2.117c-7.95,3.7-16.179,6.771-24.4,9.827l-9.446,3.512a14.312,14.312,0,0,1-5.845,1.268c-.9,0-2-.19-2.536.558-1.534,2.282-.812,5.617.2,8.178.33.824.888,1.725,1.775,1.813a5.157,5.157,0,0,0,1.8-.457c1.711-.456,3.423.7,5.2.888,2.18.228,4.209-1.014,6.276-1.775,3.423-1.268,7.151-1.268,10.752-1.826,6.022-1,11.614-3.8,16.838-6.986a19.652,19.652,0,0,1,6.277-2.967,17.374,17.374,0,0,1,7.9.9,181.485,181.485,0,0,1,18.118,6.162,84.266,84.266,0,0,0,9.459,3.462,34.227,34.227,0,0,0,21.213-1.268c2.371-.938,4.945-2.536,5.072-5.148.089-1.458-1.052-2.739-1.8-3.994-.482-.8-.976-1.6-1.5-2.371C524.305,639.029,521.211,634.109,516.71,634.375Z" transform="translate(46.165 -37.194)" opacity="0.1"/>
    <path id="Path_478" data-name="Path 478" d="M436.92,647.3q3.474,1.18,7.012,2.181c1.268-2.168,3.8-3.677,4.349-6.162a.577.577,0,0,0,0-.329.609.609,0,0,0-.266-.241,13.3,13.3,0,0,0-5.5-1.61c-1.521-.089-2.219,1.5-2.9,2.612C439.342,644.247,437.542,647.544,436.92,647.3Z" transform="translate(51.135 -34.324)" fill="#fbbebe"/>
    <path id="Path_479" data-name="Path 479" d="M444.319,645.523a5.072,5.072,0,0,1-3.411-2.244c-.317-.571-.672-1.344-1.331-1.268s-.875.761-1.014,1.357a38.04,38.04,0,0,1-1.915,6.581,12.345,12.345,0,0,1-4.1,5.389c-.862.6-1.813,1.04-2.663,1.674a18.35,18.35,0,0,1-2.244,1.7,13.352,13.352,0,0,1-1.724.634,11.917,11.917,0,0,0-2.46,1.269,4.877,4.877,0,0,0-1.687,1.61,2.321,2.321,0,0,0-.127,2.245,2.4,2.4,0,0,0,1.636,1.116,6.91,6.91,0,0,0,2.042,0c2.7-.19,5.4-.431,8.1-.672a23.337,23.337,0,0,0,3.385-.469l1.762-.482a14.039,14.039,0,0,1,3.081-.457,2.406,2.406,0,0,1,.9.089c.622.2,1.065.824,1.712.951a2.863,2.863,0,0,0,1.268-.165,27.973,27.973,0,0,1,6-.621,2.532,2.532,0,0,0,2.333-1.014c.508-.989-.33-2.092-.672-3.157a10.131,10.131,0,0,1-.279-2.066,12.615,12.615,0,0,0-1.483-4.92c-.685-1.267-1.623-2.663-1.141-4.006a3.8,3.8,0,0,0,.456-1.382C450.557,645.029,445.562,645.8,444.319,645.523Z" transform="translate(46.981 -34.091)" fill="#2f2e41"/>
    <path id="Path_480" data-name="Path 480" d="M481.056,617.552a11.563,11.563,0,0,1-5.909-5.858c-.241-.558-.444-1.153-.685-1.711a13.01,13.01,0,0,0-3.525-4.907,1.736,1.736,0,0,0-1.268-.545,1.382,1.382,0,0,0-.951,1.027,3.929,3.929,0,0,0-.1,1.585,28.207,28.207,0,0,0,.634,3.7l.723,3.271a7.144,7.144,0,0,0,.444,1.458,5.068,5.068,0,0,0,1.2,1.432c.659.609,1.331,1.192,2,1.775a6.878,6.878,0,0,0,1.268.875,7.355,7.355,0,0,0,2.244.659,19.1,19.1,0,0,1,8.419,3.247v-2.435a3.219,3.219,0,0,0-.634-1.762A11.246,11.246,0,0,0,481.056,617.552Z" transform="translate(59.618 -44.132)" fill="#fbbebe"/>
    <path id="Path_481" data-name="Path 481" d="M481.056,617.552a11.563,11.563,0,0,1-5.909-5.858c-.241-.558-.444-1.153-.685-1.711a13.01,13.01,0,0,0-3.525-4.907,1.736,1.736,0,0,0-1.268-.545,1.382,1.382,0,0,0-.951,1.027,3.929,3.929,0,0,0-.1,1.585,28.207,28.207,0,0,0,.634,3.7l.723,3.271a7.144,7.144,0,0,0,.444,1.458,5.068,5.068,0,0,0,1.2,1.432c.659.609,1.331,1.192,2,1.775a6.878,6.878,0,0,0,1.268.875,7.355,7.355,0,0,0,2.244.659,19.1,19.1,0,0,1,8.419,3.247v-2.435a3.219,3.219,0,0,0-.634-1.762A11.246,11.246,0,0,0,481.056,617.552Z" transform="translate(59.618 -44.132)" opacity="0.1"/>
    <ellipse id="Ellipse_62" data-name="Ellipse 62" cx="3.601" cy="3.626" rx="3.601" ry="3.626" transform="translate(567.225 541.138)" fill="#2f2e41"/>
    <path id="Path_482" data-name="Path 482" d="M505.7,590.5a3.894,3.894,0,0,0-2.84.406,3.944,3.944,0,0,0-.976,1.331,19.354,19.354,0,0,0-1.877,4.412c-.317,1.268-.368,2.7-.773,4.007-.736,2.409-2.625,4.451-2.84,6.961-.1,1.129.089,2.448-.735,3.208a4.689,4.689,0,0,1-.647.469,4.871,4.871,0,0,0-1.42,1.458,4.776,4.776,0,0,1-1,1.382c-.735.546-1.952.495-2.308,1.268s.571,1.825.355,2.739-1.014,1.09-1.585,1.6a5.541,5.541,0,0,0-1.369,2.536,8.456,8.456,0,0,1-6.9-1.712,21.956,21.956,0,0,1,1.078,7.887,3.22,3.22,0,0,1-.634,2.434,43.91,43.91,0,0,1,8.458,1.471,5.833,5.833,0,0,0,3.689,0,6.161,6.161,0,0,0,1.7-1.344c1.522-1.547,3.119-3.233,3.487-5.376A31.478,31.478,0,0,0,498.63,622a20.523,20.523,0,0,1,.926-4.425,52.661,52.661,0,0,0,1.61-9.1c.165-1.9,1.813-3.423,2.675-5.072,1.623-3.208,3.3-6.542,3.411-10.143C507.3,592.088,506.9,590.63,505.7,590.5Z" transform="translate(62.889 -47.919)" fill="#2f2e41"/>
    <path id="Path_483" data-name="Path 483" d="M505.7,590.5a3.894,3.894,0,0,0-2.84.406,3.944,3.944,0,0,0-.976,1.331,19.354,19.354,0,0,0-1.877,4.412c-.317,1.268-.368,2.7-.773,4.007-.736,2.409-2.625,4.451-2.84,6.961-.1,1.129.089,2.448-.735,3.208a4.689,4.689,0,0,1-.647.469,4.871,4.871,0,0,0-1.42,1.458,4.776,4.776,0,0,1-1,1.382c-.735.546-1.952.495-2.308,1.268s.571,1.825.355,2.739-1.014,1.09-1.585,1.6a5.541,5.541,0,0,0-1.369,2.536,8.456,8.456,0,0,1-6.9-1.712,21.956,21.956,0,0,1,1.078,7.887,3.22,3.22,0,0,1-.634,2.434,43.91,43.91,0,0,1,8.458,1.471,5.833,5.833,0,0,0,3.689,0,6.161,6.161,0,0,0,1.7-1.344c1.522-1.547,3.119-3.233,3.487-5.376A31.478,31.478,0,0,0,498.63,622a20.523,20.523,0,0,1,.926-4.425,52.661,52.661,0,0,0,1.61-9.1c.165-1.9,1.813-3.423,2.675-5.072,1.623-3.208,3.3-6.542,3.411-10.143C507.3,592.088,506.9,590.63,505.7,590.5Z" transform="translate(62.889 -47.919)" opacity="0.1"/>
    <path id="Path_484" data-name="Path 484" d="M513.407,642.445c-3.081-1.471-5.338-4.2-7.835-6.542-4.755-4.476-10.574-7.608-15.583-11.83-3.322-2.777-6.34-6.01-9.927-8.343a24.82,24.82,0,0,0-10.638-3.715,2.828,2.828,0,0,0-1.268,0,2.912,2.912,0,0,0-1.2.951,38.277,38.277,0,0,0-4.3,5.9c-6.34,10.777-15.355,19.83-22.823,29.847a1.91,1.91,0,0,0-.368.71,1.765,1.765,0,0,0,.279,1.1l1.521,2.967c.85,1.673,2.219,3.614,4.045,3.284a4.423,4.423,0,0,0,2.117-1.357l6.822-6.53,7.151-6.834c4.184-3.994,8.445-8.089,11.183-13.212,2.13,3.7,5.921,6.124,8.508,9.51.989,1.267,1.8,2.7,2.688,4.07,1.407,2.18,3.018,4.234,4.615,6.34l8.2,10.46a15.693,15.693,0,0,0,3.8,3.8,14.52,14.52,0,0,0,6.581,1.763,86.992,86.992,0,0,0,9.268.329,15.978,15.978,0,0,0,6.91-1.268,6.264,6.264,0,0,0,3.74-5.566,8.164,8.164,0,0,0-1.179-3.462C522.752,649.533,518.923,645.07,513.407,642.445Z" transform="translate(51.814 -42.146)" fill="#2f2e41"/>
    <ellipse id="Ellipse_63" data-name="Ellipse 63" cx="2.777" cy="2.789" rx="2.777" ry="2.789" transform="translate(570.268 544.485)" fill="#e8e8f0"/>
    <path id="Path_485" data-name="Path 485" d="M504.274,594.371a5.335,5.335,0,0,1,.3,4.007,16.232,16.232,0,0,1-1.788,3.69,17.544,17.544,0,0,1-2.32,3.3c4.285.2,8.432-1.471,12.2-3.5,3.043-1.636,6.073-3.652,7.7-6.708a3.552,3.552,0,0,1-2.84-.532,10.159,10.159,0,0,1-2.168-2.016l-2.143-2.409a9.645,9.645,0,0,1-1.268-1.737,4.789,4.789,0,0,1-.57-2.8,16.306,16.306,0,0,1-2.841,2.358c-1.534,1-3.22,1.725-4.767,2.713-.532.355-1.75.913-1.433,1.624S503.843,593.61,504.274,594.371Z" transform="translate(68.162 -49.188)" fill="#fbbebe"/>
    <path id="Path_486" data-name="Path 486" d="M504.274,594.371a5.335,5.335,0,0,1,.3,4.007,16.232,16.232,0,0,1-1.788,3.69,17.544,17.544,0,0,1-2.32,3.3c4.285.2,8.432-1.471,12.2-3.5,3.043-1.636,6.073-3.652,7.7-6.708a3.552,3.552,0,0,1-2.84-.532,10.159,10.159,0,0,1-2.168-2.016l-2.143-2.409a9.645,9.645,0,0,1-1.268-1.737,4.789,4.789,0,0,1-.57-2.8,16.306,16.306,0,0,1-2.841,2.358c-1.534,1-3.22,1.725-4.767,2.713-.532.355-1.75.913-1.433,1.624S503.843,593.61,504.274,594.371Z" transform="translate(68.162 -49.188)" opacity="0.1"/>
    <path id="Path_487" data-name="Path 487" d="M507.076,592.955a3.614,3.614,0,0,0,0,4.185c.127.152.583,1.1.773,1.116a.7.7,0,0,0,.482-.254,31.817,31.817,0,0,0,2.713-3.233,6.032,6.032,0,0,1,3.449-2.257,7.454,7.454,0,0,1,4.755,1.483,4.514,4.514,0,0,1,1.636,1.268,4.431,4.431,0,0,1,.532,1.813A87.329,87.329,0,0,1,521.9,608.6a45.375,45.375,0,0,1-.545,8.3c-.279,1.407-.685,2.789-.875,4.222a26.974,26.974,0,0,0-.177,3.8v5.3a13.938,13.938,0,0,0,.2,2.9c.254,1.154.8,2.231,1.167,3.36a21.978,21.978,0,0,1,.773,3.969l.723,5.478c.228,1.725.406,3.614-.647,5.072-.469.621-1.09,1.129-1.572,1.75-1.788,2.333-1.268,5.667-1.965,8.52a10.624,10.624,0,0,1-3.474,5.325,5.743,5.743,0,0,1-4.577,1.635c-2.231-.418-3.563-2.739-4.171-4.932s-.824-4.577-2.143-6.428a17.035,17.035,0,0,0-4.235-3.537,7.318,7.318,0,0,1-3.309-4.3c-.14-.8,0-1.622-.14-2.434a5.743,5.743,0,0,0-3.537-4.653c-1.141-.444-2.536-.608-3.2-1.648a7.7,7.7,0,0,0,3.334-4.476,22.973,22.973,0,0,0,.812-5.655l.38-6.34c.177-2.852.254-5.667,1.509-8.229.558-1.141,1.268-2.219,1.839-3.347a36.365,36.365,0,0,0,1.965-4.907c.913-2.612,1.826-5.224,2.637-7.862a14.813,14.813,0,0,1,1.445-3.664C504.807,594.641,505.8,593.208,507.076,592.955Z" transform="translate(65.41 -47.354)" fill="#e8e8f0"/>
    <path id="Path_488" data-name="Path 488" d="M492.4,634.583h1.686l.355-2.536a5.3,5.3,0,0,1,.355-1.484,8.919,8.919,0,0,1,.977-1.42c1.648-2.346,1.534-5.452,1.94-8.305a42.256,42.256,0,0,1,3.7-10.854l3.271-7.291a10.023,10.023,0,0,0,.71-1.864,11.145,11.145,0,0,0,.2-2.156c0-1.128.355-5.236.393-6.339,0-.418-.926-.19-1.116-.558-.406-.812-.964,1.383-1.737,1.864a4.269,4.269,0,0,0-1.509,2.206c-.71,1.826-1.141,3.8-1.8,5.617a11.473,11.473,0,0,1-3.056,4.97c-.672.583-1.446,1.052-2.079,1.686-2.029,2-2.231,5.186-2.3,8.052C492.347,617.922,492.018,634.583,492.4,634.583Z" transform="translate(65.951 -47.596)" fill="#2f2e41"/>
    <path id="Path_489" data-name="Path 489" d="M514.75,590.506a5.757,5.757,0,0,0-3.005,4.121,20.857,20.857,0,0,1-1.521,5.072c-2.054,3.576-7.291,4.615-8.749,8.483a15.6,15.6,0,0,0-.584,3.994c-.253,2.777-1.167,5.452-1.445,8.216a36.558,36.558,0,0,0,.152,6.454l1.839,21.834a29.16,29.16,0,0,1-.545,9.611,9.253,9.253,0,0,0,5.5-.913c1.712-.786,3.284-1.864,4.945-2.777,2.841-1.572,5.985-2.675,8.483-4.767a5.19,5.19,0,0,0,1.141-1.268,10.966,10.966,0,0,0,.761-2.865,15.431,15.431,0,0,1,.824-2.257,66.623,66.623,0,0,0,2.384-6.745,38.824,38.824,0,0,0,1.091-4.615c.2-1.268.317-2.536.418-3.8a22.309,22.309,0,0,1,1.166-5.769,46.471,46.471,0,0,0,2.676-13.846,7.247,7.247,0,0,0-.14-2.029,10.849,10.849,0,0,0-1.115-2.321c-.761-1.433-1.269-3-1.928-4.463a21.944,21.944,0,0,0-7.493-7.874C518.136,590.975,516.411,589.91,514.75,590.506Z" transform="translate(67.867 -47.936)" fill="#2f2e41"/>
    <path id="Path_490" data-name="Path 490" d="M485.485,620.125a13.221,13.221,0,0,1-3.487-2.65c-.456-.532-.837-1.128-1.268-1.661a8.636,8.636,0,0,0-4.387-2.535,21.4,21.4,0,0,0-5.072-.494,9.185,9.185,0,0,0-3.385.406,3.447,3.447,0,0,0-2.244,2.409,3.994,3.994,0,0,0,1.712,3.55,8.068,8.068,0,0,0,3.411,1.648,27.274,27.274,0,0,0,3.081.368c6.061.634,11.475,3.93,16.788,6.935q7,3.981,14.277,7.405a29.711,29.711,0,0,0,.241-4.375c0-1.09-.089-2.764-1.116-3.411a22.376,22.376,0,0,0-4.539-1.356,71.448,71.448,0,0,1-9.142-3.7A45.519,45.519,0,0,1,485.485,620.125Z" transform="translate(58.828 -41.926)" fill="#fbbebe"/>
    <ellipse id="Ellipse_64" data-name="Ellipse 64" cx="10.803" cy="10.866" rx="10.803" ry="10.866" transform="translate(560.023 522.207)" fill="#fbbebe"/>
    <path id="Path_491" data-name="Path 491" d="M519.559,600.471a17.321,17.321,0,0,0-2.093,3.918c-1.268,2.739-3.423,5.072-4.476,7.975s-1.065,6.631-3.233,9a3.157,3.157,0,0,0-.951,1.37,6.558,6.558,0,0,1-.1.989c-.317.862-1.725.9-1.991,1.788-.076.254,0,.532-.127.786-.216.571-.976.659-1.471,1-1.053.71-.837,2.359-1.585,3.385a2.852,2.852,0,0,1-2.7.951,9.51,9.51,0,0,1-2.8-1.052,2.709,2.709,0,0,0-1.014-.317,2.088,2.088,0,0,0-1.166.406,7.187,7.187,0,0,0-2.916,6.149,20.079,20.079,0,0,0,1.673,6.885,2.762,2.762,0,0,0,.545,1.027,2.421,2.421,0,0,0,2.688.2,12.673,12.673,0,0,1,2.625-1.179c1.674-.3,3.309.85,5.009.748a6.96,6.96,0,0,0,3.373-1.483,18.632,18.632,0,0,0,4.539-3.8c.736-.976,1.268-2.08,1.927-3.119a40.075,40.075,0,0,1,2.726-3.639l6.238-7.607a17.542,17.542,0,0,0,1.674-2.307,16.3,16.3,0,0,0,1.268-3.487,26.741,26.741,0,0,0,1.268-6.2,23.827,23.827,0,0,0-.457-5.2,18.383,18.383,0,0,0-1.268-4.958C525.4,599.837,522.107,597.5,519.559,600.471Z" transform="translate(66.14 -45.589)" fill="#2f2e41"/>
    <path id="Path_492" data-name="Path 492" d="M542.544,596.45a12.173,12.173,0,0,0-5-9.89,14.468,14.468,0,0,0-12.286-14.087,14.036,14.036,0,0,0-27.654.748c-4.488-1.014-8.6.3-9.344,3.068s2.422,6.34,7.151,7.608a13.322,13.322,0,0,0,4.59.457,14.049,14.049,0,0,0,9.662,6.023,14.415,14.415,0,0,0,10.549,10.879,12.108,12.108,0,0,0,3.258,4.5v1.052a9.142,9.142,0,1,0,18.284,0,9.772,9.772,0,0,0-.875-4.045A12.227,12.227,0,0,0,542.544,596.45Z" transform="translate(64.862 -55.743)" fill="#f86d70"/>
    <path id="Path_493" data-name="Path 493" d="M491.309,576.874c.748-2.764,4.856-4.082,9.345-3.068a14.277,14.277,0,0,1,13.947-12.02h.926a13.726,13.726,0,0,0-3.981-.6A14.277,14.277,0,0,0,497.6,573.21c-4.489-1.014-8.6.3-9.345,3.069s2.422,6.339,7.151,7.607a13.95,13.95,0,0,0,2.714.469C493.591,583,490.561,579.7,491.309,576.874Z" transform="translate(64.859 -55.745)" opacity="0.1"/>
    <path id="Path_494" data-name="Path 494" d="M523.9,602.349a9.41,9.41,0,0,1,0-1.04,11.843,11.843,0,0,1-3.259-4.5,14.379,14.379,0,0,1-10.549-10.891,14.013,14.013,0,0,1-9.674-6.01,12.16,12.16,0,0,1-2.7-.076,14.089,14.089,0,0,0,9.32,5.541,14.417,14.417,0,0,0,10.549,10.879,12.1,12.1,0,0,0,3.258,4.5V601.8a9.307,9.307,0,0,0,9.091,9.459A9.459,9.459,0,0,1,523.9,602.349Z" transform="translate(67.425 -50.75)" opacity="0.1"/>
    <ellipse id="Ellipse_65" data-name="Ellipse 65" cx="1.661" cy="2.219" rx="1.661" ry="2.219" transform="translate(571.776 534.532) rotate(-37.22)" fill="#fbbebe"/>
  </g>
</svg>
