<svg id="undraw_Questions_re_1fy7" xmlns="http://www.w3.org/2000/svg" width="914.421" height="644.414" viewBox="0 0 914.421 644.414">
  <circle id="Ellipse_66" data-name="Ellipse 66" cx="49.798" cy="49.798" r="49.798" transform="translate(417.215 543.451)" fill="#fa4252"/>
  <path id="Path_495" data-name="Path 495" d="M931.963,788.746c27.859-8.367,57.478-17.091,79.572-36.982,19.743-17.774,33.073-44.915,24.893-71.57-8.163-26.6-32.612-44.338-57.855-53.16-14.317-5-29.3-7.78-44.268-9.96-16.276-2.371-32.625-4.313-48.965-6.182Q786.095,599.541,686.1,597.024c-32.894-.828-65.781-.808-98.679-.331-29.38.426-60.323.416-87.579-12.071-21.2-9.71-40.432-27.377-46.338-50.592-6.817-26.8,5.757-54.089,23.795-73.5,9.508-10.23,20.62-18.841,32.083-26.758,12.436-8.589,25.306-16.57,38.454-24.02a535.464,535.464,0,0,1,80.94-37.314c13.8-5.017,27.8-9.346,41.925-13.339,11.927-3.372,23.891-6.749,35.417-11.343,22.283-8.881,43.477-23.924,49.143-48.587,5.37-23.374-3.684-48.749-19.557-66.113-18.363-20.089-46.052-28.9-72.6-30.321-29.8-1.6-58.916,5.859-86.927,15.325-29.875,10.1-59.107,21.7-89.613,29.882a602.942,602.942,0,0,1-92.23,17.144c-15.245,1.623-30.951,3.456-46.287,2.214-12.853-1.042-25.64-4.821-35.112-13.943-8.122-7.821-12.96-18.57-11.3-29.914.3-2.06,3.432-1.184,3.132.863-2.025,13.808,7.361,26.532,18.928,33.05,13.368,7.533,29.634,7.543,44.517,6.682a582.234,582.234,0,0,0,95.823-13.852c30.953-7.07,60.8-17.176,90.615-27.973,28.316-10.254,57.264-20.261,87.515-22.482,26.248-1.927,53.86,1.9,76.726,15.614,20.1,12.056,34.875,32.16,39.584,55.231,4.6,22.544-1.771,45.235-18.837,60.967-17.669,16.289-41.9,23.253-64.474,29.666-28.637,8.135-56.659,17.644-83.783,29.991a525.953,525.953,0,0,0-78.811,44.307c-24.083,16.458-47.85,37.165-55.467,66.525-3.548,13.676-2.893,28.182,3.044,41.1,5.279,11.486,13.972,21.148,24.1,28.6,24.164,17.781,54.619,21.431,83.806,21.794,32.782.408,65.565-.7,98.357-.16q100.245,1.646,200.08,12.2,25.016,2.648,49.969,5.854c14.963,1.923,29.976,3.833,44.687,7.248,26.157,6.071,51.61,17.745,67.868,39.923a66.385,66.385,0,0,1,12.934,32.96c1.138,12.475-1.916,24.974-7.557,36.072-12.484,24.564-35.869,40.188-60.7,50.453-13.3,5.5-27.1,9.663-40.869,13.8-2.006.6-2.863-2.531-.863-3.132Z" transform="translate(-167.452 -148.497)" fill="#f2f2f2"/>
  <circle id="Ellipse_67" data-name="Ellipse 67" cx="25.982" cy="25.982" r="25.982" transform="translate(110.306 49.257)" fill="#f2f2f2"/>
  <circle id="Ellipse_68" data-name="Ellipse 68" cx="25.982" cy="25.982" r="25.982" transform="translate(290.555 98.514)" fill="#f2f2f2"/>
  <circle id="Ellipse_69" data-name="Ellipse 69" cx="25.982" cy="25.982" r="25.982" transform="translate(443.197)" fill="#f2f2f2"/>
  <circle id="Ellipse_70" data-name="Ellipse 70" cx="25.982" cy="25.982" r="25.982" transform="translate(538.463 110.422)" fill="#f2f2f2"/>
  <circle id="Ellipse_71" data-name="Ellipse 71" cx="25.982" cy="25.982" r="25.982" transform="translate(409.637 238.166)" fill="#f2f2f2"/>
  <circle id="Ellipse_72" data-name="Ellipse 72" cx="25.982" cy="25.982" r="25.982" transform="translate(246.169 299.872)" fill="#f2f2f2"/>
  <circle id="Ellipse_73" data-name="Ellipse 73" cx="25.982" cy="25.982" r="25.982" transform="translate(419.38 396.221)" fill="#f2f2f2"/>
  <circle id="Ellipse_74" data-name="Ellipse 74" cx="25.982" cy="25.982" r="25.982" transform="translate(605.583 450.35)" fill="#f2f2f2"/>
  <circle id="Ellipse_75" data-name="Ellipse 75" cx="25.982" cy="25.982" r="25.982" transform="translate(823.18 438.441)" fill="#f2f2f2"/>
  <path id="Path_496" data-name="Path 496" d="M615.01,220.373c-77.828.55-141.553,63.8-142.658,141.618-.01.718-.015,5.771-.015,12.378A36.534,36.534,0,0,0,508.866,410.9h0a36.555,36.555,0,0,0,36.549-36.58c0-4.5-.006-7.614-.006-7.805a69.285,69.285,0,1,1,106.655,58.328l.013.015s-51.994,33.473-67.845,79.391l.013,0a101.768,101.768,0,0,0-4.193,28.978c0,4.033.237,39.32.7,67.961a37.659,37.659,0,0,0,37.663,37.048h0a37.669,37.669,0,0,0,37.667-37.9c-.159-26.23-.245-56.772-.245-58.989,0-28.2,27.2-56.288,49.542-74.608,25.729-21.1,44.243-49.845,51.679-82.274a93.912,93.912,0,0,0,2.705-20.389A143.711,143.711,0,0,0,615.01,220.373Z" transform="translate(-153.331 -146.754)" fill="#fa4252"/>
  <path id="Path_497" data-name="Path 497" d="M1090.8,747.828H178.951a1.289,1.289,0,0,1,0-2.578h911.843a1.289,1.289,0,1,1,0,2.578Z" transform="translate(-177.662 -103.414)" fill="#3f3d56"/>
  <circle id="Ellipse_76" data-name="Ellipse 76" cx="32.477" cy="32.477" r="32.477" transform="translate(647.863 230.583)" fill="#2f2e41"/>
  <path id="Path_498" data-name="Path 498" d="M574.506,586.033H561.234l-6.314-51.193h19.589Z" transform="translate(45.82 44.163)" fill="#a0616a"/>
  <path id="Path_499" data-name="Path 499" d="M553.226,578.626h25.6v16.116H537.109A16.116,16.116,0,0,1,553.226,578.626Z" transform="translate(44.35 47.778)" fill="#2f2e41"/>
  <path id="Path_500" data-name="Path 500" d="M669.506,586.033H656.235l-6.315-51.193h19.589Z" transform="translate(53.665 44.163)" fill="#a0616a"/>
  <path id="Path_501" data-name="Path 501" d="M648.225,578.626h25.6v16.116H632.109A16.116,16.116,0,0,1,648.225,578.626Z" transform="translate(52.194 47.778)" fill="#2f2e41"/>
  <circle id="Ellipse_77" data-name="Ellipse 77" cx="26.589" cy="26.589" r="26.589" transform="translate(648.816 242.549)" fill="#a0616a"/>
  <path id="Path_502" data-name="Path 502" d="M823.442,510.562l11.9-27.335a33.974,33.974,0,0,0-7.523-38.54,34.561,34.561,0,0,0-3.324-2.891,33.491,33.491,0,0,0-20.558-7.112,34.835,34.835,0,0,0-14.506,3.226c-.39.173-.769.357-1.158.541-.747.357-1.483.747-2.2,1.148a34.294,34.294,0,0,0-17,25.852l-5.251,44c-1.32,3.453-48.434,128.166-31.957,223.378A4.836,4.836,0,0,0,736,736.8l16.7,2.273a4.868,4.868,0,0,0,5.423-3.822l28.028-133.6a3.793,3.793,0,0,1,7.361-.249l39.6,140.5a4.84,4.84,0,0,0,4.666,3.551,5.565,5.565,0,0,0,.942-.087l20.406-3.93a4.84,4.84,0,0,0,3.93-5.207C860.065,702.784,844.13,535.278,823.442,510.562Z" transform="translate(-132.189 -129.058)" fill="#2f2e41"/>
  <path id="Path_503" data-name="Path 503" d="M706.107,422.162a10.886,10.886,0,0,0,11.469,12.128l14.862,35.717,11.243-16.665-15.838-31.362a10.945,10.945,0,0,0-21.737.183Z" transform="translate(-134.034 -130.897)" fill="#a0616a"/>
  <path id="Path_504" data-name="Path 504" d="M801.129,541.337a10.886,10.886,0,0,0,9.122-13.979l31.271-22.776-18.826-7.05-26.809,22.709a10.945,10.945,0,0,0,5.242,21.1Z" transform="translate(-127.199 -123.869)" fill="#a0616a"/>
  <path id="Path_505" data-name="Path 505" d="M756.033,491.674a18.462,18.462,0,0,1-3.571-.352,17.651,17.651,0,0,1-12.934-10.41l-20.823-25.39a4.873,4.873,0,0,1,1.2-7.232l14.814-9.17a4.871,4.871,0,0,1,6.729,1.613l14.676,24.178,28.1-20.771a10.524,10.524,0,0,1,12.244,16.847l-28.052,25.588A17.594,17.594,0,0,1,756.033,491.674Z" transform="translate(-133.079 -128.752)" fill="#2f2e41"/>
  <path id="Path_506" data-name="Path 506" d="M824.628,529.254h-.115a4.881,4.881,0,0,1-3.584-1.7l-13.171-15.365a4.872,4.872,0,0,1,1-7.224l24.663-16.442-22.343-26.861a10.524,10.524,0,0,1,16.117-13.189l27.155,26.537a17.889,17.889,0,0,1-3.979,29.165l-22.194,23.55A4.88,4.88,0,0,1,824.628,529.254Z" transform="translate(-125.731 -128.146)" fill="#2f2e41"/>
  <path id="Path_507" data-name="Path 507" d="M796.429,473.755a4.993,4.993,0,0,1-.631-.04,4.83,4.83,0,0,1-4.018-3.323l-9.9-30.344a3.337,3.337,0,0,1,1.725-4.032l.321-.152c.291-.139.58-.276.874-.406a35.266,35.266,0,0,1,14.726-3.273,33.916,33.916,0,0,1,18.578,5.582,3.389,3.389,0,0,1,.976,4.649L800.517,471.5A4.823,4.823,0,0,1,796.429,473.755Z" transform="translate(-127.785 -129.265)" fill="#e6e6e6"/>
  <circle id="Ellipse_78" data-name="Ellipse 78" cx="10.627" cy="10.627" r="10.627" transform="translate(695.318 227.307)" fill="#2f2e41"/>
  <path id="Path_508" data-name="Path 508" d="M798.258,361.365h0a28.147,28.147,0,0,0-28.147,28.147V401.42h14.646l7.005-11.908,2.1,11.908h44.449L826.4,389.512A28.146,28.146,0,0,0,798.258,361.365Z" transform="translate(-128.743 -135.112)" fill="#2f2e41"/>
  <path id="Path_509" data-name="Path 509" d="M834.809,366.3a16.4,16.4,0,0,1,17.842-11.254c6.772,1.132,12.127,6.576,15.318,12.656s4.664,12.885,6.809,19.408,5.187,13.081,10.6,17.3,13.724,5.368,19.042,1.024a21.779,21.779,0,0,1-40.572,7.774c-2.806-4.992-3.531-10.844-4.363-16.51s-1.913-11.529-5.264-16.174-9.621-7.679-14.944-5.563Z" transform="translate(-123.401 -135.646)" fill="#2f2e41"/>
  <path id="Path_510" data-name="Path 510" d="M519.221,389.085h0a36.534,36.534,0,0,1-36.531-36.528c0-6.612,0-11.664.014-12.383a142.368,142.368,0,0,1,16.627-64.855A142.686,142.686,0,0,0,471.879,357.5c-.01.719-.015,5.771-.014,12.379a36.534,36.534,0,0,0,36.528,36.532h0a36.562,36.562,0,0,0,35.171-26.622A36.4,36.4,0,0,1,519.221,389.085Z" transform="translate(-153.37 -142.217)" fill="#3f3d56"/>
  <path id="Path_511" data-name="Path 511" d="M610.689,292.805a69.288,69.288,0,0,1,60.255,96.8,69.281,69.281,0,1,0-116.3-72.516,69.143,69.143,0,0,1,56.041-24.28Z" transform="translate(-146.534 -142.21)" fill="#3f3d56"/>
  <path id="Path_512" data-name="Path 512" d="M620.548,601.677h0a37.661,37.661,0,0,1-37.663-37.056c-.458-28.633-.7-63.92-.7-67.953a101.766,101.766,0,0,1,4.193-28.978l-.013,0a102.929,102.929,0,0,1,5.948-13.75,119.141,119.141,0,0,0-16.773,31.071l.013,0a101.775,101.775,0,0,0-4.193,28.978c0,4.033.237,39.321.7,67.961A37.659,37.659,0,0,0,609.723,619h0a37.675,37.675,0,0,0,36.158-27.111A37.522,37.522,0,0,1,620.548,601.677Z" transform="translate(-145.154 -127.468)" fill="#3f3d56"/>
  <path id="Path_513" data-name="Path 513" d="M126.541,586.49h13.271l6.315-51.193H126.538Z" transform="translate(10.448 44.2)" fill="#ffb8b8"/>
  <path id="Path_514" data-name="Path 514" d="M0,0H41.713V16.116h-25.6A16.116,16.116,0,0,1,0,0Z" transform="translate(175.855 643.013) rotate(179.997)" fill="#2f2e41"/>
  <path id="Path_515" data-name="Path 515" d="M82.541,586.49H95.813l6.315-51.193H82.538Z" transform="translate(6.815 44.2)" fill="#ffb8b8"/>
  <path id="Path_516" data-name="Path 516" d="M0,0H41.713V16.116h-25.6A16.116,16.116,0,0,1,0,0Z" transform="translate(128.221 643.013) rotate(179.997)" fill="#2f2e41"/>
  <path id="Path_517" data-name="Path 517" d="M272.271,733.958l-12.964-.682a5.059,5.059,0,0,1-4.783-5.377l15.495-171.551L341.372,575.6l6.875-1.875-21.5,151.868a5.083,5.083,0,0,1-4.718,4.27l-13.975.652a5.061,5.061,0,0,1-5.339-5.192l2.532-91.149a1.687,1.687,0,0,0-3.338-.39l-24.42,96.146a5.029,5.029,0,0,1-4.946,4.033C272.454,733.965,272.363,733.963,272.271,733.958Z" transform="translate(-171.317 -119.012)" fill="#2f2e41"/>
  <circle id="Ellipse_79" data-name="Ellipse 79" cx="26.589" cy="26.589" r="26.589" transform="translate(112.783 243.793)" fill="#ffb8b8"/>
  <path id="Path_518" data-name="Path 518" d="M265.515,477.5l2.924,63.079,1.057,22.949a5.026,5.026,0,0,0,3.328,4.52l68.566,24.838a4.841,4.841,0,0,0,1.732.3,5.027,5.027,0,0,0,5.049-5.184l-2.811-113.418a39.98,39.98,0,0,0-33.283-38.623c-.663-.1-1.338-.2-2.013-.292a39.243,39.243,0,0,0-31.573,10.221A40.312,40.312,0,0,0,265.515,477.5Z" transform="translate(-170.412 -129.001)" fill="#ccc"/>
  <path id="Path_519" data-name="Path 519" d="M368.072,572.955a10.894,10.894,0,0,1-5.812-16.484l-23.251-30.918,20.065-1.242,19,29.551a10.946,10.946,0,0,1-10,19.093Z" transform="translate(-164.34 -121.657)" fill="#ffb8b8"/>
  <path id="Path_520" data-name="Path 520" d="M353.715,556.851a5.027,5.027,0,0,1-2.751-2.726l-35.03-83.46a13.493,13.493,0,1,1,24.882-10.444l35.03,83.461a5.065,5.065,0,0,1-2.707,6.624l-15.552,6.527a5.024,5.024,0,0,1-3.873.019Z" transform="translate(-166.332 -127.633)" fill="#ccc"/>
  <path id="Path_521" data-name="Path 521" d="M298.554,551.261,332.2,486.838a5.281,5.281,0,0,1,7.118-2.234l48.836,25.506a5.281,5.281,0,0,1,2.234,7.118L356.741,581.65a5.281,5.281,0,0,1-7.118,2.234l-48.837-25.505A5.281,5.281,0,0,1,298.554,551.261Z" transform="translate(-167.73 -124.986)" fill="#3f3d56"/>
  <path id="Path_522" data-name="Path 522" d="M323.1,520.942a10.895,10.895,0,0,0-16.8-4.829L274.06,494.729l-.055,20.1,30.621,17.226a10.946,10.946,0,0,0,18.469-11.115Z" transform="translate(-169.707 -124.1)" fill="#ffb8b8"/>
  <path id="Path_523" data-name="Path 523" d="M284.677,529.648l-26.346-20.87a18.58,18.58,0,0,1-8.469-29.376l23.922-31.351a10.93,10.93,0,0,1,18.544,11.134L273.4,490.147l27.816,13.193a5.059,5.059,0,0,1,2.109,7.274L292.1,528.384a5.068,5.068,0,0,1-3.428,2.285l-.084.013A5.082,5.082,0,0,1,284.677,529.648Z" transform="translate(-172.047 -128.285)" fill="#ccc"/>
  <path id="Path_524" data-name="Path 524" d="M288.842,422.788a2.311,2.311,0,0,1,2.01-3.052,5.338,5.338,0,0,1,3.763,1.857,14.971,14.971,0,0,0,3.325,2.855c1.286.648,3.031.556,3.764-.68.688-1.161.217-2.715-.2-4.063a39.956,39.956,0,0,1-1.765-10.577c-.12-4.006.445-8.187,2.663-11.311,2.862-4.032,7.98-5.563,12.823-5.452s9.608,1.606,14.406,2.551c1.656.326,3.6.493,4.711-.791,1.178-1.365.745-3.574.244-5.417-1.3-4.782-2.679-9.726-5.7-13.589a20.458,20.458,0,0,0-13.057-7.351,31.328,31.328,0,0,0-14.574,1.655,39.077,39.077,0,0,0-19.143,13.336,31.65,31.65,0,0,0-6.039,23.384,28.87,28.87,0,0,0,10.7,18.246Z" transform="translate(-169.561 -134.603)" fill="#2f2e41"/>
  <path id="Path_525" data-name="Path 525" d="M601.888,741.052a49.791,49.791,0,0,1-18.479-77.392,49.8,49.8,0,1,0,67.735,71.952,49.765,49.765,0,0,1-49.255,5.44Z" transform="translate(-145.847 -110.151)" fill="#3f3d56"/>
</svg>
