<svg xmlns="http://www.w3.org/2000/svg" width="211" height="175.426" viewBox="0 0 211 175.426">
  <g id="undraw_empty_cart_co35" transform="translate(0.083)">
    <path id="Path_610" data-name="Path 610" d="M187.693,750.077c2.915,5.406,9.1,7.726,9.1,7.726s1.461-6.444-1.454-11.85-9.1-7.726-9.1-7.726S184.778,744.672,187.693,750.077Z" transform="translate(-177.77 -582.915)" fill="#2f2e41"/>
    <path id="Path_611" data-name="Path 611" d="M163.768,773.935c5.263,3.166,7.289,9.455,7.289,9.455s-6.506,1.155-11.768-2.011-7.29-9.455-7.29-9.455S158.506,770.769,163.768,773.935Z" transform="translate(-151.841 -608.551)" fill="#fa4252"/>
    <rect id="Rectangle_452" data-name="Rectangle 452" width="32.835" height="0.469" transform="translate(97.08 8.422)" fill="#f2f2f2"/>
    <rect id="Rectangle_453" data-name="Rectangle 453" width="0.469" height="4.339" transform="translate(120.534 8.773)" fill="#f2f2f2"/>
    <rect id="Rectangle_454" data-name="Rectangle 454" width="0.469" height="4.339" transform="translate(106.227 8.773)" fill="#f2f2f2"/>
    <rect id="Rectangle_455" data-name="Rectangle 455" width="32.835" height="0.469" transform="translate(113.732 30.937)" fill="#f2f2f2"/>
    <rect id="Rectangle_456" data-name="Rectangle 456" width="0.469" height="4.339" transform="translate(122.645 26.716)" fill="#f2f2f2"/>
    <rect id="Rectangle_457" data-name="Rectangle 457" width="0.469" height="4.339" transform="translate(136.951 26.716)" fill="#f2f2f2"/>
    <rect id="Rectangle_458" data-name="Rectangle 458" width="32.835" height="0.469" transform="translate(157.356 41.491)" fill="#f2f2f2"/>
    <rect id="Rectangle_459" data-name="Rectangle 459" width="0.469" height="4.339" transform="translate(166.268 37.27)" fill="#f2f2f2"/>
    <rect id="Rectangle_460" data-name="Rectangle 460" width="0.469" height="4.339" transform="translate(180.575 37.27)" fill="#f2f2f2"/>
    <rect id="Rectangle_461" data-name="Rectangle 461" width="32.835" height="0.469" transform="translate(154.072 150.316)" fill="#f2f2f2"/>
    <rect id="Rectangle_462" data-name="Rectangle 462" width="0.469" height="4.339" transform="translate(162.985 146.094)" fill="#f2f2f2"/>
    <rect id="Rectangle_463" data-name="Rectangle 463" width="0.469" height="4.339" transform="translate(177.291 146.094)" fill="#f2f2f2"/>
    <rect id="Rectangle_464" data-name="Rectangle 464" width="32.835" height="0.469" transform="translate(98.019 75.03)" fill="#f2f2f2"/>
    <rect id="Rectangle_465" data-name="Rectangle 465" width="0.469" height="4.339" transform="translate(106.931 70.808)" fill="#f2f2f2"/>
    <rect id="Rectangle_466" data-name="Rectangle 466" width="0.469" height="4.339" transform="translate(121.237 70.808)" fill="#f2f2f2"/>
    <rect id="Rectangle_467" data-name="Rectangle 467" width="32.835" height="0.469" transform="translate(108.338 131.553)" fill="#f2f2f2"/>
    <rect id="Rectangle_468" data-name="Rectangle 468" width="0.469" height="4.339" transform="translate(117.251 127.331)" fill="#f2f2f2"/>
    <rect id="Rectangle_469" data-name="Rectangle 469" width="0.469" height="4.339" transform="translate(131.557 127.331)" fill="#f2f2f2"/>
    <rect id="Rectangle_470" data-name="Rectangle 470" width="32.835" height="0.469" transform="translate(160.874 114.432)" fill="#f2f2f2"/>
    <rect id="Rectangle_471" data-name="Rectangle 471" width="0.469" height="4.339" transform="translate(169.786 110.21)" fill="#f2f2f2"/>
    <rect id="Rectangle_472" data-name="Rectangle 472" width="0.469" height="4.339" transform="translate(184.093 110.21)" fill="#f2f2f2"/>
    <path id="Path_612" data-name="Path 612" d="M180.809,620.4H125.274V620h55.135V600.627H129.943l-2.452-5.107.36-.173,2.343,4.881h50.615Z" transform="translate(-95.734 -455.717)" fill="#2f2e41"/>
    <circle id="Ellipse_169" data-name="Ellipse 169" cx="4.195" cy="4.195" r="4.195" transform="translate(32.736 166.086)" fill="#3f3d56"/>
    <circle id="Ellipse_170" data-name="Ellipse 170" cx="4.195" cy="4.195" r="4.195" transform="translate(74.088 166.086)" fill="#3f3d56"/>
    <circle id="Ellipse_171" data-name="Ellipse 171" cx="2.597" cy="2.597" r="2.597" transform="translate(124.429 78.588)" fill="#3f3d56"/>
    <path id="Path_613" data-name="Path 613" d="M291.576,521.679H229.155l-13.507-44.148h89.838l-.082.26Zm-62.126-.4h61.833l13.658-43.349H216.188Z" transform="translate(-200.562 -383.361)" fill="#2f2e41"/>
    <path id="Path_614" data-name="Path 614" d="M148.95,452.169H94.123L82.26,413.015h78.908l-.072.231Z" transform="translate(-62.808 -316.148)" fill="#f2f2f2"/>
    <path id="Path_615" data-name="Path 615" d="M450.2,351.934l-.386-.1,2.636-9.937H467.79v.4H452.762Z" transform="translate(-344.161 -261.708)" fill="#2f2e41"/>
    <rect id="Rectangle_473" data-name="Rectangle 473" width="80.984" height="0.4" transform="translate(19.451 107.554)" fill="#2f2e41"/>
    <rect id="Rectangle_474" data-name="Rectangle 474" width="71.843" height="0.4" transform="translate(23.954 122.274)" fill="#2f2e41"/>
    <rect id="Rectangle_475" data-name="Rectangle 475" width="0.4" height="43.749" transform="translate(59.804 94.37)" fill="#2f2e41"/>
    <rect id="Rectangle_476" data-name="Rectangle 476" width="43.842" height="0.4" transform="matrix(0.065, -0.998, 0.998, 0.065, 75.224, 138.105)" fill="#2f2e41"/>
    <rect id="Rectangle_477" data-name="Rectangle 477" width="0.4" height="43.842" transform="translate(41.526 94.382) rotate(-3.729)" fill="#2f2e41"/>
    <rect id="Rectangle_478" data-name="Rectangle 478" width="211" transform="translate(-0.083 175.118)" fill="#2f2e41"/>
    <path id="Path_616" data-name="Path 616" d="M747.411,135.712s3.429,9.758,1.319,11.259,7.121,13.762,7.121,13.762l11.077-3-6.066-10.259s-.791-10.259-.791-11.76S747.411,135.712,747.411,135.712Z" transform="translate(-607.607 -121.2)" fill="#a0616a"/>
    <path id="Path_617" data-name="Path 617" d="M747.411,135.712s3.429,9.758,1.319,11.259,7.121,13.762,7.121,13.762l11.077-3-6.066-10.259s-.791-10.259-.791-11.76S747.411,135.712,747.411,135.712Z" transform="translate(-607.607 -121.2)" opacity="0.1"/>
    <path id="Path_618" data-name="Path 618" d="M721.422,410.38s-1,12.51,0,19.016,2.5,24.521,2.5,24.521,0,34.029,5.5,34.529,9.508,1,10.008-1-2.5-3-1-4,2-4.5,0-8.507,0-44.537,0-44.537l9.508,25.521s1,21.018,2,24.02-1,8.507,2.5,9.008,7.506-2.5,9.508-3.5-3-1-2-1.5,4-2,3-2.5-2-24.521-2-24.521-2.752-51.293-6.255-53.294-5.755,1.446-5.755,1.446Z" transform="translate(-587.373 -326.31)" fill="#2f2e41"/>
    <path id="Path_619" data-name="Path 619" d="M754.746,758.784v4s-4.5,10.882,0,10.882,8.007,1.128,8.007-.374V759.785Z" transform="translate(-611.69 -598.65)" fill="#2f2e41"/>
    <path id="Path_620" data-name="Path 620" d="M861.033,758.754v4s4.5,10.882,0,10.882-8.007,1.128-8.007-.374V759.755Z" transform="translate(-688.452 -598.627)" fill="#2f2e41"/>
    <circle id="Ellipse_172" data-name="Ellipse 172" cx="9.008" cy="9.008" r="9.008" transform="translate(137.802 3.753)" fill="#a0616a"/>
    <path id="Path_621" data-name="Path 621" d="M762.281,201.9s2.5,7.506,6.505,6.005l4-1.5,7.006,48.04s-5.5,8.007-13.511,3S762.281,201.9,762.281,201.9Z" transform="translate(-618.223 -172.375)" fill="#fa4252"/>
    <path id="Path_622" data-name="Path 622" d="M795.418,179.983l2.252-4.754s13.261,6.255,15.263,8.257a7.816,7.816,0,0,1,2,5l-3.5,12.51s1,27.523,1,28.524,3.5,6.505,1,4.5-3-4-5-1-6.505,6.505-6.505,6.505Z" transform="translate(-644.355 -151.96)" fill="#3f3d56"/>
    <path id="Path_623" data-name="Path 623" d="M841.384,349.122l-1.5,14.012s-9.008,8.007-7.006,8.507a2.77,2.77,0,0,0,3-1.5s3.5,3.5,5.5,1.5,7.006-21.018,7.006-21.018Z" transform="translate(-672.806 -285.068)" fill="#a0616a"/>
    <path id="Path_624" data-name="Path 624" d="M743.993,76.045c-2-.071-4.134-.107-5.818.969a8.518,8.518,0,0,0-2.01,1.968c-1.64,2.073-3.057,4.681-2.447,7.253l.707-.276a4.632,4.632,0,0,1-.447,1.985c.1-.29.433.179.344.472l-.779,2.557a2.407,2.407,0,0,1,3.07,1.832c.089-2.97.4-6.375,2.806-8.113a9.706,9.706,0,0,1,4.231-1.382,8.512,8.512,0,0,1,4.1.021,2.951,2.951,0,0,1,2.124,3.136,1.4,1.4,0,0,1,1.575.776,4.077,4.077,0,0,1,.323,1.866c.642.454,1.373-.448,1.635-1.189a10.736,10.736,0,0,0,.83-5.411c-.331-1.817-1.811-3.553-3.658-3.559a1.282,1.282,0,0,0,.333-.9l-1.522-.129a1.682,1.682,0,0,0,1.005-.53C749.786,78.059,744.981,76.08,743.993,76.045Z" transform="translate(-596.992 -76.014)" fill="#2f2e41"/>
    <path id="Path_625" data-name="Path 625" d="M709.2,176.832s-4.074-3.992-5.54-3.747-3.468,3.747-3.468,3.747-12.01,4-11.51,8.007,6.005,23.52,6.005,23.52,4.5,23.52.5,26.022,19.016,9.008,19.516,6.005,1.5-33.028,0-37.531S709.2,176.832,709.2,176.832Z" transform="translate(-562.643 -150.31)" fill="#3f3d56"/>
    <path id="Path_626" data-name="Path 626" d="M850.893,223.236h6.188s4.321,19.016,4.821,21.018,1.5,11.51,1,11.51-10.509-2-10.509-.5Z" transform="translate(-686.819 -188.707)" fill="#3f3d56"/>
    <path id="Path_627" data-name="Path 627" d="M766.791,323.738H743.1c-2.312-10.634-2.5-20.908,0-30.724h23.688C762.968,302.654,762.729,312.857,766.791,323.738Z" transform="translate(-602.926 -242.12)" fill="#f2f2f2"/>
    <path id="Path_628" data-name="Path 628" d="M707.938,353.826l7.006,3s13.511,2,13.511-3.5-13.511-2.5-13.511-2.5l-4.5-1.44Z" transform="translate(-577.392 -285.268)" fill="#a0616a"/>
    <path id="Path_629" data-name="Path 629" d="M678.583,210.435l-6.005,1.5-4.5,26.522s-1.5,7.006,1,7.506,9.508,4.5,9.508,4.5,1-7.506,3-7.506l-5-4,3-17.515Z" transform="translate(-546.536 -178.909)" fill="#3f3d56"/>
    <rect id="Rectangle_479" data-name="Rectangle 479" width="32.835" height="0.469" transform="translate(14.289 82.77)" fill="#f2f2f2"/>
    <rect id="Rectangle_480" data-name="Rectangle 480" width="0.469" height="4.339" transform="translate(23.201 78.548)" fill="#f2f2f2"/>
    <rect id="Rectangle_481" data-name="Rectangle 481" width="0.469" height="4.339" transform="translate(37.508 78.548)" fill="#f2f2f2"/>
    <rect id="Rectangle_482" data-name="Rectangle 482" width="32.835" height="0.469" transform="translate(25.781 13.347)" fill="#f2f2f2"/>
    <rect id="Rectangle_483" data-name="Rectangle 483" width="0.469" height="4.339" transform="translate(49.235 13.699)" fill="#f2f2f2"/>
    <rect id="Rectangle_484" data-name="Rectangle 484" width="0.469" height="4.339" transform="translate(34.928 13.699)" fill="#f2f2f2"/>
    <rect id="Rectangle_485" data-name="Rectangle 485" width="32.835" height="0.469" transform="translate(58.851 59.551)" fill="#f2f2f2"/>
    <rect id="Rectangle_486" data-name="Rectangle 486" width="0.469" height="4.339" transform="translate(82.305 59.902)" fill="#f2f2f2"/>
    <rect id="Rectangle_487" data-name="Rectangle 487" width="0.469" height="4.339" transform="translate(67.998 59.902)" fill="#f2f2f2"/>
    <rect id="Rectangle_488" data-name="Rectangle 488" width="32.835" height="0.469" transform="translate(3.031 59.316)" fill="#f2f2f2"/>
    <rect id="Rectangle_489" data-name="Rectangle 489" width="0.469" height="4.339" transform="translate(26.485 59.668)" fill="#f2f2f2"/>
    <rect id="Rectangle_490" data-name="Rectangle 490" width="0.469" height="4.339" transform="translate(12.178 59.668)" fill="#f2f2f2"/>
    <rect id="Rectangle_491" data-name="Rectangle 491" width="32.835" height="0.469" transform="translate(42.434 35.862)" fill="#f2f2f2"/>
    <rect id="Rectangle_492" data-name="Rectangle 492" width="0.469" height="4.339" transform="translate(51.346 31.641)" fill="#f2f2f2"/>
    <rect id="Rectangle_493" data-name="Rectangle 493" width="0.469" height="4.339" transform="translate(65.653 31.641)" fill="#f2f2f2"/>
  </g>
</svg>
