<svg xmlns="http://www.w3.org/2000/svg" width="227.008" height="168.273" viewBox="0 0 227.008 168.273">
  <g id="undraw_deliveries_131a" transform="translate(0 0.098)">
    <path id="Path_630" data-name="Path 630" d="M743.634,197.917l1.786-1.1c.17-.108.337-.222.509-.33a17.061,17.061,0,0,1-14.151-16.02,16.884,16.884,0,0,1,1.473-7.771,17.089,17.089,0,0,1,10.954-9.45l-.089,7.03,3.862-7.651a.153.153,0,0,1,.048,0,17.058,17.058,0,0,1,17.835,16.245c.014.325,0,.646,0,.956a20.394,20.394,0,0,0,3.371-4.976c1.635-3.646,1.674-7.776,1.537-12.795-.258-9.947-.686-19.968-1.246-29.96a17.048,17.048,0,0,1-15.148-16.138c-.024-.524-.017-1.038,0-1.549a2.559,2.559,0,0,1,.019-.383c.033-.495.079-.985.155-1.468a1.4,1.4,0,0,1,.043-.239q.105-.615.251-1.215c.038-.148.074-.3.115-.447a12.926,12.926,0,0,1,.4-1.286c.05-.141.11-.277.163-.416.122-.311.254-.617.392-.921.074-.16.146-.318.225-.478.019-.041.036-.081.057-.122h0a17.046,17.046,0,0,1,20.028-8.651l-.115,9.148,3.826-7.556a16.953,16.953,0,0,1,8.13,18.38h.019c-.026.122-.064.239-.093.359-.052.225-.11.447-.172.669-.081.285-.172.564-.266.844-.072.208-.141.421-.22.626-.115.3-.239.6-.378.89-.076.172-.146.347-.239.516q-.328.66-.717,1.291c-.089.146-.189.285-.282.43-.182.282-.366.562-.564.835-.122.167-.254.328-.383.493-.186.239-.378.478-.576.7-.141.16-.285.318-.433.478-.208.22-.423.433-.645.643-.146.141-.294.282-.447.416-.251.222-.514.435-.78.643-.134.105-.263.215-.4.316q-.6.45-1.25.844c-.081.048-.167.088-.239.136-.359.213-.717.411-1.1.6-.16.079-.328.148-.492.222-.309.139-.619.273-.937.395-.184.069-.373.134-.562.2q-.47.161-.956.294c-.191.053-.38.105-.574.151-.349.084-.705.153-1.064.213a.122.122,0,0,0-.069.014q.354,6.322.629,12.651a17.049,17.049,0,0,1,23.672-7.4l-3.015,8.261,6.2-5.956a17.011,17.011,0,0,1,5.5,11.779,16.692,16.692,0,0,1-.433,4.7,17.051,17.051,0,0,1-31.364,4.646c0,.428.031.858.043,1.286.112,4.428.253,9.937-1.954,14.858a29.844,29.844,0,0,1-6.281,8.472c-1.547,1.581-3.151,3.108-4.8,4.589a17.058,17.058,0,0,1-6.16,5.122q-4.053,3.123-8.393,5.849l-1.757,1.133c-1.624,1.007-3.288,2.04-4.921,3.108.287-.029.571-.06.863-.072a17.065,17.065,0,0,1,16.8,11.1l-10.659,8.677,11.716-2.719a17.065,17.065,0,0,1-24.456,15.363c.263.33.528.658.792.985.524.653,1.045,1.3,1.554,1.944,6.934,8.782,8.866,17.123,5.43,23.481l-4.175-2.257c3.348-6.188-1.674-14.107-4.981-18.282-.5-.631-1.011-1.267-1.528-1.913-4.431-5.5-9.452-11.745-9.325-19.4C723.422,210.444,734.634,203.493,743.634,197.917Z" transform="translate(-580.245 -98.18)" fill="#f2f2f2"/>
    <ellipse id="Ellipse_173" data-name="Ellipse 173" cx="108.914" cy="5.021" rx="108.914" ry="5.021" transform="translate(0 158.132)" fill="#3f3d56"/>
    <path id="Path_631" data-name="Path 631" d="M938.967,680.689c.717-1.317-.1-2.931-1.023-4.108s-2.059-2.391-2.035-3.9c.033-2.152,2.317-3.422,4.144-4.562a20.282,20.282,0,0,0,3.718-2.991,5.447,5.447,0,0,0,1.145-1.53,6.242,6.242,0,0,0,.342-2.721q-.119-4.605-.454-9.2" transform="translate(-742.063 -519.407)" fill="none" stroke="#3f3d56" stroke-miterlimit="10" stroke-width="4"/>
    <path id="Path_632" data-name="Path 632" d="M966.263,640.812a3.362,3.362,0,0,0-1.674-2.75l-.751,1.487.022-1.8a3.355,3.355,0,1,0,2.391,3.061Z" transform="translate(-760.053 -508.702)" fill="#57b793"/>
    <path id="Path_633" data-name="Path 633" d="M942.466,730.471a3.348,3.348,0,1,1,.16-2.7l-2.095,1.7,2.305-.536A3.347,3.347,0,0,1,942.466,730.471Z" transform="translate(-742.241 -575.646)" fill="#57b793"/>
    <path id="Path_634" data-name="Path 634" d="M944.492,697.355a3.347,3.347,0,0,1-3.505-3.2,3.3,3.3,0,0,1,.289-1.528,3.361,3.361,0,0,1,2.152-1.86l-.017,1.385.76-1.506h0a3.357,3.357,0,1,1,.313,6.707Z" transform="translate(-745.923 -549.055)" fill="#57b793"/>
    <path id="Path_635" data-name="Path 635" d="M978.563,674.682a3.351,3.351,0,1,1,1.482-6.27l-.593,1.626,1.219-1.172a3.347,3.347,0,0,1,1.086,2.317,3.27,3.27,0,0,1-.086.923A3.348,3.348,0,0,1,978.563,674.682Z" transform="translate(-771.848 -531.813)" fill="#57b793"/>
    <path id="Path_636" data-name="Path 636" d="M965.931,647.525c-.775.086-1.528.328-2.305.375a2.508,2.508,0,0,1-2.123-.744,10.6,10.6,0,0,1-.622-1.09,2.392,2.392,0,0,0-.844-.8,3.348,3.348,0,1,0,6.274,2.229C966.182,647.5,966.055,647.513,965.931,647.525Z" transform="translate(-760.172 -514.53)" opacity="0.1"/>
    <path id="Path_637" data-name="Path 637" d="M978.538,680.782A3.347,3.347,0,0,1,975.346,676a2.485,2.485,0,0,1,.674.677,10.783,10.783,0,0,0,.665,1.11,2.736,2.736,0,0,0,2.226.777c.811-.038,1.59-.265,2.391-.34.11,0,.225-.019.337-.021A3.347,3.347,0,0,1,978.538,680.782Z" transform="translate(-771.823 -537.912)" opacity="0.1"/>
    <path id="Path_638" data-name="Path 638" d="M944.492,703.675a3.347,3.347,0,0,1-3.505-3.2,3.3,3.3,0,0,1,.289-1.528,2.755,2.755,0,0,1,.717.682c.261.368.423.791.717,1.131a3.1,3.1,0,0,0,2.377.832c.858-.022,1.631-.222,2.458-.285A3.362,3.362,0,0,1,944.492,703.675Z" transform="translate(-745.923 -555.375)" opacity="0.1"/>
    <path id="Path_639" data-name="Path 639" d="M942.178,737.25a3.354,3.354,0,0,1-6.119-2.75,3.475,3.475,0,0,1,.736.657,13.212,13.212,0,0,0,.9,1.2,4.176,4.176,0,0,0,2.778.976A14.4,14.4,0,0,0,942.178,737.25Z" transform="translate(-741.953 -582.424)" opacity="0.1"/>
    <path id="Path_640" data-name="Path 640" d="M927.54,762.093s2.647-.081,3.445-.65,4.065-1.248,4.273-.335,3.981,4.543.99,4.557-6.948-.478-7.745-.957S927.54,762.093,927.54,762.093Z" transform="translate(-735.695 -602.33)" fill="#656380"/>
    <path id="Path_641" data-name="Path 641" d="M936.3,769.874c-2.989.024-6.948-.478-7.745-.956-.6-.368-.849-1.7-.928-2.307h-.088s.167,2.135.956,2.63,4.753.976,7.745.956c.863,0,1.162-.316,1.145-.77C937.274,769.7,936.944,769.869,936.3,769.874Z" transform="translate(-735.695 -606.857)" opacity="0.2"/>
    <path id="Path_642" data-name="Path 642" d="M270.746,517.109c-1.736-3.214.239-7.149,2.5-10.014s5.021-5.844,4.961-9.5c-.086-5.246-5.653-8.343-10.1-11.123a49.329,49.329,0,0,1-9.069-7.29,13.247,13.247,0,0,1-2.788-3.733,15.15,15.15,0,0,1-.835-6.63q.287-11.238,1.11-22.433" transform="translate(-224.261 -363.204)" fill="none" stroke="#3f3d56" stroke-miterlimit="10" stroke-width="4"/>
    <path id="Path_643" data-name="Path 643" d="M224.731,419.884a8.18,8.18,0,0,1,4.084-6.7l1.832,3.622-.055-4.385a8.182,8.182,0,1,1-5.861,7.465Z" transform="translate(-200.928 -337.107)" fill="#57b793"/>
    <path id="Path_644" data-name="Path 644" d="M282.9,638.354a8.177,8.177,0,0,0,15.444-3.348,8.073,8.073,0,0,0-.533-3.319,8.182,8.182,0,0,0-15.3.089l5.11,4.156L282,634.624A8.088,8.088,0,0,0,282.9,638.354Z" transform="translate(-244.51 -500.209)" fill="#57b793"/>
    <path id="Path_645" data-name="Path 645" d="M277.882,557.777a8.182,8.182,0,0,0,2.594-16.049l.043,3.369-1.841-3.666h-.021a8.183,8.183,0,0,0-.763,16.348Z" transform="translate(-235.449 -435.513)" fill="#57b793"/>
    <path id="Path_646" data-name="Path 646" d="M194.765,502.505a8.182,8.182,0,1,0-3.615-15.3l1.435,3.962-2.963-2.862a8.144,8.144,0,0,0-2.654,5.648,7.978,7.978,0,0,0,.208,2.252A8.18,8.18,0,0,0,194.765,502.505Z" transform="translate(-172.194 -393.457)" fill="#57b793"/>
    <path id="Path_647" data-name="Path 647" d="M226.385,436.3c1.889.208,3.725.794,5.619.911a6.109,6.109,0,0,0,5.174-1.808,25.511,25.511,0,0,0,1.514-2.664,5.805,5.805,0,0,1,2.061-1.939,8.182,8.182,0,1,1-15.3,5.43C225.768,436.245,226.079,436.266,226.385,436.3Z" transform="translate(-201.482 -351.342)" opacity="0.1"/>
    <path id="Path_648" data-name="Path 648" d="M195.49,517.419a8.187,8.187,0,0,0,7.783-11.669,6.05,6.05,0,0,0-1.645,1.645,26.546,26.546,0,0,1-1.621,2.7,6.7,6.7,0,0,1-5.425,1.9c-1.975-.088-3.881-.653-5.846-.832-.273-.024-.55-.043-.825-.05A8.18,8.18,0,0,0,195.49,517.419Z" transform="translate(-172.918 -408.371)" opacity="0.1"/>
    <path id="Path_649" data-name="Path 649" d="M279,573.168a8.18,8.18,0,0,0,7.848-11.518,6.614,6.614,0,0,0-1.729,1.674,28.042,28.042,0,0,1-1.777,2.757,7.563,7.563,0,0,1-5.791,2.03c-2.025-.043-3.976-.541-5.99-.7A8.187,8.187,0,0,0,279,573.168Z" transform="translate(-236.566 -450.905)" opacity="0.1"/>
    <path id="Path_650" data-name="Path 650" d="M285.78,655.026a8.178,8.178,0,0,0,15.444-3.348,8.072,8.072,0,0,0-.533-3.319,8.2,8.2,0,0,0-1.793,1.6,31.46,31.46,0,0,1-2.19,2.908c-1.674,1.64-4.373,2.319-6.776,2.391A35.093,35.093,0,0,1,285.78,655.026Z" transform="translate(-247.386 -516.881)" opacity="0.1"/>
    <path id="Path_651" data-name="Path 651" d="M240.237,545.251l-31.562,6.456-.717-.072-27.737-2.8V513.689l33.954-5.739,24.628,2.869.007.155,0,.077Z" transform="translate(-137.128 -386.569)" fill="#fa4252"/>
    <path id="Path_652" data-name="Path 652" d="M328.5,554.876l-31.562,6.456-.717-.072V525.227l30.852-4.627Z" transform="translate(-225.391 -396.194)" opacity="0.1"/>
    <path id="Path_653" data-name="Path 653" d="M238.811,511.051l-.01.007L207.957,515.6l-27.737-1.913,33.954-5.739,24.628,2.869.007.155Z" transform="translate(-137.128 -386.569)" opacity="0.05"/>
    <path id="Path_654" data-name="Path 654" d="M385.237,551.251l-31.562,6.456-.717-.072-27.737-2.8V519.689l33.954-5.739,24.628,2.869.007.155,0,.077Z" transform="translate(-247.457 -391.134)" fill="#3f3d56"/>
    <path id="Path_655" data-name="Path 655" d="M473.5,560.876l-31.562,6.456-.717-.072V531.227l30.852-4.627Z" transform="translate(-335.72 -400.76)" opacity="0.1"/>
    <path id="Path_656" data-name="Path 656" d="M383.811,517.051l-.01.007L352.957,521.6l-27.737-1.913,33.954-5.739,24.628,2.869.007.155Z" transform="translate(-247.457 -391.134)" opacity="0.05"/>
    <path id="Path_657" data-name="Path 657" d="M294.237,407.251l-31.562,6.456-.717-.072-27.737-2.8V375.689l33.954-5.739,24.628,2.869.007.155,0,.077Z" transform="translate(-178.216 -281.566)" fill="#3f3d56"/>
    <path id="Path_658" data-name="Path 658" d="M382.5,416.876l-31.562,6.456-.717-.072V387.227l30.852-4.627Z" transform="translate(-266.479 -291.191)" opacity="0.1"/>
    <path id="Path_659" data-name="Path 659" d="M292.811,373.051l-.01.007L261.957,377.6l-27.737-1.913,33.954-5.739,24.628,2.869.007.155Z" transform="translate(-178.216 -281.566)" opacity="0.05"/>
    <path id="Path_660" data-name="Path 660" d="M460.543,470.158l-16.472,3.372-.375-.038-14.476-1.461V453.686l17.72-3,12.854,1.5,0,.081v.038Z" transform="translate(-326.589 -343)" fill="#3f3d56"/>
    <path id="Path_661" data-name="Path 661" d="M506.608,475.188l-16.472,3.372-.375-.038V459.715l16.1-2.415Z" transform="translate(-372.654 -348.03)" opacity="0.1"/>
    <path id="Path_662" data-name="Path 662" d="M459.8,452.309l0,0-16.1,2.372-14.476-1,17.72-3,12.854,1.5,0,.081Z" transform="translate(-326.589 -343)" opacity="0.05"/>
    <path id="Path_663" data-name="Path 663" d="M275.543,321.158l-16.472,3.369-.375-.036-14.476-1.461V304.686l17.72-3,12.855,1.5,0,.081v.038Z" transform="translate(-185.825 -229.628)" fill="#3f3d56"/>
    <path id="Path_664" data-name="Path 664" d="M321.608,326.188l-16.472,3.369-.375-.036V310.715l16.1-2.415Z" transform="translate(-231.889 -234.657)" opacity="0.1"/>
    <path id="Path_665" data-name="Path 665" d="M274.8,303.309l0,0-16.1,2.372-14.476-1,17.72-3,12.855,1.5,0,.081Z" transform="translate(-185.825 -229.628)" opacity="0.05"/>
    <path id="Path_666" data-name="Path 666" d="M396.543,318.158l-16.472,3.369-.375-.036-14.476-1.461V301.686l17.72-3,12.854,1.5,0,.081v.038Z" transform="translate(-277.892 -227.345)" fill="#fa4252"/>
    <path id="Path_667" data-name="Path 667" d="M442.608,323.188l-16.472,3.369-.375-.036V307.715l16.1-2.415Z" transform="translate(-323.957 -232.375)" opacity="0.1"/>
    <path id="Path_668" data-name="Path 668" d="M395.8,300.309l0,0-16.1,2.372-14.476-1,17.72-3,12.854,1.5,0,.081Z" transform="translate(-277.892 -227.345)" opacity="0.05"/>
    <path id="Path_669" data-name="Path 669" d="M432.543,241.158l-16.472,3.369-.375-.036-14.476-1.461V224.686l17.72-3,12.855,1.5,0,.081v.038Z" transform="translate(-305.284 -168.757)" fill="#3f3d56"/>
    <path id="Path_670" data-name="Path 670" d="M478.608,246.188l-16.472,3.369-.375-.036V230.715l16.1-2.415Z" transform="translate(-351.349 -173.786)" opacity="0.1"/>
    <path id="Path_671" data-name="Path 671" d="M431.8,223.309l0,0-16.1,2.372-14.476-1,17.72-3,12.855,1.5,0,.081Z" transform="translate(-305.284 -168.757)" opacity="0.05"/>
    <path id="Path_672" data-name="Path 672" d="M698.012,228.966c-.174,1.554-1.36,2.807-1.8,4.3-.66,2.26.478,4.687,2.047,6.456a14.292,14.292,0,0,0,9.952,4.72,4.282,4.282,0,0,0,1.645-.179,3.571,3.571,0,0,0,1.25-.856,8,8,0,0,0,2.061-4.474,23.918,23.918,0,0,0,.057-5,2.828,2.828,0,0,0-.186-1.009,2.564,2.564,0,0,0-.648-.8,15.054,15.054,0,0,0-2.786-2.025,3.128,3.128,0,0,1-1.167-.892,2.92,2.92,0,0,1-.361-1.069l-.308-1.569a3.078,3.078,0,0,0-.452-1.272,3.13,3.13,0,0,0-2.494-.868l-3.348-.131a16,16,0,0,0-3.424-.134c-.957.189-.634,1.064-.461,1.858A13.419,13.419,0,0,1,698.012,228.966Z" transform="translate(-559.534 -194.067)" fill="#ffc0c6"/>
    <path id="Path_673" data-name="Path 673" d="M698.012,228.966c-.174,1.554-1.36,2.807-1.8,4.3-.66,2.26.478,4.687,2.047,6.456a14.292,14.292,0,0,0,9.952,4.72,4.282,4.282,0,0,0,1.645-.179,3.571,3.571,0,0,0,1.25-.856,8,8,0,0,0,2.061-4.474,23.918,23.918,0,0,0,.057-5,2.828,2.828,0,0,0-.186-1.009,2.564,2.564,0,0,0-.648-.8,15.054,15.054,0,0,0-2.786-2.025,3.128,3.128,0,0,1-1.167-.892,2.92,2.92,0,0,1-.361-1.069l-.308-1.569a3.078,3.078,0,0,0-.452-1.272,3.13,3.13,0,0,0-2.494-.868l-3.348-.131a16,16,0,0,0-3.424-.134c-.957.189-.634,1.064-.461,1.858A13.419,13.419,0,0,1,698.012,228.966Z" transform="translate(-559.534 -194.067)" opacity="0.1"/>
    <path id="Path_674" data-name="Path 674" d="M737.987,512.708l-1.42,15.571c-.371,4.084-.748,8.185-1.475,12.216-.239,1.389-.545,2.771-.894,4.141-.971,3.8-2.379,7.522-2.834,11.422-.014.112-.026.239-.038.342a10.245,10.245,0,0,1-.478,2.535c-.239.6-.576,1.138-.823,1.726a11.324,11.324,0,0,0-.615,3.752,16.168,16.168,0,0,0-5.569-1.913,4.126,4.126,0,0,1-2.63-.956,3.755,3.755,0,0,1-.514-3.02q.564-4.878,1.124-9.751a25.407,25.407,0,0,1,.717-4.141c.129-.452.284-.9.442-1.341.218-.612.437-1.224.6-1.853a22.293,22.293,0,0,0,.474-3.068c.385-3.271.849-6.535,1.255-9.8l.022-.172a100.281,100.281,0,0,0,.94-14.923c-.019-.739-.05-1.478-.1-2.219-.067-1.074-.165-1.643.717-2.315a16.719,16.719,0,0,1,3.4-1.745c.6-.263,7.267-2.63,7.412-2.109a12.978,12.978,0,0,1,.478,3.4,37.8,37.8,0,0,1-.2,4.225Z" transform="translate(-578.25 -407.806)" fill="#605d82"/>
    <path id="Path_675" data-name="Path 675" d="M742.535,614.911c-.239,1.389-.545,2.771-.894,4.141-.971,3.8-2.379,7.522-2.833,11.422-.014.112-.026.239-.038.342-2.97-4.242-5.471-8.8-8.369-13.091.218-.612.438-1.224.6-1.853a22.344,22.344,0,0,0,.5-3.087c.385-3.271.849-6.535,1.255-9.8l.022-.172a10.156,10.156,0,0,0,.717,2.011c1.947,3.955,6.571,5.954,8.833,9.739Q742.439,614.737,742.535,614.911Z" transform="translate(-585.693 -482.223)" opacity="0.1"/>
    <path id="Path_676" data-name="Path 676" d="M680.328,446.723a73.535,73.535,0,0,0,1.112,9.447l1.045,6.456c.571,3.539,1.169,7.147,2.843,10.315a47.612,47.612,0,0,0,4.689,6.521c4.012,5.227,7.027,11.15,10.832,16.53,1.107,1.564,2.688,3.257,4.574,2.929,1.239-.213,2.138-1.246,3.109-2.04a19.338,19.338,0,0,0,3.434-2.8c.9-1.176,1.081-3.128-.143-3.964a6.609,6.609,0,0,0-1.4-.574c-1.9-.717-3.125-2.573-3.9-4.447a42.378,42.378,0,0,0-2.3-5.629c-2.262-3.785-6.889-5.784-8.835-9.741-1.09-2.214-1.2-4.782-1.277-7.238l-.213-6.291a4.581,4.581,0,0,1,.239-2.032c.744-1.674,2.991-1.832,4.813-2.044a16.438,16.438,0,0,0,5.9-1.86,6.117,6.117,0,0,0,2.63-2.341,7.521,7.521,0,0,0,.641-3.168l.631-11.4a7.192,7.192,0,0,0-.239-2.915c-.868-2.31-3.785-3.065-6.25-2.955-4.586.206-8.818,2.178-13.151,3.513a33.644,33.644,0,0,1-3.259.849,26.417,26.417,0,0,0-3.07.426c-1.645.555-1.6,4.156-1.836,5.648A47.413,47.413,0,0,0,680.328,446.723Z" transform="translate(-547.584 -348.806)" fill="#605d82"/>
    <path id="Path_677" data-name="Path 677" d="M779.814,704.862a2.922,2.922,0,0,1,.641,1.571,53.591,53.591,0,0,1,.909,9.5,1.573,1.573,0,0,0,.17.861,1.1,1.1,0,0,0,.447.359c1.169.557,2.525-.22,3.5-1.073,1.805-1.581,3.333-3.7,3.436-6.1a14,14,0,0,1,.065-1.851,7.7,7.7,0,0,1,1.15-2.479,21.05,21.05,0,0,0,1.913-4.261c.177-.559.3-1.263-.143-1.652a1.533,1.533,0,0,0-.519-.27L786.1,697.5c-.459-.17-1.6,2.755-1.777,3.075a2.42,2.42,0,0,1-1.769,1.406c-.887.182-1.982-.081-2.829.371C778.289,703.112,779,704.047,779.814,704.862Z" transform="translate(-622.597 -554.264)" fill="#535070"/>
    <path id="Path_678" data-name="Path 678" d="M729.526,732.971a1.608,1.608,0,0,0-.4-.509,1.8,1.8,0,0,0-.811-.275c-1-.172-2.2-.285-2.891.464-.651.7-.538,1.841-1.081,2.63a8.166,8.166,0,0,0-.555.717,2.693,2.693,0,0,0-.239,1.286c-.029,1.217-.057,2.439.029,3.654a5.1,5.1,0,0,0,.878,2.886c1.023,1.282,2.869,1.466,4.5,1.547l1.327.069a2.63,2.63,0,0,0,1.085-.1,1.781,1.781,0,0,0,.937-1.031c.691-1.717-.4-3.565-1.076-5.287C730.457,737.041,730.6,734.843,729.526,732.971Z" transform="translate(-580.458 -580.568)" fill="#535070"/>
    <path id="Path_679" data-name="Path 679" d="M688.3,177.842a1.086,1.086,0,0,1,.074-.512c.194-.342.7-.239,1.083-.153,1.537.387,3.159.036,4.744.127s3.369.882,3.687,2.436a11.524,11.524,0,0,0,2.924-3,3.6,3.6,0,0,0,.763-2.2,4.322,4.322,0,0,0-1.913-2.711l-2.63-2.152a4,4,0,0,0-1.181-.751,5.877,5.877,0,0,0-1.913-.108c-1.913,0-3.964-.873-5.669,0a6.055,6.055,0,0,0-1.767,1.607l-2.35,2.783a1.485,1.485,0,0,0-.378.638,2.812,2.812,0,0,0,.17,1.016c.11.622-.158,1.286.048,1.884.342.99,1.547,1.131,2.283,1.7.273.21.7.93,1.031.921C687.88,179.353,688.282,178.3,688.3,177.842Z" transform="translate(-550.203 -151.706)" fill="#3f3d56"/>
    <circle id="Ellipse_174" data-name="Ellipse 174" cx="7.532" cy="7.532" r="7.532" transform="translate(134.552 19.281)" fill="#ffc0c6"/>
    <path id="Path_680" data-name="Path 680" d="M669.127,253.764a3.649,3.649,0,0,0-3.541-2.444,1.064,1.064,0,0,1-.655-.084.907.907,0,0,1-.27-.335,13.335,13.335,0,0,1-1.1-2.6c-.12-.4-.284-.87-.689-.973a.924.924,0,0,0-.875.383,8.357,8.357,0,0,1-.626.787c-.956.846-2.63.074-3.632.851-.165.127-.3.289-.478.406a2.17,2.17,0,0,1-.552.239,52.941,52.941,0,0,0-5.71,2.231,53.659,53.659,0,0,0,2.922,11.9c.746,1.793,1.59,3.551,2.188,5.4,1.325,4.1,1.382,8.479,1.4,12.785a26.814,26.814,0,0,1-.956,8.742,8.468,8.468,0,0,0-.538,1.913,1.989,1.989,0,0,0,.674,1.789,2.274,2.274,0,0,0,1.04.366,13.513,13.513,0,0,0,4.942-.574,133.06,133.06,0,0,1,13.242-2.152l7.436-.956a4.35,4.35,0,0,0,1.54-.4c1.361-.744,1.49-2.79.643-4.091-.4-.624-.976-1.136-1.318-1.8a1.668,1.668,0,0,1,.218-2.044c1.2-.933.837-2.661.894-4.173q.239-6.341-.064-12.673a24.78,24.78,0,0,1-.043-2.63,23.2,23.2,0,0,1,.82-4.39l2.26-8.895a4.637,4.637,0,0,0-2.791-1.793c-1.069-.268-2.185-.347-3.24-.674-2.152-.669-4.084-2.367-6.339-2.209a1.16,1.16,0,0,0-.493.12c-.507.289-.428,1.021-.459,1.6a4.439,4.439,0,0,1-2.07,3.13,37.331,37.331,0,0,0-3.211,2.171A1.434,1.434,0,0,0,669.127,253.764Z" transform="translate(-525.279 -210.469)" fill="#3f3d56"/>
    <path id="Path_681" data-name="Path 681" d="M589.261,305.93a8.835,8.835,0,0,1-1.583.815,5.263,5.263,0,0,0-1.518.737,2.4,2.4,0,0,0-.528.653,2.9,2.9,0,0,0,2.673,4.321,5.826,5.826,0,0,0,1.977-.591l5.313-2.312a4.173,4.173,0,0,0,2.3-1.729.416.416,0,0,0,.052-.275.451.451,0,0,0-.22-.239,11.9,11.9,0,0,1-3.092-2.917c-.218-.3-.478-.995-.794-1.174C592.714,302.595,590.162,305.347,589.261,305.93Z" transform="translate(-475.256 -254.197)" fill="#ffc0c6"/>
    <path id="Path_682" data-name="Path 682" d="M799.172,307l1.958,2.238c.421.478.842.956,1.224,1.473a17.134,17.134,0,0,1,2.243,4.225,7.388,7.388,0,0,1,.631,3.493,8.605,8.605,0,0,1-.49,1.777,21.974,21.974,0,0,1-1.332,3.2,18.233,18.233,0,0,1-1.49,2.24,52.387,52.387,0,0,1-4.966,5.679,6.39,6.39,0,0,0-1.241,2.63,10.993,10.993,0,0,1-3.053,4.16,8.422,8.422,0,0,1-1.313,1.129,4.255,4.255,0,0,1-2.391.679,2.63,2.63,0,0,1-1.074-.222,2.777,2.777,0,0,1-1.365-2.312,4.949,4.949,0,0,1,.411-2.477c1.124-2.489,4.01-3.568,6.049-5.385a19.733,19.733,0,0,0,3.015-3.725,12.932,12.932,0,0,0,1.523-2.671c.454-1.217.277-2.656.677-3.89.167-.524.478-.995.648-1.513a1.792,1.792,0,0,0-.091-1.581,2.283,2.283,0,0,0-.887-.65c-1.3-.66-2.762-1.511-3.01-2.953a3.162,3.162,0,0,1,.584-2.255,9.326,9.326,0,0,1,1.643-1.721C797.642,308.059,798.6,307.493,799.172,307Z" transform="translate(-628.373 -257.144)" fill="#ffc0c6"/>
    <path id="Path_683" data-name="Path 683" d="M567.938,321.61a3.623,3.623,0,0,0-1.475-1.758,2.716,2.716,0,0,0-2.152,0,8.156,8.156,0,0,0-1.884,1.138l-1.688,1.246a4.149,4.149,0,0,0-1,.925,3.853,3.853,0,0,0-.521,1.435,10.419,10.419,0,0,0-.266,3.541,10.074,10.074,0,0,0,2.678,5.021,4.473,4.473,0,0,0,2.965,1.858,1.36,1.36,0,0,0,1.31-.66,1.633,1.633,0,0,0,.117-.588,13.105,13.105,0,0,0-1.516-6.131,3.793,3.793,0,0,1-.478-1.648.443.443,0,0,1,.072-.277.464.464,0,0,1,.287-.141c1.212-.239,3.3.7,4.151-.643C569.086,324.04,568.33,322.4,567.938,321.61Z" transform="translate(-455.191 -266.754)" fill="#ffc0c6"/>
    <path id="Path_684" data-name="Path 684" d="M686.654,167.932a1.117,1.117,0,0,1,.077-.512c.194-.344.7-.239,1.083-.153,1.537.387,3.159.036,4.744.127s3.367.882,3.687,2.437a11.6,11.6,0,0,0,2.924-3,3.614,3.614,0,0,0,.763-2.2,4.319,4.319,0,0,0-1.913-2.709l-2.63-2.152a3.982,3.982,0,0,0-1.179-.751,5.881,5.881,0,0,0-1.913-.108c-1.913,0-3.964-.873-5.669,0a6.053,6.053,0,0,0-1.767,1.607l-2.353,2.783a1.489,1.489,0,0,0-.375.638,2.812,2.812,0,0,0,.17,1.016c.11.622-.158,1.286.048,1.882.342.992,1.547,1.133,2.283,1.7.273.21.7.93,1.031.921C686.23,169.443,686.632,168.391,686.654,167.932Z" transform="translate(-548.955 -144.165)" fill="#3f3d56"/>
    <path id="Path_685" data-name="Path 685" d="M621.361,276.244a3.123,3.123,0,0,0-.789.734c-.275.418-.332.956-.569,1.387-.507.942-1.7,1.279-2.434,2.052a.764.764,0,0,0-.239.4.887.887,0,0,0,.2.579l3.572,5.614c1.2.105,2.329-.641,3.52-.54a3.549,3.549,0,0,0,1.325.057,3.856,3.856,0,0,0,.849-.519c.717-.45,1.655-.5,2.25-1.093a3.01,3.01,0,0,0,.638-2.264,8.934,8.934,0,0,0-.213-2.08c-.526-2.152-2.174-3.811-3.207-5.72-.5-.93-.777-1.473-1.841-.834S622.368,275.508,621.361,276.244Z" transform="translate(-499.659 -231.837)" fill="#3f3d56"/>
    <path id="Path_686" data-name="Path 686" d="M796.086,266.3a8.384,8.384,0,0,1,1.8,1.573c.543.7.851,1.561,1.375,2.279a24.879,24.879,0,0,0,1.769,1.875,14.294,14.294,0,0,1,2.042,3.326,49.9,49.9,0,0,1-4.62,5.213,1.48,1.48,0,0,1-.7.459,1.126,1.126,0,0,1-.99-.4c-.258-.268-.44-.6-.686-.882a3.527,3.527,0,0,0-2.183-1.055,15,15,0,0,0-2.475-.036.957.957,0,0,1-.528-.089.874.874,0,0,1-.287-.33c-.956-1.645-.658-3.711-.316-5.59l.782-4.3a9.673,9.673,0,0,1,.653-2.391c.3-.634.956-1.71,1.774-1.518S795.395,265.806,796.086,266.3Z" transform="translate(-631.007 -224.735)" fill="#3f3d56"/>
    <path id="Path_687" data-name="Path 687" d="M305.543,244.158l-16.472,3.369-.375-.036-14.476-1.461V227.686l17.72-3,12.855,1.5,0,.081v.038Z" transform="translate(-208.651 -171.039)" fill="#fa4252"/>
    <path id="Path_688" data-name="Path 688" d="M351.608,249.188l-16.472,3.369-.375-.036V233.715l16.1-2.415Z" transform="translate(-254.716 -176.069)" opacity="0.1"/>
    <path id="Path_689" data-name="Path 689" d="M304.8,226.309l0,0-16.1,2.372-14.476-1,17.72-3,12.855,1.5,0,.081Z" transform="translate(-208.651 -171.039)" opacity="0.05"/>
    <path id="Path_690" data-name="Path 690" d="M341.543,168.158l-16.472,3.371-.375-.038-14.476-1.461V151.686l17.721-3,12.854,1.5,0,.081v.038Z" transform="translate(-236.043 -113.212)" fill="#3f3d56"/>
    <path id="Path_691" data-name="Path 691" d="M387.608,173.188l-16.472,3.371-.375-.038V157.715l16.1-2.415Z" transform="translate(-282.108 -118.241)" opacity="0.1"/>
    <path id="Path_692" data-name="Path 692" d="M340.8,150.309l0,0-16.1,2.372-14.476-1,17.721-3,12.854,1.5,0,.081Z" transform="translate(-236.043 -113.212)" opacity="0.05"/>
  </g>
</svg>
