<svg xmlns="http://www.w3.org/2000/svg" width="274.748" height="120.912" viewBox="0 0 274.748 120.912">
  <g id="undraw_On_the_way_re_swjt" transform="translate(0 0)">
    <path id="Path_578" data-name="Path 578" d="M272.33,441.034c-.945,7.4-4.418,14.172-8.123,20.694-.122.222-.249.441-.378.663H225.318c-.779-.2-1.548-.424-2.313-.663a42.1,42.1,0,0,1-12.16-5.982c-14.168-10.208-19.62-29.5-17.158-46.78,1.531-10.738,6.244-21.7,15.421-27.485a23.153,23.153,0,0,1,16.647-2.917c.146.027.292.06.441.089a17.178,17.178,0,0,1,11.507,8.09c4.375,7.772,1.77,17.4-.381,26.05s-3.308,19,2.916,25.384A15.878,15.878,0,0,1,258.7,417.539c.451.1.895.206,1.332.338a14.779,14.779,0,0,1,3.039,1.273C270.414,423.25,273.387,432.692,272.33,441.034Z" transform="translate(-190.591 -341.478)" fill="#f2f2f2"/>
    <path id="Path_579" data-name="Path 579" d="M292.737,462.626c1.067.249,2.138.467,3.215.663h-5.823c-.762-.206-1.521-.424-2.273-.663q-2.481-.775-4.885-1.78a43.826,43.826,0,0,1-16.833-12.137,34.259,34.259,0,0,1-5.309-8.673,39.39,39.39,0,0,1-2.718-11.1,78.937,78.937,0,0,1,1.564-23.541,98.25,98.25,0,0,1,7.676-23.024q.631-1.317,1.306-2.618a.511.511,0,0,1,.341-.292.589.589,0,0,1,.441.089.7.7,0,0,1,.275.921,97.117,97.117,0,0,0-8.146,22.192,85.42,85.42,0,0,0-2.423,23.1c.325,7.218,2.211,14.317,6.489,20.22a40.8,40.8,0,0,0,15.272,12.531A56.053,56.053,0,0,0,292.737,462.626Z" transform="translate(-233.834 -342.377)" fill="#fff"/>
    <path id="Path_580" data-name="Path 580" d="M380.471,541.935h-1.717c-.192-.219-.378-.441-.56-.663a36.593,36.593,0,0,1-7.7-16.458,35.705,35.705,0,0,1,3.079-22.222,36.537,36.537,0,0,1,3.327-5.508c.451.1.895.205,1.332.338a34.539,34.539,0,0,0,1.647,43.85C380.07,541.494,380.268,541.717,380.471,541.935Z" transform="translate(-308.788 -421.023)" fill="#fff"/>
    <path id="Path_581" data-name="Path 581" d="M868.319,581.9a15.186,15.186,0,0,0,2.144,5.462c.032.059.066.116.1.175h10.164c.206-.053.408-.112.611-.175a11.114,11.114,0,0,0,3.209-1.579c3.739-2.694,5.178-7.785,4.528-12.346-.4-2.834-1.648-5.727-4.07-7.254a6.11,6.11,0,0,0-4.393-.77l-.116.024a4.534,4.534,0,0,0-3.037,2.135c-1.154,2.051-.467,4.592.1,6.875s.873,5.015-.77,6.7a4.191,4.191,0,0,0-4.873-5.447c-.119.025-.236.054-.352.089a3.9,3.9,0,0,0-.8.336C868.824,577.209,868.04,579.7,868.319,581.9Z" transform="translate(-641.982 -466.627)" fill="#f2f2f2"/>
    <path id="Path_582" data-name="Path 582" d="M884.9,587.6c-.282.066-.564.123-.849.175h1.537c.2-.054.4-.112.6-.175q.655-.2,1.289-.47a11.569,11.569,0,0,0,4.443-3.2,9.044,9.044,0,0,0,1.4-2.289,10.4,10.4,0,0,0,.717-2.929,20.838,20.838,0,0,0-.413-6.213,25.931,25.931,0,0,0-2.026-6.076q-.167-.348-.345-.691a.135.135,0,0,0-.09-.077.156.156,0,0,0-.116.024.184.184,0,0,0-.073.243,25.634,25.634,0,0,1,2.15,5.857,22.549,22.549,0,0,1,.64,6.1,9.729,9.729,0,0,1-1.713,5.336,10.767,10.767,0,0,1-4.031,3.307A14.783,14.783,0,0,1,884.9,587.6Z" transform="translate(-652.538 -466.868)" fill="#fff"/>
    <path id="Path_583" data-name="Path 583" d="M876.437,608.536h.453c.051-.058.1-.116.148-.175a9.659,9.659,0,0,0,2.033-4.344,9.424,9.424,0,0,0-.813-5.865,9.646,9.646,0,0,0-.878-1.454c-.119.025-.236.054-.352.089a9.115,9.115,0,0,1-.435,11.573C876.543,608.42,876.49,608.478,876.437,608.536Z" transform="translate(-647.446 -487.624)" fill="#fff"/>
    <path id="Path_584" data-name="Path 584" d="M527.155,454.236h-31.81l-.337-9.781a2.936,2.936,0,0,1,3.291-3.016l18.511,2.267h0a10.37,10.37,0,0,1,10.342,10.364Z" transform="translate(-392.429 -383.807)" fill="#fa4252"/>
    <path id="Path_585" data-name="Path 585" d="M499.943,375.414H477.757a2.246,2.246,0,0,0-2.247,2.247v22.186a2.246,2.246,0,0,0,2.247,2.247h22.186a2.246,2.246,0,0,0,2.247-2.247V377.661a2.246,2.246,0,0,0-2.247-2.247Z" transform="translate(-379.395 -339.677)" fill="#ccc"/>
    <path id="Path_586" data-name="Path 586" d="M505.663,407.588l-10.475,2.04a2.39,2.39,0,0,1-2.8-1.887l-.805-4.135a2.39,2.39,0,0,1,1.887-2.8l10.475-2.04a2.39,2.39,0,0,1,2.8,1.887l.805,4.135A2.39,2.39,0,0,1,505.663,407.588Z" transform="translate(-390.111 -355.261)" fill="#3f3d56"/>
    <path id="Path_587" data-name="Path 587" d="M510.355,408.487l-7.994,1.557a.562.562,0,1,1-.215-1.1l7.994-1.557a.562.562,0,1,1,.215,1.1Z" transform="translate(-396.899 -361.045)" fill="#fff"/>
    <path id="Path_588" data-name="Path 588" d="M513.452,415.443l-4.135.805a.562.562,0,1,1-.215-1.1l4.135-.805a.562.562,0,1,1,.215,1.1Z" transform="translate(-401.55 -365.695)" fill="#fff"/>
    <path id="Path_589" data-name="Path 589" d="M502.189,377.661v2.949H475.51v-2.949a2.246,2.246,0,0,1,2.247-2.247h22.186A2.246,2.246,0,0,1,502.189,377.661Z" transform="translate(-379.395 -339.677)" fill="#b3b3b3"/>
    <path id="Path_590" data-name="Path 590" d="M642.316,367.53a3.56,3.56,0,0,0-5.035-2.109L606.758,354.47l-1.344,7.625,30.426,8.367a3.58,3.58,0,0,0,6.477-2.931Z" transform="translate(-466.246 -325.674)" fill="#ffb8b8"/>
    <path id="Path_591" data-name="Path 591" d="M642.316,367.53a3.56,3.56,0,0,0-5.035-2.109L606.758,354.47l-1.344,7.625,30.426,8.367a3.58,3.58,0,0,0,6.477-2.931Z" transform="translate(-466.246 -325.674)" opacity="0.2"/>
    <path id="Path_592" data-name="Path 592" d="M595.56,350.264l-2.882,7.53a1.6,1.6,0,0,1-2.274.821l-7-3.943a4.434,4.434,0,1,1,3.194-8.272l7.822,1.735a1.6,1.6,0,0,1,1.145,2.129Z" transform="translate(-449.63 -320.08)" fill="#fa4252"/>
    <path id="Path_593" data-name="Path 593" d="M701.947,414.914l-10.937,4.971,1.436,5.406a84.1,84.1,0,0,1,2.167,32.032h0l8,1.67,6.628-16.9-2.32-19.222Z" transform="translate(-523.473 -366.086)" fill="#fa4252"/>
    <path id="Path_594" data-name="Path 594" d="M761.877,490.414c-7.186,0-13.042,5.224-13.326,11.765H775.2C774.919,495.638,769.063,490.414,761.877,490.414Z" transform="translate(-561.944 -416.564)" fill="#3f3d56"/>
    <path id="Path_595" data-name="Path 595" d="M551.178,439.594c-.374-29.529-17.191-26.812-17.191-26.812s.315,9.191.466,9.477c10.717,20.276-6.97,44.047-29.483,39.674q-.637-.124-1.223-.251a11.461,11.461,0,0,1-9-12.847c2.218-17.809-8.813-17.494-8.813-17.494H469.8l-8.376-7.539a2.435,2.435,0,0,0-3.914.968l-1.078,2.925s-15.908,1.657-14.583,17.234h4.918a9.944,9.944,0,0,0,.053,1.326l36.705-.3a4.017,4.017,0,0,1,4.06,3.878,3.9,3.9,0,0,1-4.025,3.909l-5.918-.2c-1.823,8.12,2.651,13.588,7.581,17.027a27.558,27.558,0,0,0,15.782,4.847h16.076c20.88,0,24.525-17.565,24.525-17.565C552.546,453.215,551.178,439.594,551.178,439.594Z" transform="translate(-356.839 -364.617)" fill="#3f3d56"/>
    <circle id="Ellipse_162" data-name="Ellipse 162" cx="18.642" cy="18.642" r="18.642" transform="translate(180.296 83.13)" fill="#3f3d56"/>
    <circle id="Ellipse_163" data-name="Ellipse 163" cx="4.569" cy="4.569" r="4.569" transform="translate(194.37 97.203)" fill="#fff"/>
    <circle id="Ellipse_164" data-name="Ellipse 164" cx="21.46" cy="21.46" r="21.46" transform="translate(83.356 77.496)" fill="#3f3d56"/>
    <circle id="Ellipse_165" data-name="Ellipse 165" cx="5.26" cy="5.26" r="5.26" transform="translate(99.556 93.696)" fill="#fff"/>
    <path id="Path_596" data-name="Path 596" d="M682.6,391.707l-3.935-10.688a4.52,4.52,0,0,1,2.68-5.8l11.282-4.153a7.953,7.953,0,1,1,5.5,14.927Z" transform="translate(-515.033 -336.439)" fill="#3f3d56"/>
    <path id="Path_597" data-name="Path 597" d="M732.33,378.864a7.8,7.8,0,0,1-2.917,6.078,9.939,9.939,0,0,1-6.529-13.688,7.79,7.79,0,0,1,9.446,7.609Z" transform="translate(-544.199 -336.778)" fill="#fa4252"/>
    <ellipse id="Ellipse_166" data-name="Ellipse 166" cx="4.64" cy="5.634" rx="4.64" ry="5.634" transform="translate(83.19 71.199)" fill="#fa4252"/>
    <path id="Path_598" data-name="Path 598" d="M450.07,270.746h4.063l1.933-10.538h-6Z" transform="translate(-300.907 -173.97)" fill="#ffb8b8"/>
    <path id="Path_599" data-name="Path 599" d="M632.444,555.587h8a5.1,5.1,0,0,1,5.1,5.1v.166h-13.1Z" transform="translate(-484.317 -460.137)" fill="#2f2e41"/>
    <path id="Path_600" data-name="Path 600" d="M594.42,469.137q-.071,0-.143-.007l-5.623-.409a1.491,1.491,0,0,1-1.262-2l7.525-16.907a1.16,1.16,0,0,0-.065-.928,1.144,1.144,0,0,0-.733-.583c-3.539-.925-12.618-3.388-20.477-6.27-3.367-1.235-5.488-3.019-6.3-5.3a7.485,7.485,0,0,1,.583-5.873l.053-.09,7.4.672,8.018.682,17.57,9.422a6.657,6.657,0,0,1,2.923,8.545l-8.1,18.164A1.49,1.49,0,0,1,594.42,469.137Z" transform="translate(-440.541 -376.686)" fill="#2f2e41"/>
    <circle id="Ellipse_167" data-name="Ellipse 167" cx="8.14" cy="8.14" r="8.14" transform="translate(127.976 5.024)" fill="#ffb8b8"/>
    <path id="Path_601" data-name="Path 601" d="M443.07,273.746h4.063l1.933-10.538h-6Z" transform="translate(-296.227 -175.975)" fill="#ffb8b8"/>
    <path id="Path_602" data-name="Path 602" d="M625.444,558.587h8a5.1,5.1,0,0,1,5.1,5.1v.166h-13.1Z" transform="translate(-479.637 -462.143)" fill="#2f2e41"/>
    <path id="Path_603" data-name="Path 603" d="M587.42,472.137q-.071,0-.143-.007l-5.623-.409a1.491,1.491,0,0,1-1.262-2l7.525-16.907a1.159,1.159,0,0,0-.065-.928,1.144,1.144,0,0,0-.733-.583c-3.539-.925-12.618-3.388-20.477-6.27-3.367-1.235-5.488-3.019-6.3-5.3a7.486,7.486,0,0,1,.583-5.873l.053-.09,7.4.672,8.017.682,17.57,9.422a6.657,6.657,0,0,1,2.923,8.545l-8.1,18.164A1.49,1.49,0,0,1,587.42,472.137Z" transform="translate(-435.861 -378.691)" fill="#2f2e41"/>
    <path id="Path_604" data-name="Path 604" d="M576.7,339.777l-8.617-2.983s-5.409,4.156-2.811,14.466a25.524,25.524,0,0,1-1.127,16.014,16.5,16.5,0,0,1-.868,1.833s9.611,11.6,18.56,2.983l-3.48-16.737S583.828,344.251,576.7,339.777Z" transform="translate(-438.076 -313.857)" fill="#fa4252"/>
    <path id="Path_605" data-name="Path 605" d="M572.994,289.166c-1.158-1.734-2.073-4.139-.8-5.789,1.259-1.629,3.742-1.389,5.671-2.109a6.42,6.42,0,0,0,3.758-6.985,8.287,8.287,0,0,0-5.457-6.127,11.814,11.814,0,0,0-8.4.457,12.821,12.821,0,0,0-7.224,7.317,9.857,9.857,0,0,0,1.886,9.886c2.606,2.744,6.7,3.475,10.48,3.43" transform="translate(-435.867 -267.585)" fill="#2f2e41"/>
    <path id="Path_607" data-name="Path 607" d="M640.31,375.582a3.56,3.56,0,0,0-5.257-1.472l-31.641-7.1-.393,7.733,31.225,4.549a3.58,3.58,0,0,0,6.066-3.708Z" transform="translate(-464.645 -334.057)" fill="#ffb8b8"/>
    <path id="Path_608" data-name="Path 608" d="M590.919,363.379l-1.931,7.828a1.6,1.6,0,0,1-2.155,1.095l-7.438-3.048a4.434,4.434,0,1,1,2.149-8.6l7.977.756a1.6,1.6,0,0,1,1.4,1.972Z" transform="translate(-446.603 -329.718)" fill="#fa4252"/>
    <circle id="Ellipse_168" data-name="Ellipse 168" cx="2.32" cy="2.32" r="2.32" transform="translate(169.691 43.028)" fill="#fa4252"/>
    <path id="Path_609" data-name="Path 609" d="M460.248,630.745a.332.332,0,0,1-.331.331H185.831a.331.331,0,0,1,0-.663H459.917A.333.333,0,0,1,460.248,630.745Z" transform="translate(-185.5 -510.165)" fill="#3f3d56"/>
  </g>
</svg>
